<?xml version="1.0" encoding="UTF-8" standalone="no"?>
<!-- Created with Inkscape (http://www.inkscape.org/) -->

<svg
   width="512"
   height="215"
   viewBox="0 0 135.46667 56.885417"
   version="1.1"
   id="svg6032"
   inkscape:version="1.2.2 (b0a8486541, 2022-12-01)"
   sodipodi:docname="logo.svg"
   inkscape:export-filename="logo.png"
   inkscape:export-xdpi="96"
   inkscape:export-ydpi="96"
   xmlns:inkscape="http://www.inkscape.org/namespaces/inkscape"
   xmlns:sodipodi="http://sodipodi.sourceforge.net/DTD/sodipodi-0.dtd"
   xmlns="http://www.w3.org/2000/svg"
   xmlns:svg="http://www.w3.org/2000/svg">
  <sodipodi:namedview
     id="namedview6034"
     pagecolor="#505050"
     bordercolor="#ffffff"
     borderopacity="1"
     inkscape:showpageshadow="0"
     inkscape:pageopacity="0"
     inkscape:pagecheckerboard="1"
     inkscape:deskcolor="#505050"
     inkscape:document-units="px"
     showgrid="false"
     inkscape:zoom="2.2778203"
     inkscape:cx="230.4835"
     inkscape:cy="102.72979"
     inkscape:window-width="1920"
     inkscape:window-height="1026"
     inkscape:window-x="0"
     inkscape:window-y="32"
     inkscape:window-maximized="1"
     inkscape:current-layer="layer1" />
  <defs
     id="defs6029" />
  <g
     inkscape:label="Layer 1"
     inkscape:groupmode="layer"
     id="layer1">
    <g
       id="g4808"
       transform="matrix(1.4389475,0,0,1.4389475,-627.03613,-205.63772)">
      <polyline
         style="fill:#ffffff"
         points="575.957,724.682 424.26,724.682 424.26,754.313 576.842,754.313 576.842,724.682 575.957,724.682   "
         id="polyline41-4-2"
         transform="matrix(0.61699862,0,0,1.336945,173.99242,-825.99273)" />
      <rect
         style="fill:#5c5d5f;stroke-width:0.624231"
         x="436.94476"
         y="144.05182"
         width="91.773834"
         height="37.245949"
         id="rect55-3-1-2-9-2" />
      <path
         id="path69-7-3-2"
         style="fill:#ffdf21;fill-opacity:1;stroke-width:0.264583"
         d="m 457.24545,160.77709 v 15.31999 h 2.95228 v -6.00686 l 3.19773,6.00686 h 2.95176 l -3.19773,-6.304 c 2.15595,-0.58294 3.1781,-2.03453 3.1781,-4.44779 0,-4.04827 -3.12612,-4.5682 -5.85081,-4.5682 h -3.09232 z m 3.83026,2.83497 c 0.62399,-0.003 1.42704,0.044 1.91719,0.5271 0.29413,0.29012 0.44391,0.71555 0.44391,1.26504 0,1.51876 -1.27924,1.72857 -2.66031,1.72857 h -0.57774 v -3.51606 h 0.39997 l 0.2217,-0.001 c 0.0804,-0.001 0.16614,-0.003 0.25528,-0.003 z" />
      <path
         style="fill:#ffdf21;fill-opacity:1;stroke-width:0.264583"
         inkscape:connector-curvature="0"
         d="m 495.01948,160.69275 h -2.69528 c 0,0 0,7.98423 0,9.07651 -0.46258,-1.00404 -4.18063,-9.07651 -4.18063,-9.07651 h -3.14048 v 15.32005 h 2.89181 c 0,0 0,-7.93477 0,-9.02037 0.46258,0.99736 4.18063,9.02037 4.18063,9.02037 h 3.08166 v -15.32005 h -0.13771"
         id="path103-3-9-2" />
      <path
         style="fill:#ffdf21;fill-opacity:1;stroke-width:0.264583"
         inkscape:connector-curvature="0"
         d="m 446.25371,168.43831 c 0,-0.001 -0.0174,-2.9747 -0.0174,-2.9747 0,-0.96527 0.78613,-1.75407 1.75541,-1.75407 0.94923,0 1.6645,0.7527 1.6645,1.75407 l 0.0134,2.97337 -0.0134,2.97604 c 0,1.00003 -0.71527,1.75407 -1.6645,1.75407 -0.97062,0 -1.75541,-0.78613 -1.75541,-1.75407 v 0.003 l 0.0174,-2.97738 m -2.89983,-2.97337 0.008,2.97203 -0.008,2.9747 c 0,2.54688 2.08162,4.61915 4.6392,4.61915 2.54822,0 4.54695,-2.03082 4.54695,-4.61915 l 0.0227,-2.97336 c 0,-0.001 -0.0227,-2.97337 -0.0227,-2.97337 0,-2.58966 -1.99873,-4.62182 -4.54695,-4.62182 -2.55891,0 -4.6392,2.07494 -4.6392,4.62182 z"
         id="path109-6-0-0" />
      <path
         style="fill:#ffdf21;fill-opacity:1;stroke-width:0.264583"
         inkscape:connector-curvature="0"
         d="m 522.15551,160.69141 h -9.4776 v 2.47067 c 0,0 3.03352,0 3.28219,0 0,0.26338 0,12.80259 0,12.80259 h 3.06829 c 0,0 0,-12.53921 0,-12.80259 0.24867,0 3.25947,0 3.25947,0 v -2.47067 h -0.13235"
         id="path133-2-8-5" />
      <path
         style="fill:#ffdf21;fill-opacity:1;stroke-width:0.264583"
         inkscape:connector-curvature="0"
         d="m 507.85621,160.69275 h -8.01632 v 15.27326 h 8.14868 v -2.46667 c 0,0 -4.82638,0 -5.08173,0 0,-0.246 0,-4.10977 0,-4.3571 0.25402,0 4.68198,0 4.68198,0 v -2.468 c 0,0 -4.42796,0 -4.68198,0 0,-0.23932 0,-3.27017 0,-3.51216 0.25402,0 5.08173,0 5.08173,0 v -2.47067 h -0.13236"
         id="path135-6-8-5" />
      <path
         style="fill:#ffdf21;fill-opacity:1;stroke-width:0.264583"
         inkscape:connector-curvature="0"
         d="m 471.02992,165.45495 0.007,2.98674 -0.007,2.98673 c 0,2.62175 2.09901,4.75284 4.67798,4.75284 2.57361,0 4.58839,-2.08831 4.58839,-4.75284 l 0.0241,-3.19797 -4.87584,0.0107 v 2.60036 c 0,0 1.71798,0 1.95194,0 0,0.18048 -0.003,0.58558 -0.003,0.58558 0,1.03346 -0.72329,1.8129 -1.68457,1.8129 -0.97864,0 -1.77679,-0.81153 -1.77679,-1.81023 0,-0.004 0.02,-3.06561 0.02,-3.06561 0,-0.007 -0.02,-2.91989 -0.02,-2.91989 0,-0.99736 0.79815,-1.81023 1.77679,-1.81023 0.96128,0 1.68457,0.77811 1.68457,1.81157 l 0.004,0.53076 h 2.90518 l -0.005,-0.52943 c 0,-2.66453 -2.01477,-4.75417 -4.58839,-4.75417 -2.58031,0.005 -4.6793,2.14044 -4.6793,4.76219"
         id="path147-5-5-2" />
      <rect
         style="fill:#ffffff;stroke-width:0.264583"
         x="458.77014"
         y="149.4987"
         width="6.05235"
         height="2.2687957"
         id="rect79-4-5-6-0-9" />
      <rect
         style="fill:#ffffff;stroke-width:0.264583"
         x="472.64899"
         y="149.4987"
         width="6.05235"
         height="2.2687957"
         id="rect79-4-7-5-9-9-0" />
      <rect
         style="fill:#ffffff;stroke-width:0.264583"
         x="487.05396"
         y="149.4987"
         width="6.05235"
         height="2.2687957"
         id="rect79-4-8-4-3-6-2" />
      <rect
         style="fill:#ffffff;stroke-width:0.264583"
         x="500.88806"
         y="149.4987"
         width="6.05235"
         height="2.2687957"
         id="rect79-4-4-7-7-3-8" />
      <path
         style="fill:#ffffff;stroke-width:0.264583"
         inkscape:connector-curvature="0"
         d="m 516.83114,146.79119 c 2.13778,0 3.87312,1.67385 3.87312,3.81297 0,2.14178 -1.73669,3.88917 -3.87313,3.88917 l -2.56961,-0.004 v -2.26479 l 2.57229,0.0174 c 0.90109,0 1.63374,-0.73398 1.63374,-1.63775 0,-0.90244 -0.73265,-1.55888 -1.63374,-1.55888 l -2.57229,-0.009 v -2.26345 l 2.56961,0.0187"
         id="path127-1-6-4-8-3" />
      <path
         style="fill:#ffffff;stroke-width:0.264583"
         inkscape:connector-curvature="0"
         d="m 448.61007,154.475 c -2.13777,0 -3.87313,-1.67385 -3.87313,-3.81297 0,-2.14178 1.73669,-3.88917 3.87313,-3.88917 l 2.56961,0.004 v 2.26479 l -2.57228,-0.0174 c -0.9011,0 -1.63375,0.73398 -1.63375,1.63775 0,0.90244 0.73265,1.55888 1.63375,1.55888 l 2.57228,0.009 v 2.26345 l -2.56961,-0.0187"
         id="path127-1-9-5-5-5-8" />
    </g>
  </g>
</svg>
