%TF.GenerationSoftware,KiCad,Pcbnew,9.0.2+1*%
%TF.CreationDate,2025-07-26T13:33:15+01:00*%
%TF.ProjectId,ORGNET,4f52474e-4554-42e6-9b69-6361645f7063,1*%
%TF.SameCoordinates,Original*%
%TF.FileFunction,Legend,Top*%
%TF.FilePolarity,Positive*%
%FSLAX46Y46*%
G04 Gerber Fmt 4.6, Leading zero omitted, Abs format (unit mm)*
G04 Created by KiCad (PCBNEW 9.0.2+1) date 2025-07-26 13:33:15*
%MOMM*%
%LPD*%
G01*
G04 APERTURE LIST*
%ADD10C,0.000000*%
%ADD11C,0.200000*%
%ADD12C,0.100000*%
%ADD13C,0.150000*%
%ADD14C,0.120000*%
G04 APERTURE END LIST*
D10*
G36*
X143361353Y-77068882D02*
G01*
X143034883Y-77068882D01*
X143034883Y-76197984D01*
X143361353Y-76197984D01*
X143361353Y-77068882D01*
G37*
G36*
X142966614Y-77888120D02*
G01*
X142966921Y-77900202D01*
X142967832Y-77912128D01*
X142969332Y-77923881D01*
X142971406Y-77935449D01*
X142974040Y-77946814D01*
X142977218Y-77957964D01*
X142980926Y-77968882D01*
X142985148Y-77979554D01*
X142989871Y-77989965D01*
X142995079Y-78000100D01*
X143000756Y-78009945D01*
X143006889Y-78019484D01*
X143013463Y-78028703D01*
X143020462Y-78037586D01*
X143027872Y-78046120D01*
X143035678Y-78054288D01*
X143043865Y-78062076D01*
X143052417Y-78069470D01*
X143061322Y-78076454D01*
X143070562Y-78083014D01*
X143080124Y-78089134D01*
X143089993Y-78094800D01*
X143100154Y-78099997D01*
X143110591Y-78104710D01*
X143121291Y-78108924D01*
X143132238Y-78112625D01*
X143143417Y-78115797D01*
X143154814Y-78118425D01*
X143166413Y-78120496D01*
X143178200Y-78121993D01*
X143190160Y-78122902D01*
X143202278Y-78123209D01*
X143214347Y-78122902D01*
X143226197Y-78121993D01*
X143237819Y-78120496D01*
X143249200Y-78118425D01*
X143260331Y-78115797D01*
X143271200Y-78112625D01*
X143281797Y-78108924D01*
X143292111Y-78104710D01*
X143302131Y-78099997D01*
X143311846Y-78094800D01*
X143321246Y-78089134D01*
X143330320Y-78083014D01*
X143339056Y-78076454D01*
X143347444Y-78069470D01*
X143355473Y-78062076D01*
X143363133Y-78054288D01*
X143370412Y-78046120D01*
X143377300Y-78037586D01*
X143383786Y-78028703D01*
X143389859Y-78019484D01*
X143395509Y-78009945D01*
X143400724Y-78000100D01*
X143405493Y-77989965D01*
X143409807Y-77979554D01*
X143413653Y-77968882D01*
X143417022Y-77957964D01*
X143419902Y-77946814D01*
X143422282Y-77935449D01*
X143424153Y-77923881D01*
X143425502Y-77912128D01*
X143426320Y-77900202D01*
X143426595Y-77888120D01*
X143427890Y-77517984D01*
X143753588Y-77517984D01*
X143750896Y-77887735D01*
X143750951Y-77887735D01*
X143750251Y-77916398D01*
X143748171Y-77944687D01*
X143744743Y-77972566D01*
X143740000Y-78000000D01*
X143733973Y-78026955D01*
X143726694Y-78053395D01*
X143718195Y-78079285D01*
X143708507Y-78104589D01*
X143697663Y-78129274D01*
X143685694Y-78153303D01*
X143672632Y-78176642D01*
X143658510Y-78199255D01*
X143643358Y-78221107D01*
X143627208Y-78242163D01*
X143610094Y-78262389D01*
X143592045Y-78281748D01*
X143573095Y-78300206D01*
X143553275Y-78317728D01*
X143532617Y-78334279D01*
X143511153Y-78349823D01*
X143488914Y-78364325D01*
X143465933Y-78377750D01*
X143442240Y-78390064D01*
X143417869Y-78401230D01*
X143392851Y-78411214D01*
X143367218Y-78419981D01*
X143341002Y-78427496D01*
X143314234Y-78433723D01*
X143286946Y-78438627D01*
X143259170Y-78442174D01*
X143230939Y-78444327D01*
X143202283Y-78445053D01*
X143173562Y-78444327D01*
X143145210Y-78442172D01*
X143117261Y-78438622D01*
X143089752Y-78433715D01*
X143062718Y-78427484D01*
X143036194Y-78419964D01*
X143010217Y-78411192D01*
X142984823Y-78401203D01*
X142960045Y-78390030D01*
X142935922Y-78377711D01*
X142912487Y-78364279D01*
X142889777Y-78349771D01*
X142867827Y-78334221D01*
X142846673Y-78317665D01*
X142826351Y-78300138D01*
X142806896Y-78281675D01*
X142788344Y-78262311D01*
X142770730Y-78242082D01*
X142754091Y-78221023D01*
X142738461Y-78199169D01*
X142723877Y-78176555D01*
X142710374Y-78153216D01*
X142697988Y-78129189D01*
X142686755Y-78104507D01*
X142676709Y-78079207D01*
X142667887Y-78053322D01*
X142660325Y-78026890D01*
X142654058Y-77999944D01*
X142649121Y-77972521D01*
X142645551Y-77944655D01*
X142643382Y-77916381D01*
X142642652Y-77887735D01*
X142643227Y-77517984D01*
X142969118Y-77517984D01*
X142966614Y-77888120D01*
G37*
G36*
X143361353Y-75668882D02*
G01*
X143034883Y-75668882D01*
X143034883Y-74797983D01*
X143361353Y-74797983D01*
X143361353Y-75668882D01*
G37*
G36*
X143361353Y-74268882D02*
G01*
X143034883Y-74268882D01*
X143034883Y-73710000D01*
X143361353Y-73710000D01*
X143361353Y-74268882D01*
G37*
D11*
X143109673Y-86867219D02*
X143109673Y-85867219D01*
X143109673Y-85867219D02*
X143347768Y-85867219D01*
X143347768Y-85867219D02*
X143490625Y-85914838D01*
X143490625Y-85914838D02*
X143585863Y-86010076D01*
X143585863Y-86010076D02*
X143633482Y-86105314D01*
X143633482Y-86105314D02*
X143681101Y-86295790D01*
X143681101Y-86295790D02*
X143681101Y-86438647D01*
X143681101Y-86438647D02*
X143633482Y-86629123D01*
X143633482Y-86629123D02*
X143585863Y-86724361D01*
X143585863Y-86724361D02*
X143490625Y-86819600D01*
X143490625Y-86819600D02*
X143347768Y-86867219D01*
X143347768Y-86867219D02*
X143109673Y-86867219D01*
X144443006Y-86343409D02*
X144585863Y-86391028D01*
X144585863Y-86391028D02*
X144633482Y-86438647D01*
X144633482Y-86438647D02*
X144681101Y-86533885D01*
X144681101Y-86533885D02*
X144681101Y-86676742D01*
X144681101Y-86676742D02*
X144633482Y-86771980D01*
X144633482Y-86771980D02*
X144585863Y-86819600D01*
X144585863Y-86819600D02*
X144490625Y-86867219D01*
X144490625Y-86867219D02*
X144109673Y-86867219D01*
X144109673Y-86867219D02*
X144109673Y-85867219D01*
X144109673Y-85867219D02*
X144443006Y-85867219D01*
X144443006Y-85867219D02*
X144538244Y-85914838D01*
X144538244Y-85914838D02*
X144585863Y-85962457D01*
X144585863Y-85962457D02*
X144633482Y-86057695D01*
X144633482Y-86057695D02*
X144633482Y-86152933D01*
X144633482Y-86152933D02*
X144585863Y-86248171D01*
X144585863Y-86248171D02*
X144538244Y-86295790D01*
X144538244Y-86295790D02*
X144443006Y-86343409D01*
X144443006Y-86343409D02*
X144109673Y-86343409D01*
X145633482Y-85914838D02*
X145538244Y-85867219D01*
X145538244Y-85867219D02*
X145395387Y-85867219D01*
X145395387Y-85867219D02*
X145252530Y-85914838D01*
X145252530Y-85914838D02*
X145157292Y-86010076D01*
X145157292Y-86010076D02*
X145109673Y-86105314D01*
X145109673Y-86105314D02*
X145062054Y-86295790D01*
X145062054Y-86295790D02*
X145062054Y-86438647D01*
X145062054Y-86438647D02*
X145109673Y-86629123D01*
X145109673Y-86629123D02*
X145157292Y-86724361D01*
X145157292Y-86724361D02*
X145252530Y-86819600D01*
X145252530Y-86819600D02*
X145395387Y-86867219D01*
X145395387Y-86867219D02*
X145490625Y-86867219D01*
X145490625Y-86867219D02*
X145633482Y-86819600D01*
X145633482Y-86819600D02*
X145681101Y-86771980D01*
X145681101Y-86771980D02*
X145681101Y-86438647D01*
X145681101Y-86438647D02*
X145490625Y-86438647D01*
D12*
X153578095Y-77896844D02*
X153959048Y-77896844D01*
X153501905Y-78182559D02*
X153768572Y-77182559D01*
X153768572Y-77182559D02*
X154035238Y-78182559D01*
X154187619Y-77515892D02*
X154492381Y-77515892D01*
X154301905Y-78182559D02*
X154301905Y-77325416D01*
X154301905Y-77325416D02*
X154340000Y-77230178D01*
X154340000Y-77230178D02*
X154416190Y-77182559D01*
X154416190Y-77182559D02*
X154492381Y-77182559D01*
X154644762Y-77515892D02*
X154949524Y-77515892D01*
X154759048Y-78182559D02*
X154759048Y-77325416D01*
X154759048Y-77325416D02*
X154797143Y-77230178D01*
X154797143Y-77230178D02*
X154873333Y-77182559D01*
X154873333Y-77182559D02*
X154949524Y-77182559D01*
X155216191Y-78182559D02*
X155216191Y-77515892D01*
X155216191Y-77182559D02*
X155178095Y-77230178D01*
X155178095Y-77230178D02*
X155216191Y-77277797D01*
X155216191Y-77277797D02*
X155254286Y-77230178D01*
X155254286Y-77230178D02*
X155216191Y-77182559D01*
X155216191Y-77182559D02*
X155216191Y-77277797D01*
X155520952Y-78182559D02*
X155940000Y-77515892D01*
X155520952Y-77515892D02*
X155940000Y-78182559D01*
X152568571Y-79792503D02*
X152568571Y-79125836D01*
X152568571Y-79221074D02*
X152606666Y-79173455D01*
X152606666Y-79173455D02*
X152682856Y-79125836D01*
X152682856Y-79125836D02*
X152797142Y-79125836D01*
X152797142Y-79125836D02*
X152873333Y-79173455D01*
X152873333Y-79173455D02*
X152911428Y-79268693D01*
X152911428Y-79268693D02*
X152911428Y-79792503D01*
X152911428Y-79268693D02*
X152949523Y-79173455D01*
X152949523Y-79173455D02*
X153025714Y-79125836D01*
X153025714Y-79125836D02*
X153139999Y-79125836D01*
X153139999Y-79125836D02*
X153216190Y-79173455D01*
X153216190Y-79173455D02*
X153254285Y-79268693D01*
X153254285Y-79268693D02*
X153254285Y-79792503D01*
X153978095Y-79792503D02*
X153978095Y-79268693D01*
X153978095Y-79268693D02*
X153940000Y-79173455D01*
X153940000Y-79173455D02*
X153863809Y-79125836D01*
X153863809Y-79125836D02*
X153711428Y-79125836D01*
X153711428Y-79125836D02*
X153635238Y-79173455D01*
X153978095Y-79744884D02*
X153901904Y-79792503D01*
X153901904Y-79792503D02*
X153711428Y-79792503D01*
X153711428Y-79792503D02*
X153635238Y-79744884D01*
X153635238Y-79744884D02*
X153597142Y-79649645D01*
X153597142Y-79649645D02*
X153597142Y-79554407D01*
X153597142Y-79554407D02*
X153635238Y-79459169D01*
X153635238Y-79459169D02*
X153711428Y-79411550D01*
X153711428Y-79411550D02*
X153901904Y-79411550D01*
X153901904Y-79411550D02*
X153978095Y-79363931D01*
X154701905Y-79125836D02*
X154701905Y-79935360D01*
X154701905Y-79935360D02*
X154663810Y-80030598D01*
X154663810Y-80030598D02*
X154625714Y-80078217D01*
X154625714Y-80078217D02*
X154549524Y-80125836D01*
X154549524Y-80125836D02*
X154435238Y-80125836D01*
X154435238Y-80125836D02*
X154359048Y-80078217D01*
X154701905Y-79744884D02*
X154625714Y-79792503D01*
X154625714Y-79792503D02*
X154473333Y-79792503D01*
X154473333Y-79792503D02*
X154397143Y-79744884D01*
X154397143Y-79744884D02*
X154359048Y-79697264D01*
X154359048Y-79697264D02*
X154320952Y-79602026D01*
X154320952Y-79602026D02*
X154320952Y-79316312D01*
X154320952Y-79316312D02*
X154359048Y-79221074D01*
X154359048Y-79221074D02*
X154397143Y-79173455D01*
X154397143Y-79173455D02*
X154473333Y-79125836D01*
X154473333Y-79125836D02*
X154625714Y-79125836D01*
X154625714Y-79125836D02*
X154701905Y-79173455D01*
X155082858Y-79792503D02*
X155082858Y-79125836D01*
X155082858Y-78792503D02*
X155044762Y-78840122D01*
X155044762Y-78840122D02*
X155082858Y-78887741D01*
X155082858Y-78887741D02*
X155120953Y-78840122D01*
X155120953Y-78840122D02*
X155082858Y-78792503D01*
X155082858Y-78792503D02*
X155082858Y-78887741D01*
X155806667Y-79744884D02*
X155730476Y-79792503D01*
X155730476Y-79792503D02*
X155578095Y-79792503D01*
X155578095Y-79792503D02*
X155501905Y-79744884D01*
X155501905Y-79744884D02*
X155463810Y-79697264D01*
X155463810Y-79697264D02*
X155425714Y-79602026D01*
X155425714Y-79602026D02*
X155425714Y-79316312D01*
X155425714Y-79316312D02*
X155463810Y-79221074D01*
X155463810Y-79221074D02*
X155501905Y-79173455D01*
X155501905Y-79173455D02*
X155578095Y-79125836D01*
X155578095Y-79125836D02*
X155730476Y-79125836D01*
X155730476Y-79125836D02*
X155806667Y-79173455D01*
X156492381Y-79792503D02*
X156492381Y-79268693D01*
X156492381Y-79268693D02*
X156454286Y-79173455D01*
X156454286Y-79173455D02*
X156378095Y-79125836D01*
X156378095Y-79125836D02*
X156225714Y-79125836D01*
X156225714Y-79125836D02*
X156149524Y-79173455D01*
X156492381Y-79744884D02*
X156416190Y-79792503D01*
X156416190Y-79792503D02*
X156225714Y-79792503D01*
X156225714Y-79792503D02*
X156149524Y-79744884D01*
X156149524Y-79744884D02*
X156111428Y-79649645D01*
X156111428Y-79649645D02*
X156111428Y-79554407D01*
X156111428Y-79554407D02*
X156149524Y-79459169D01*
X156149524Y-79459169D02*
X156225714Y-79411550D01*
X156225714Y-79411550D02*
X156416190Y-79411550D01*
X156416190Y-79411550D02*
X156492381Y-79363931D01*
X156987619Y-79792503D02*
X156911429Y-79744884D01*
X156911429Y-79744884D02*
X156873334Y-79649645D01*
X156873334Y-79649645D02*
X156873334Y-78792503D01*
X152111428Y-80735780D02*
X152416190Y-80735780D01*
X152225714Y-81402447D02*
X152225714Y-80545304D01*
X152225714Y-80545304D02*
X152263809Y-80450066D01*
X152263809Y-80450066D02*
X152339999Y-80402447D01*
X152339999Y-80402447D02*
X152416190Y-80402447D01*
X153025714Y-80735780D02*
X153025714Y-81402447D01*
X152682857Y-80735780D02*
X152682857Y-81259589D01*
X152682857Y-81259589D02*
X152720952Y-81354828D01*
X152720952Y-81354828D02*
X152797142Y-81402447D01*
X152797142Y-81402447D02*
X152911428Y-81402447D01*
X152911428Y-81402447D02*
X152987619Y-81354828D01*
X152987619Y-81354828D02*
X153025714Y-81307208D01*
X153292381Y-80735780D02*
X153597143Y-80735780D01*
X153406667Y-80402447D02*
X153406667Y-81259589D01*
X153406667Y-81259589D02*
X153444762Y-81354828D01*
X153444762Y-81354828D02*
X153520952Y-81402447D01*
X153520952Y-81402447D02*
X153597143Y-81402447D01*
X154206667Y-80735780D02*
X154206667Y-81402447D01*
X153863810Y-80735780D02*
X153863810Y-81259589D01*
X153863810Y-81259589D02*
X153901905Y-81354828D01*
X153901905Y-81354828D02*
X153978095Y-81402447D01*
X153978095Y-81402447D02*
X154092381Y-81402447D01*
X154092381Y-81402447D02*
X154168572Y-81354828D01*
X154168572Y-81354828D02*
X154206667Y-81307208D01*
X154587620Y-81402447D02*
X154587620Y-80735780D01*
X154587620Y-80926256D02*
X154625715Y-80831018D01*
X154625715Y-80831018D02*
X154663810Y-80783399D01*
X154663810Y-80783399D02*
X154740001Y-80735780D01*
X154740001Y-80735780D02*
X154816191Y-80735780D01*
X155082858Y-81402447D02*
X155082858Y-80735780D01*
X155082858Y-80402447D02*
X155044762Y-80450066D01*
X155044762Y-80450066D02*
X155082858Y-80497685D01*
X155082858Y-80497685D02*
X155120953Y-80450066D01*
X155120953Y-80450066D02*
X155082858Y-80402447D01*
X155082858Y-80402447D02*
X155082858Y-80497685D01*
X155425714Y-81354828D02*
X155501905Y-81402447D01*
X155501905Y-81402447D02*
X155654286Y-81402447D01*
X155654286Y-81402447D02*
X155730476Y-81354828D01*
X155730476Y-81354828D02*
X155768572Y-81259589D01*
X155768572Y-81259589D02*
X155768572Y-81211970D01*
X155768572Y-81211970D02*
X155730476Y-81116732D01*
X155730476Y-81116732D02*
X155654286Y-81069113D01*
X155654286Y-81069113D02*
X155540000Y-81069113D01*
X155540000Y-81069113D02*
X155463810Y-81021494D01*
X155463810Y-81021494D02*
X155425714Y-80926256D01*
X155425714Y-80926256D02*
X155425714Y-80878637D01*
X155425714Y-80878637D02*
X155463810Y-80783399D01*
X155463810Y-80783399D02*
X155540000Y-80735780D01*
X155540000Y-80735780D02*
X155654286Y-80735780D01*
X155654286Y-80735780D02*
X155730476Y-80783399D01*
X155997143Y-80735780D02*
X156301905Y-80735780D01*
X156111429Y-80402447D02*
X156111429Y-81259589D01*
X156111429Y-81259589D02*
X156149524Y-81354828D01*
X156149524Y-81354828D02*
X156225714Y-81402447D01*
X156225714Y-81402447D02*
X156301905Y-81402447D01*
X156568572Y-81402447D02*
X156568572Y-80735780D01*
X156568572Y-80402447D02*
X156530476Y-80450066D01*
X156530476Y-80450066D02*
X156568572Y-80497685D01*
X156568572Y-80497685D02*
X156606667Y-80450066D01*
X156606667Y-80450066D02*
X156568572Y-80402447D01*
X156568572Y-80402447D02*
X156568572Y-80497685D01*
X157292381Y-81354828D02*
X157216190Y-81402447D01*
X157216190Y-81402447D02*
X157063809Y-81402447D01*
X157063809Y-81402447D02*
X156987619Y-81354828D01*
X156987619Y-81354828D02*
X156949524Y-81307208D01*
X156949524Y-81307208D02*
X156911428Y-81211970D01*
X156911428Y-81211970D02*
X156911428Y-80926256D01*
X156911428Y-80926256D02*
X156949524Y-80831018D01*
X156949524Y-80831018D02*
X156987619Y-80783399D01*
X156987619Y-80783399D02*
X157063809Y-80735780D01*
X157063809Y-80735780D02*
X157216190Y-80735780D01*
X157216190Y-80735780D02*
X157292381Y-80783399D01*
X151425714Y-83012391D02*
X151425714Y-82012391D01*
X151768571Y-83012391D02*
X151768571Y-82488581D01*
X151768571Y-82488581D02*
X151730476Y-82393343D01*
X151730476Y-82393343D02*
X151654285Y-82345724D01*
X151654285Y-82345724D02*
X151539999Y-82345724D01*
X151539999Y-82345724D02*
X151463809Y-82393343D01*
X151463809Y-82393343D02*
X151425714Y-82440962D01*
X152149524Y-83012391D02*
X152149524Y-82345724D01*
X152149524Y-82012391D02*
X152111428Y-82060010D01*
X152111428Y-82060010D02*
X152149524Y-82107629D01*
X152149524Y-82107629D02*
X152187619Y-82060010D01*
X152187619Y-82060010D02*
X152149524Y-82012391D01*
X152149524Y-82012391D02*
X152149524Y-82107629D01*
X152873333Y-82345724D02*
X152873333Y-83155248D01*
X152873333Y-83155248D02*
X152835238Y-83250486D01*
X152835238Y-83250486D02*
X152797142Y-83298105D01*
X152797142Y-83298105D02*
X152720952Y-83345724D01*
X152720952Y-83345724D02*
X152606666Y-83345724D01*
X152606666Y-83345724D02*
X152530476Y-83298105D01*
X152873333Y-82964772D02*
X152797142Y-83012391D01*
X152797142Y-83012391D02*
X152644761Y-83012391D01*
X152644761Y-83012391D02*
X152568571Y-82964772D01*
X152568571Y-82964772D02*
X152530476Y-82917152D01*
X152530476Y-82917152D02*
X152492380Y-82821914D01*
X152492380Y-82821914D02*
X152492380Y-82536200D01*
X152492380Y-82536200D02*
X152530476Y-82440962D01*
X152530476Y-82440962D02*
X152568571Y-82393343D01*
X152568571Y-82393343D02*
X152644761Y-82345724D01*
X152644761Y-82345724D02*
X152797142Y-82345724D01*
X152797142Y-82345724D02*
X152873333Y-82393343D01*
X153254286Y-83012391D02*
X153254286Y-82012391D01*
X153597143Y-83012391D02*
X153597143Y-82488581D01*
X153597143Y-82488581D02*
X153559048Y-82393343D01*
X153559048Y-82393343D02*
X153482857Y-82345724D01*
X153482857Y-82345724D02*
X153368571Y-82345724D01*
X153368571Y-82345724D02*
X153292381Y-82393343D01*
X153292381Y-82393343D02*
X153254286Y-82440962D01*
X153978096Y-82631438D02*
X154587620Y-82631438D01*
X154930476Y-82964772D02*
X155006667Y-83012391D01*
X155006667Y-83012391D02*
X155159048Y-83012391D01*
X155159048Y-83012391D02*
X155235238Y-82964772D01*
X155235238Y-82964772D02*
X155273334Y-82869533D01*
X155273334Y-82869533D02*
X155273334Y-82821914D01*
X155273334Y-82821914D02*
X155235238Y-82726676D01*
X155235238Y-82726676D02*
X155159048Y-82679057D01*
X155159048Y-82679057D02*
X155044762Y-82679057D01*
X155044762Y-82679057D02*
X154968572Y-82631438D01*
X154968572Y-82631438D02*
X154930476Y-82536200D01*
X154930476Y-82536200D02*
X154930476Y-82488581D01*
X154930476Y-82488581D02*
X154968572Y-82393343D01*
X154968572Y-82393343D02*
X155044762Y-82345724D01*
X155044762Y-82345724D02*
X155159048Y-82345724D01*
X155159048Y-82345724D02*
X155235238Y-82393343D01*
X155616191Y-82345724D02*
X155616191Y-83345724D01*
X155616191Y-82393343D02*
X155692381Y-82345724D01*
X155692381Y-82345724D02*
X155844762Y-82345724D01*
X155844762Y-82345724D02*
X155920953Y-82393343D01*
X155920953Y-82393343D02*
X155959048Y-82440962D01*
X155959048Y-82440962D02*
X155997143Y-82536200D01*
X155997143Y-82536200D02*
X155997143Y-82821914D01*
X155997143Y-82821914D02*
X155959048Y-82917152D01*
X155959048Y-82917152D02*
X155920953Y-82964772D01*
X155920953Y-82964772D02*
X155844762Y-83012391D01*
X155844762Y-83012391D02*
X155692381Y-83012391D01*
X155692381Y-83012391D02*
X155616191Y-82964772D01*
X156644763Y-82964772D02*
X156568572Y-83012391D01*
X156568572Y-83012391D02*
X156416191Y-83012391D01*
X156416191Y-83012391D02*
X156340001Y-82964772D01*
X156340001Y-82964772D02*
X156301905Y-82869533D01*
X156301905Y-82869533D02*
X156301905Y-82488581D01*
X156301905Y-82488581D02*
X156340001Y-82393343D01*
X156340001Y-82393343D02*
X156416191Y-82345724D01*
X156416191Y-82345724D02*
X156568572Y-82345724D01*
X156568572Y-82345724D02*
X156644763Y-82393343D01*
X156644763Y-82393343D02*
X156682858Y-82488581D01*
X156682858Y-82488581D02*
X156682858Y-82583819D01*
X156682858Y-82583819D02*
X156301905Y-82679057D01*
X157330477Y-82964772D02*
X157254286Y-83012391D01*
X157254286Y-83012391D02*
X157101905Y-83012391D01*
X157101905Y-83012391D02*
X157025715Y-82964772D01*
X157025715Y-82964772D02*
X156987619Y-82869533D01*
X156987619Y-82869533D02*
X156987619Y-82488581D01*
X156987619Y-82488581D02*
X157025715Y-82393343D01*
X157025715Y-82393343D02*
X157101905Y-82345724D01*
X157101905Y-82345724D02*
X157254286Y-82345724D01*
X157254286Y-82345724D02*
X157330477Y-82393343D01*
X157330477Y-82393343D02*
X157368572Y-82488581D01*
X157368572Y-82488581D02*
X157368572Y-82583819D01*
X157368572Y-82583819D02*
X156987619Y-82679057D01*
X158054286Y-83012391D02*
X158054286Y-82012391D01*
X158054286Y-82964772D02*
X157978095Y-83012391D01*
X157978095Y-83012391D02*
X157825714Y-83012391D01*
X157825714Y-83012391D02*
X157749524Y-82964772D01*
X157749524Y-82964772D02*
X157711429Y-82917152D01*
X157711429Y-82917152D02*
X157673333Y-82821914D01*
X157673333Y-82821914D02*
X157673333Y-82536200D01*
X157673333Y-82536200D02*
X157711429Y-82440962D01*
X157711429Y-82440962D02*
X157749524Y-82393343D01*
X157749524Y-82393343D02*
X157825714Y-82345724D01*
X157825714Y-82345724D02*
X157978095Y-82345724D01*
X157978095Y-82345724D02*
X158054286Y-82393343D01*
X150930475Y-84622335D02*
X150930475Y-83955668D01*
X150930475Y-84146144D02*
X150968570Y-84050906D01*
X150968570Y-84050906D02*
X151006665Y-84003287D01*
X151006665Y-84003287D02*
X151082856Y-83955668D01*
X151082856Y-83955668D02*
X151159046Y-83955668D01*
X151768570Y-84622335D02*
X151768570Y-84098525D01*
X151768570Y-84098525D02*
X151730475Y-84003287D01*
X151730475Y-84003287D02*
X151654284Y-83955668D01*
X151654284Y-83955668D02*
X151501903Y-83955668D01*
X151501903Y-83955668D02*
X151425713Y-84003287D01*
X151768570Y-84574716D02*
X151692379Y-84622335D01*
X151692379Y-84622335D02*
X151501903Y-84622335D01*
X151501903Y-84622335D02*
X151425713Y-84574716D01*
X151425713Y-84574716D02*
X151387617Y-84479477D01*
X151387617Y-84479477D02*
X151387617Y-84384239D01*
X151387617Y-84384239D02*
X151425713Y-84289001D01*
X151425713Y-84289001D02*
X151501903Y-84241382D01*
X151501903Y-84241382D02*
X151692379Y-84241382D01*
X151692379Y-84241382D02*
X151768570Y-84193763D01*
X152492380Y-84622335D02*
X152492380Y-83622335D01*
X152492380Y-84574716D02*
X152416189Y-84622335D01*
X152416189Y-84622335D02*
X152263808Y-84622335D01*
X152263808Y-84622335D02*
X152187618Y-84574716D01*
X152187618Y-84574716D02*
X152149523Y-84527096D01*
X152149523Y-84527096D02*
X152111427Y-84431858D01*
X152111427Y-84431858D02*
X152111427Y-84146144D01*
X152111427Y-84146144D02*
X152149523Y-84050906D01*
X152149523Y-84050906D02*
X152187618Y-84003287D01*
X152187618Y-84003287D02*
X152263808Y-83955668D01*
X152263808Y-83955668D02*
X152416189Y-83955668D01*
X152416189Y-83955668D02*
X152492380Y-84003287D01*
X152873333Y-84622335D02*
X152873333Y-83955668D01*
X152873333Y-83622335D02*
X152835237Y-83669954D01*
X152835237Y-83669954D02*
X152873333Y-83717573D01*
X152873333Y-83717573D02*
X152911428Y-83669954D01*
X152911428Y-83669954D02*
X152873333Y-83622335D01*
X152873333Y-83622335D02*
X152873333Y-83717573D01*
X153368570Y-84622335D02*
X153292380Y-84574716D01*
X153292380Y-84574716D02*
X153254285Y-84527096D01*
X153254285Y-84527096D02*
X153216189Y-84431858D01*
X153216189Y-84431858D02*
X153216189Y-84146144D01*
X153216189Y-84146144D02*
X153254285Y-84050906D01*
X153254285Y-84050906D02*
X153292380Y-84003287D01*
X153292380Y-84003287D02*
X153368570Y-83955668D01*
X153368570Y-83955668D02*
X153482856Y-83955668D01*
X153482856Y-83955668D02*
X153559047Y-84003287D01*
X153559047Y-84003287D02*
X153597142Y-84050906D01*
X153597142Y-84050906D02*
X153635237Y-84146144D01*
X153635237Y-84146144D02*
X153635237Y-84431858D01*
X153635237Y-84431858D02*
X153597142Y-84527096D01*
X153597142Y-84527096D02*
X153559047Y-84574716D01*
X153559047Y-84574716D02*
X153482856Y-84622335D01*
X153482856Y-84622335D02*
X153368570Y-84622335D01*
X154587619Y-84622335D02*
X154587619Y-83955668D01*
X154587619Y-84050906D02*
X154625714Y-84003287D01*
X154625714Y-84003287D02*
X154701904Y-83955668D01*
X154701904Y-83955668D02*
X154816190Y-83955668D01*
X154816190Y-83955668D02*
X154892381Y-84003287D01*
X154892381Y-84003287D02*
X154930476Y-84098525D01*
X154930476Y-84098525D02*
X154930476Y-84622335D01*
X154930476Y-84098525D02*
X154968571Y-84003287D01*
X154968571Y-84003287D02*
X155044762Y-83955668D01*
X155044762Y-83955668D02*
X155159047Y-83955668D01*
X155159047Y-83955668D02*
X155235238Y-84003287D01*
X155235238Y-84003287D02*
X155273333Y-84098525D01*
X155273333Y-84098525D02*
X155273333Y-84622335D01*
X155768571Y-84622335D02*
X155692381Y-84574716D01*
X155692381Y-84574716D02*
X155654286Y-84527096D01*
X155654286Y-84527096D02*
X155616190Y-84431858D01*
X155616190Y-84431858D02*
X155616190Y-84146144D01*
X155616190Y-84146144D02*
X155654286Y-84050906D01*
X155654286Y-84050906D02*
X155692381Y-84003287D01*
X155692381Y-84003287D02*
X155768571Y-83955668D01*
X155768571Y-83955668D02*
X155882857Y-83955668D01*
X155882857Y-83955668D02*
X155959048Y-84003287D01*
X155959048Y-84003287D02*
X155997143Y-84050906D01*
X155997143Y-84050906D02*
X156035238Y-84146144D01*
X156035238Y-84146144D02*
X156035238Y-84431858D01*
X156035238Y-84431858D02*
X155997143Y-84527096D01*
X155997143Y-84527096D02*
X155959048Y-84574716D01*
X155959048Y-84574716D02*
X155882857Y-84622335D01*
X155882857Y-84622335D02*
X155768571Y-84622335D01*
X156720953Y-84622335D02*
X156720953Y-83622335D01*
X156720953Y-84574716D02*
X156644762Y-84622335D01*
X156644762Y-84622335D02*
X156492381Y-84622335D01*
X156492381Y-84622335D02*
X156416191Y-84574716D01*
X156416191Y-84574716D02*
X156378096Y-84527096D01*
X156378096Y-84527096D02*
X156340000Y-84431858D01*
X156340000Y-84431858D02*
X156340000Y-84146144D01*
X156340000Y-84146144D02*
X156378096Y-84050906D01*
X156378096Y-84050906D02*
X156416191Y-84003287D01*
X156416191Y-84003287D02*
X156492381Y-83955668D01*
X156492381Y-83955668D02*
X156644762Y-83955668D01*
X156644762Y-83955668D02*
X156720953Y-84003287D01*
X157444763Y-83955668D02*
X157444763Y-84622335D01*
X157101906Y-83955668D02*
X157101906Y-84479477D01*
X157101906Y-84479477D02*
X157140001Y-84574716D01*
X157140001Y-84574716D02*
X157216191Y-84622335D01*
X157216191Y-84622335D02*
X157330477Y-84622335D01*
X157330477Y-84622335D02*
X157406668Y-84574716D01*
X157406668Y-84574716D02*
X157444763Y-84527096D01*
X157940001Y-84622335D02*
X157863811Y-84574716D01*
X157863811Y-84574716D02*
X157825716Y-84479477D01*
X157825716Y-84479477D02*
X157825716Y-83622335D01*
X158549526Y-84574716D02*
X158473335Y-84622335D01*
X158473335Y-84622335D02*
X158320954Y-84622335D01*
X158320954Y-84622335D02*
X158244764Y-84574716D01*
X158244764Y-84574716D02*
X158206668Y-84479477D01*
X158206668Y-84479477D02*
X158206668Y-84098525D01*
X158206668Y-84098525D02*
X158244764Y-84003287D01*
X158244764Y-84003287D02*
X158320954Y-83955668D01*
X158320954Y-83955668D02*
X158473335Y-83955668D01*
X158473335Y-83955668D02*
X158549526Y-84003287D01*
X158549526Y-84003287D02*
X158587621Y-84098525D01*
X158587621Y-84098525D02*
X158587621Y-84193763D01*
X158587621Y-84193763D02*
X158206668Y-84289001D01*
X153635238Y-86232279D02*
X153635238Y-85232279D01*
X153978095Y-86232279D02*
X153978095Y-85708469D01*
X153978095Y-85708469D02*
X153940000Y-85613231D01*
X153940000Y-85613231D02*
X153863809Y-85565612D01*
X153863809Y-85565612D02*
X153749523Y-85565612D01*
X153749523Y-85565612D02*
X153673333Y-85613231D01*
X153673333Y-85613231D02*
X153635238Y-85660850D01*
X154663810Y-86184660D02*
X154587619Y-86232279D01*
X154587619Y-86232279D02*
X154435238Y-86232279D01*
X154435238Y-86232279D02*
X154359048Y-86184660D01*
X154359048Y-86184660D02*
X154320952Y-86089421D01*
X154320952Y-86089421D02*
X154320952Y-85708469D01*
X154320952Y-85708469D02*
X154359048Y-85613231D01*
X154359048Y-85613231D02*
X154435238Y-85565612D01*
X154435238Y-85565612D02*
X154587619Y-85565612D01*
X154587619Y-85565612D02*
X154663810Y-85613231D01*
X154663810Y-85613231D02*
X154701905Y-85708469D01*
X154701905Y-85708469D02*
X154701905Y-85803707D01*
X154701905Y-85803707D02*
X154320952Y-85898945D01*
X155044762Y-86232279D02*
X155044762Y-85565612D01*
X155044762Y-85756088D02*
X155082857Y-85660850D01*
X155082857Y-85660850D02*
X155120952Y-85613231D01*
X155120952Y-85613231D02*
X155197143Y-85565612D01*
X155197143Y-85565612D02*
X155273333Y-85565612D01*
X155844762Y-86184660D02*
X155768571Y-86232279D01*
X155768571Y-86232279D02*
X155616190Y-86232279D01*
X155616190Y-86232279D02*
X155540000Y-86184660D01*
X155540000Y-86184660D02*
X155501904Y-86089421D01*
X155501904Y-86089421D02*
X155501904Y-85708469D01*
X155501904Y-85708469D02*
X155540000Y-85613231D01*
X155540000Y-85613231D02*
X155616190Y-85565612D01*
X155616190Y-85565612D02*
X155768571Y-85565612D01*
X155768571Y-85565612D02*
X155844762Y-85613231D01*
X155844762Y-85613231D02*
X155882857Y-85708469D01*
X155882857Y-85708469D02*
X155882857Y-85803707D01*
X155882857Y-85803707D02*
X155501904Y-85898945D01*
D13*
X157878095Y-100154819D02*
X157878095Y-100964342D01*
X157878095Y-100964342D02*
X157925714Y-101059580D01*
X157925714Y-101059580D02*
X157973333Y-101107200D01*
X157973333Y-101107200D02*
X158068571Y-101154819D01*
X158068571Y-101154819D02*
X158259047Y-101154819D01*
X158259047Y-101154819D02*
X158354285Y-101107200D01*
X158354285Y-101107200D02*
X158401904Y-101059580D01*
X158401904Y-101059580D02*
X158449523Y-100964342D01*
X158449523Y-100964342D02*
X158449523Y-100154819D01*
X158878095Y-100250057D02*
X158925714Y-100202438D01*
X158925714Y-100202438D02*
X159020952Y-100154819D01*
X159020952Y-100154819D02*
X159259047Y-100154819D01*
X159259047Y-100154819D02*
X159354285Y-100202438D01*
X159354285Y-100202438D02*
X159401904Y-100250057D01*
X159401904Y-100250057D02*
X159449523Y-100345295D01*
X159449523Y-100345295D02*
X159449523Y-100440533D01*
X159449523Y-100440533D02*
X159401904Y-100583390D01*
X159401904Y-100583390D02*
X158830476Y-101154819D01*
X158830476Y-101154819D02*
X159449523Y-101154819D01*
X149178095Y-100154819D02*
X149178095Y-100964342D01*
X149178095Y-100964342D02*
X149225714Y-101059580D01*
X149225714Y-101059580D02*
X149273333Y-101107200D01*
X149273333Y-101107200D02*
X149368571Y-101154819D01*
X149368571Y-101154819D02*
X149559047Y-101154819D01*
X149559047Y-101154819D02*
X149654285Y-101107200D01*
X149654285Y-101107200D02*
X149701904Y-101059580D01*
X149701904Y-101059580D02*
X149749523Y-100964342D01*
X149749523Y-100964342D02*
X149749523Y-100154819D01*
X150749523Y-101154819D02*
X150178095Y-101154819D01*
X150463809Y-101154819D02*
X150463809Y-100154819D01*
X150463809Y-100154819D02*
X150368571Y-100297676D01*
X150368571Y-100297676D02*
X150273333Y-100392914D01*
X150273333Y-100392914D02*
X150178095Y-100440533D01*
D14*
%TO.C,U2*%
X154580000Y-105262500D02*
X154580000Y-103062500D01*
X154580000Y-105262500D02*
X154580000Y-107462500D01*
X162650000Y-105262500D02*
X162650000Y-103062500D01*
X162650000Y-105262500D02*
X162650000Y-107462500D01*
X162190000Y-101402500D02*
X161950000Y-101072500D01*
X162430000Y-101072500D01*
X162190000Y-101402500D01*
G36*
X162190000Y-101402500D02*
G01*
X161950000Y-101072500D01*
X162430000Y-101072500D01*
X162190000Y-101402500D01*
G37*
%TO.C,J3*%
X142705000Y-83940000D02*
X142705000Y-81060000D01*
X144675000Y-79890000D02*
X145825000Y-79890000D01*
X144675000Y-85110000D02*
X145825000Y-85110000D01*
X145825000Y-79890000D02*
X145825000Y-80940000D01*
X145825000Y-84060000D02*
X146815000Y-84060000D01*
X145825000Y-85110000D02*
X145825000Y-84060000D01*
%TO.C,U5*%
X142356250Y-97620000D02*
X142356250Y-91630000D01*
X147576250Y-97630000D02*
X147576250Y-91630000D01*
X142656250Y-98340000D02*
X142176250Y-97860000D01*
X142656250Y-97860000D01*
X142656250Y-98340000D01*
G36*
X142656250Y-98340000D02*
G01*
X142176250Y-97860000D01*
X142656250Y-97860000D01*
X142656250Y-98340000D01*
G37*
%TO.C,U3*%
X142430000Y-103562500D02*
X142430000Y-102762500D01*
X142430000Y-103562500D02*
X142430000Y-104362500D01*
X145550000Y-103562500D02*
X145550000Y-102762500D01*
X145550000Y-103562500D02*
X145550000Y-104362500D01*
X142480000Y-104862500D02*
X142150000Y-105102500D01*
X142150000Y-104622500D01*
X142480000Y-104862500D01*
G36*
X142480000Y-104862500D02*
G01*
X142150000Y-105102500D01*
X142150000Y-104622500D01*
X142480000Y-104862500D01*
G37*
%TO.C,J1*%
X142430000Y-110090000D02*
X143760000Y-110090000D01*
X142430000Y-111200000D02*
X142430000Y-110090000D01*
X142430000Y-115200000D02*
X162870000Y-115200000D01*
X142430000Y-123600000D02*
X142430000Y-115200000D01*
X142430000Y-123600000D02*
X162870000Y-123600000D01*
X143400000Y-112690000D02*
X143400000Y-112310000D01*
X143400000Y-115200000D02*
X143400000Y-114790000D01*
X144120000Y-112690000D02*
X144120000Y-112310000D01*
X144120000Y-115200000D02*
X144120000Y-114790000D01*
X145030000Y-123600000D02*
X145030000Y-115200000D01*
X145940000Y-112690000D02*
X145940000Y-112250000D01*
X145940000Y-115200000D02*
X145940000Y-114790000D01*
X146660000Y-112690000D02*
X146660000Y-112250000D01*
X146660000Y-115200000D02*
X146660000Y-114790000D01*
X147560000Y-123600000D02*
X147570000Y-115200000D01*
X148480000Y-112690000D02*
X148480000Y-112250000D01*
X148480000Y-115200000D02*
X148480000Y-114790000D01*
X149200000Y-112690000D02*
X149200000Y-112250000D01*
X149200000Y-115200000D02*
X149200000Y-114790000D01*
X150110000Y-123600000D02*
X150110000Y-115200000D01*
X151020000Y-112690000D02*
X151020000Y-112250000D01*
X151020000Y-115200000D02*
X151020000Y-114790000D01*
X151740000Y-112690000D02*
X151740000Y-112250000D01*
X151740000Y-115200000D02*
X151740000Y-114790000D01*
X152660000Y-123600000D02*
X152650000Y-115200000D01*
X153560000Y-112690000D02*
X153560000Y-112250000D01*
X153560000Y-115200000D02*
X153560000Y-114790000D01*
X154280000Y-112690000D02*
X154280000Y-112250000D01*
X154280000Y-115200000D02*
X154280000Y-114790000D01*
X155190000Y-123600000D02*
X155190000Y-115200000D01*
X156100000Y-112690000D02*
X156100000Y-112250000D01*
X156100000Y-115200000D02*
X156100000Y-114790000D01*
X156820000Y-112690000D02*
X156820000Y-112250000D01*
X156820000Y-115200000D02*
X156820000Y-114790000D01*
X157730000Y-123600000D02*
X157730000Y-115200000D01*
X158640000Y-112690000D02*
X158640000Y-112250000D01*
X158640000Y-115200000D02*
X158640000Y-114790000D01*
X159360000Y-112690000D02*
X159360000Y-112250000D01*
X159360000Y-115200000D02*
X159360000Y-114790000D01*
X160270000Y-123600000D02*
X160270000Y-115200000D01*
X161180000Y-112690000D02*
X161180000Y-112250000D01*
X161180000Y-115200000D02*
X161180000Y-114790000D01*
X161900000Y-112690000D02*
X161900000Y-112250000D01*
X161900000Y-115200000D02*
X161900000Y-114790000D01*
X162870000Y-123600000D02*
X162870000Y-115200000D01*
D12*
X160360000Y-123600000D02*
X162870000Y-123600000D01*
X162870000Y-115200000D01*
X160360000Y-115200000D01*
X160360000Y-123600000D01*
G36*
X160360000Y-123600000D02*
G01*
X162870000Y-123600000D01*
X162870000Y-115200000D01*
X160360000Y-115200000D01*
X160360000Y-123600000D01*
G37*
D14*
%TO.C,U1*%
X145930000Y-105262500D02*
X145930000Y-103062500D01*
X145930000Y-105262500D02*
X145930000Y-107462500D01*
X154000000Y-105262500D02*
X154000000Y-103062500D01*
X154000000Y-105262500D02*
X154000000Y-107462500D01*
X153540000Y-101402500D02*
X153300000Y-101072500D01*
X153780000Y-101072500D01*
X153540000Y-101402500D01*
G36*
X153540000Y-101402500D02*
G01*
X153300000Y-101072500D01*
X153780000Y-101072500D01*
X153540000Y-101402500D01*
G37*
%TO.C,Y1*%
X158980000Y-93740000D02*
X158980000Y-97860000D01*
X162400000Y-93740000D02*
X158980000Y-93740000D01*
%TO.C,U4*%
X149000000Y-91920000D02*
X149450000Y-91920000D01*
X149000000Y-92370000D02*
X149000000Y-91920000D01*
X149000000Y-98690000D02*
X149000000Y-98840000D01*
X149450000Y-99140000D02*
X149240000Y-99140000D01*
X156220000Y-91920000D02*
X155770000Y-91920000D01*
X156220000Y-92370000D02*
X156220000Y-91920000D01*
X156220000Y-98690000D02*
X156220000Y-99140000D01*
X156220000Y-99140000D02*
X155770000Y-99140000D01*
X149000000Y-99140000D02*
X148670000Y-99380000D01*
X148670000Y-98900000D01*
X149000000Y-99140000D01*
G36*
X149000000Y-99140000D02*
G01*
X148670000Y-99380000D01*
X148670000Y-98900000D01*
X149000000Y-99140000D01*
G37*
%TD*%
M02*
