%TF.GenerationSoftware,KiCad,Pcbnew,9.0.2+1*%
%TF.CreationDate,2025-07-26T18:39:14+01:00*%
%TF.ProjectId,ORGNET,4f52474e-4554-42e6-9b69-6361645f7063,1*%
%TF.SameCoordinates,Original*%
%TF.FileFunction,Copper,L2,Bot*%
%TF.FilePolarity,Positive*%
%FSLAX46Y46*%
G04 Gerber Fmt 4.6, Leading zero omitted, Abs format (unit mm)*
G04 Created by KiCad (PCBNEW 9.0.2+1) date 2025-07-26 18:39:14*
%MOMM*%
%LPD*%
G01*
G04 APERTURE LIST*
%TA.AperFunction,ComponentPad*%
%ADD10R,1.700000X1.700000*%
%TD*%
%TA.AperFunction,ComponentPad*%
%ADD11C,1.700000*%
%TD*%
%TA.AperFunction,SMDPad,CuDef*%
%ADD12C,2.000000*%
%TD*%
%TA.AperFunction,ViaPad*%
%ADD13C,0.600000*%
%TD*%
%TA.AperFunction,Conductor*%
%ADD14C,0.200000*%
%TD*%
G04 APERTURE END LIST*
D10*
%TO.P,J1,1,Pin_1*%
%TO.N,SD1*%
X161540000Y-111200000D03*
D11*
%TO.P,J1,2,Pin_2*%
%TO.N,SD0*%
X161540000Y-113740000D03*
%TO.P,J1,3,Pin_3*%
%TO.N,SD3*%
X159000000Y-111200000D03*
%TO.P,J1,4,Pin_4*%
%TO.N,SD2*%
X159000000Y-113740000D03*
%TO.P,J1,5,Pin_5*%
%TO.N,SD5*%
X156460000Y-111200000D03*
%TO.P,J1,6,Pin_6*%
%TO.N,SD4*%
X156460000Y-113740000D03*
%TO.P,J1,7,Pin_7*%
%TO.N,SD7*%
X153920000Y-111200000D03*
%TO.P,J1,8,Pin_8*%
%TO.N,SD6*%
X153920000Y-113740000D03*
%TO.P,J1,9,Pin_9*%
%TO.N,SMR*%
X151380000Y-111200000D03*
%TO.P,J1,10,Pin_10*%
%TO.N,SCLK*%
X151380000Y-113740000D03*
%TO.P,J1,11,Pin_11*%
%TO.N,~{SOE}*%
X148840000Y-111200000D03*
%TO.P,J1,12,Pin_12*%
%TO.N,~{SS}*%
X148840000Y-113740000D03*
%TO.P,J1,13,Pin_13*%
%TO.N,GND*%
X146300000Y-111200000D03*
%TO.P,J1,14,Pin_14*%
%TO.N,~{SPGM}*%
X146300000Y-113740000D03*
%TO.P,J1,15,Pin_15*%
%TO.N,SVCC*%
X143760000Y-111200000D03*
%TO.P,J1,16,Pin_16*%
%TO.N,unconnected-(J1-Pin_16-Pad16)*%
X143760000Y-113740000D03*
%TD*%
D12*
%TO.P,TP4,1,1*%
%TO.N,Net-(U4-RUN)*%
X161040000Y-92500000D03*
%TD*%
%TO.P,TP2,1,1*%
%TO.N,+3V3*%
X144040000Y-102800000D03*
%TD*%
%TO.P,TP1,1,1*%
%TO.N,GND*%
X144040000Y-87500000D03*
%TD*%
%TO.P,TP5,1,1*%
%TO.N,Net-(U4-~{QSPI_CS})*%
X144040000Y-97100000D03*
%TD*%
%TO.P,TP3,1,1*%
%TO.N,SVCC*%
X144040000Y-106600000D03*
%TD*%
D13*
%TO.N,+3V3*%
X157143591Y-93658591D03*
%TO.N,Net-(U4-RUN)*%
X157210000Y-94740000D03*
X160540000Y-92010000D03*
%TO.N,+3V3*%
X145790000Y-100797500D03*
X150140000Y-94212226D03*
X142955000Y-100710000D03*
X146440000Y-90303000D03*
X159290000Y-89800000D03*
X142840000Y-98700000D03*
X151900000Y-93329998D03*
X153540000Y-102400000D03*
X151840000Y-98000000D03*
%TO.N,SVCC*%
X143045000Y-106930000D03*
%TO.N,GND*%
X148040000Y-79500000D03*
X146390000Y-102400000D03*
X146390000Y-108125000D03*
X146871250Y-97330000D03*
X143975000Y-100699998D03*
X143040000Y-108900000D03*
X151475000Y-96625000D03*
X155040000Y-102400000D03*
X143990000Y-104495000D03*
X151475000Y-95525000D03*
X145990000Y-82500000D03*
X153750000Y-94650000D03*
X161540000Y-79500000D03*
X161540000Y-96900000D03*
X143140000Y-90700002D03*
X152610000Y-94655000D03*
X158825000Y-98430000D03*
X147155000Y-99699998D03*
X154790000Y-89800000D03*
X159840000Y-94700000D03*
X153750000Y-96625000D03*
X152610000Y-96630000D03*
X151475000Y-94650000D03*
X153750000Y-95525000D03*
X155040000Y-108125000D03*
X148040000Y-84000000D03*
X148040000Y-88500000D03*
X161540000Y-88500000D03*
X152610000Y-95530000D03*
%TO.N,Net-(U4-~{QSPI_CS})*%
X143061250Y-97330000D03*
%TO.N,RM_DATA*%
X155040000Y-93000000D03*
X149840000Y-85600000D03*
X156940000Y-91500000D03*
%TO.N,Net-(U6-nIRQ)*%
X153290000Y-89800000D03*
X158237500Y-91510000D03*
%TO.N,SD0*%
X161040000Y-109600000D03*
%TO.N,~{OE}*%
X162190000Y-100750000D03*
X148290000Y-100950001D03*
X151440000Y-106759200D03*
X159340000Y-106700000D03*
%TO.N,DBG_SWCLK*%
X145990000Y-83500000D03*
X154915735Y-95024265D03*
%TO.N,DBG_SWDIO*%
X152943910Y-93156090D03*
X146040000Y-81500000D03*
%TD*%
D14*
%TO.N,+3V3*%
X142955000Y-100814999D02*
X143940000Y-101799999D01*
X142955000Y-100710000D02*
X142955000Y-100814999D01*
X143940000Y-101799999D02*
X143940000Y-102800000D01*
X142955000Y-100710000D02*
X142955000Y-100584998D01*
X143490000Y-100049998D02*
X145090000Y-100049998D01*
X142955000Y-100584998D02*
X143490000Y-100049998D01*
X145090000Y-100049998D02*
X145790000Y-100749998D01*
X157143591Y-93658591D02*
X157102182Y-93700000D01*
X157102182Y-93700000D02*
X156090057Y-93700000D01*
X156090057Y-93700000D02*
X156082967Y-93707090D01*
%TO.N,Net-(U4-RUN)*%
X161040000Y-92500000D02*
X159080000Y-92500000D01*
X159080000Y-92500000D02*
X157210000Y-94370000D01*
X157210000Y-94370000D02*
X157210000Y-94740000D01*
%TO.N,Net-(U6-nIRQ)*%
X158237500Y-91510000D02*
X158237500Y-91457500D01*
X158237500Y-91457500D02*
X157680000Y-90900000D01*
X154390000Y-90900000D02*
X153290000Y-89800000D01*
X157680000Y-90900000D02*
X154390000Y-90900000D01*
%TO.N,+3V3*%
X159290000Y-89800000D02*
X159290000Y-91400000D01*
X159290000Y-91400000D02*
X158165000Y-92525000D01*
X158165000Y-92525000D02*
X157265057Y-92525000D01*
X152277092Y-93707090D02*
X151900000Y-93329998D01*
X157265057Y-92525000D02*
X156082967Y-93707090D01*
X156082967Y-93707090D02*
X152277092Y-93707090D01*
%TO.N,~{OE}*%
X162190000Y-100750000D02*
X161905002Y-100750000D01*
X161905002Y-100750000D02*
X159340000Y-103315002D01*
X159340000Y-103315002D02*
X159340000Y-106700000D01*
%TO.N,+3V3*%
X153540000Y-102400000D02*
X153540000Y-99700000D01*
X153540000Y-99700000D02*
X151840000Y-98000000D01*
X144460002Y-99420000D02*
X143720000Y-99420000D01*
X145790000Y-99257239D02*
X147047239Y-98000000D01*
X147047239Y-98000000D02*
X151840000Y-98000000D01*
X145790000Y-100749998D02*
X144460002Y-99420000D01*
X150140000Y-94212226D02*
X150140000Y-93700000D01*
X146743000Y-90303000D02*
X146440000Y-90303000D01*
X145790000Y-100797500D02*
X145790000Y-99257239D01*
X150140000Y-93700000D02*
X146743000Y-90303000D01*
X143000000Y-98700000D02*
X142840000Y-98700000D01*
X143720000Y-99420000D02*
X143000000Y-98700000D01*
X145790000Y-100797500D02*
X145790000Y-100749998D01*
%TO.N,RM_DATA*%
X149840000Y-87800000D02*
X155040000Y-93000000D01*
X155440000Y-93000000D02*
X156940000Y-91500000D01*
X155040000Y-93000000D02*
X155440000Y-93000000D01*
X149840000Y-85600000D02*
X149840000Y-87800000D01*
%TO.N,SD0*%
X160240000Y-112440000D02*
X161540000Y-113740000D01*
X160940000Y-109600000D02*
X160240000Y-110300000D01*
X161040000Y-109600000D02*
X160940000Y-109600000D01*
X160240000Y-110300000D02*
X160240000Y-112440000D01*
%TO.N,~{OE}*%
X151440000Y-106759200D02*
X147290002Y-102609202D01*
X147290002Y-101949999D02*
X148290000Y-100950001D01*
X147290002Y-102609202D02*
X147290002Y-101949999D01*
%TO.N,DBG_SWCLK*%
X151140000Y-94100000D02*
X153991470Y-94100000D01*
X145990000Y-83500000D02*
X145990000Y-83625000D01*
X146139000Y-89099000D02*
X151140000Y-94100000D01*
X145990000Y-83625000D02*
X146139000Y-83774000D01*
X153991470Y-94100000D02*
X154915735Y-95024265D01*
X146139000Y-83774000D02*
X146139000Y-89099000D01*
%TO.N,DBG_SWDIO*%
X146540000Y-82000000D02*
X146540000Y-88900000D01*
X146040000Y-81500000D02*
X146540000Y-82000000D01*
X152500000Y-92700000D02*
X152943910Y-93143910D01*
X152943910Y-93143910D02*
X152943910Y-93156090D01*
X146540000Y-88900000D02*
X150340000Y-92700000D01*
X150340000Y-92700000D02*
X152500000Y-92700000D01*
%TD*%
%TA.AperFunction,Conductor*%
%TO.N,GND*%
G36*
X162482539Y-79219685D02*
G01*
X162528294Y-79272489D01*
X162539500Y-79324000D01*
X162539500Y-91629448D01*
X162519815Y-91696487D01*
X162467011Y-91742242D01*
X162397853Y-91752186D01*
X162334297Y-91723161D01*
X162315182Y-91702334D01*
X162271453Y-91642147D01*
X162184517Y-91522490D01*
X162017510Y-91355483D01*
X161826433Y-91216657D01*
X161615996Y-91109433D01*
X161391368Y-91036446D01*
X161158097Y-90999500D01*
X161158092Y-90999500D01*
X160921908Y-90999500D01*
X160921903Y-90999500D01*
X160688631Y-91036446D01*
X160464003Y-91109433D01*
X160253563Y-91216659D01*
X160087385Y-91337394D01*
X160021579Y-91360874D01*
X159953525Y-91345048D01*
X159904830Y-91294942D01*
X159890500Y-91237076D01*
X159890500Y-90379765D01*
X159910185Y-90312726D01*
X159911398Y-90310874D01*
X159999390Y-90179185D01*
X159999390Y-90179184D01*
X159999394Y-90179179D01*
X160059737Y-90033497D01*
X160090500Y-89878842D01*
X160090500Y-89721158D01*
X160090500Y-89721155D01*
X160090499Y-89721153D01*
X160088296Y-89710078D01*
X160059737Y-89566503D01*
X160039292Y-89517144D01*
X159999397Y-89420827D01*
X159999390Y-89420814D01*
X159911789Y-89289711D01*
X159911786Y-89289707D01*
X159800292Y-89178213D01*
X159800288Y-89178210D01*
X159669185Y-89090609D01*
X159669172Y-89090602D01*
X159523501Y-89030264D01*
X159523489Y-89030261D01*
X159368845Y-88999500D01*
X159368842Y-88999500D01*
X159211158Y-88999500D01*
X159211155Y-88999500D01*
X159056510Y-89030261D01*
X159056498Y-89030264D01*
X158910827Y-89090602D01*
X158910814Y-89090609D01*
X158779711Y-89178210D01*
X158779707Y-89178213D01*
X158668213Y-89289707D01*
X158668210Y-89289711D01*
X158580609Y-89420814D01*
X158580602Y-89420827D01*
X158520264Y-89566498D01*
X158520261Y-89566510D01*
X158489500Y-89721153D01*
X158489500Y-89878846D01*
X158520261Y-90033489D01*
X158520264Y-90033501D01*
X158580602Y-90179172D01*
X158580609Y-90179185D01*
X158668602Y-90310874D01*
X158689480Y-90377551D01*
X158689500Y-90379765D01*
X158689500Y-90645190D01*
X158682308Y-90669680D01*
X158679057Y-90694998D01*
X158672628Y-90702645D01*
X158669815Y-90712229D01*
X158650526Y-90728942D01*
X158634102Y-90748484D01*
X158624560Y-90751442D01*
X158617011Y-90757984D01*
X158591747Y-90761616D01*
X158567367Y-90769176D01*
X158555261Y-90766862D01*
X158547853Y-90767928D01*
X158532360Y-90764680D01*
X158525052Y-90762653D01*
X158470997Y-90740263D01*
X158376666Y-90721499D01*
X158372238Y-90720271D01*
X158346311Y-90704155D01*
X158319276Y-90690013D01*
X158317697Y-90688462D01*
X158167590Y-90538355D01*
X158167588Y-90538352D01*
X158048717Y-90419481D01*
X158048709Y-90419475D01*
X157957938Y-90367069D01*
X157957937Y-90367069D01*
X157911785Y-90340423D01*
X157759057Y-90299499D01*
X157600943Y-90299499D01*
X157593347Y-90299499D01*
X157593331Y-90299500D01*
X154690097Y-90299500D01*
X154623058Y-90279815D01*
X154602416Y-90263181D01*
X154124574Y-89785339D01*
X154091089Y-89724016D01*
X154090638Y-89721849D01*
X154070442Y-89620322D01*
X154059737Y-89566503D01*
X154039292Y-89517144D01*
X153999397Y-89420827D01*
X153999390Y-89420814D01*
X153911789Y-89289711D01*
X153911786Y-89289707D01*
X153800292Y-89178213D01*
X153800288Y-89178210D01*
X153669185Y-89090609D01*
X153669172Y-89090602D01*
X153523501Y-89030264D01*
X153523489Y-89030261D01*
X153368845Y-88999500D01*
X153368842Y-88999500D01*
X153211158Y-88999500D01*
X153211155Y-88999500D01*
X153056510Y-89030261D01*
X153056498Y-89030264D01*
X152910827Y-89090602D01*
X152910814Y-89090609D01*
X152779711Y-89178210D01*
X152779707Y-89178213D01*
X152668213Y-89289707D01*
X152668210Y-89289711D01*
X152580609Y-89420814D01*
X152580603Y-89420826D01*
X152572380Y-89440678D01*
X152528538Y-89495081D01*
X152462243Y-89517144D01*
X152394544Y-89499864D01*
X152370139Y-89480904D01*
X150476819Y-87587583D01*
X150443334Y-87526260D01*
X150440500Y-87499902D01*
X150440500Y-86179765D01*
X150460185Y-86112726D01*
X150461398Y-86110874D01*
X150549390Y-85979185D01*
X150549390Y-85979184D01*
X150549394Y-85979179D01*
X150609737Y-85833497D01*
X150640500Y-85678842D01*
X150640500Y-85521158D01*
X150640500Y-85521155D01*
X150640499Y-85521153D01*
X150609738Y-85366510D01*
X150609737Y-85366503D01*
X150609735Y-85366498D01*
X150549397Y-85220827D01*
X150549390Y-85220814D01*
X150461789Y-85089711D01*
X150461786Y-85089707D01*
X150350292Y-84978213D01*
X150350288Y-84978210D01*
X150219185Y-84890609D01*
X150219172Y-84890602D01*
X150073501Y-84830264D01*
X150073489Y-84830261D01*
X149918845Y-84799500D01*
X149918842Y-84799500D01*
X149761158Y-84799500D01*
X149761155Y-84799500D01*
X149606510Y-84830261D01*
X149606498Y-84830264D01*
X149460827Y-84890602D01*
X149460814Y-84890609D01*
X149329711Y-84978210D01*
X149329707Y-84978213D01*
X149218213Y-85089707D01*
X149218210Y-85089711D01*
X149130609Y-85220814D01*
X149130602Y-85220827D01*
X149070264Y-85366498D01*
X149070261Y-85366510D01*
X149039500Y-85521153D01*
X149039500Y-85678846D01*
X149070261Y-85833489D01*
X149070264Y-85833501D01*
X149130602Y-85979172D01*
X149130609Y-85979185D01*
X149218602Y-86110874D01*
X149239480Y-86177551D01*
X149239500Y-86179765D01*
X149239500Y-87713330D01*
X149239499Y-87713348D01*
X149239499Y-87879054D01*
X149239498Y-87879054D01*
X149280423Y-88031785D01*
X149309358Y-88081900D01*
X149309359Y-88081904D01*
X149309360Y-88081904D01*
X149359479Y-88168714D01*
X149359481Y-88168717D01*
X149478349Y-88287585D01*
X149478355Y-88287590D01*
X153418952Y-92228187D01*
X153452437Y-92289510D01*
X153447453Y-92359202D01*
X153405581Y-92415135D01*
X153340117Y-92439552D01*
X153283819Y-92430429D01*
X153177411Y-92386354D01*
X153177401Y-92386351D01*
X153037265Y-92358476D01*
X152975354Y-92326091D01*
X152973776Y-92324540D01*
X152868717Y-92219481D01*
X152868709Y-92219475D01*
X152766560Y-92160500D01*
X152731788Y-92140424D01*
X152731787Y-92140423D01*
X152670693Y-92124053D01*
X152579057Y-92099499D01*
X152420943Y-92099499D01*
X152413347Y-92099499D01*
X152413331Y-92099500D01*
X150640098Y-92099500D01*
X150573059Y-92079815D01*
X150552417Y-92063181D01*
X147176819Y-88687583D01*
X147143334Y-88626260D01*
X147140500Y-88599902D01*
X147140500Y-82089060D01*
X147140501Y-82089047D01*
X147140501Y-81920944D01*
X147140501Y-81920943D01*
X147099577Y-81768216D01*
X147099573Y-81768209D01*
X147020524Y-81631290D01*
X147020518Y-81631282D01*
X146874573Y-81485337D01*
X146841088Y-81424014D01*
X146840637Y-81421847D01*
X146809738Y-81266510D01*
X146809737Y-81266503D01*
X146809735Y-81266498D01*
X146749397Y-81120827D01*
X146749390Y-81120814D01*
X146661789Y-80989711D01*
X146661786Y-80989707D01*
X146550292Y-80878213D01*
X146550288Y-80878210D01*
X146419185Y-80790609D01*
X146419172Y-80790602D01*
X146273501Y-80730264D01*
X146273489Y-80730261D01*
X146118845Y-80699500D01*
X146118842Y-80699500D01*
X145961158Y-80699500D01*
X145961155Y-80699500D01*
X145806510Y-80730261D01*
X145806498Y-80730264D01*
X145660827Y-80790602D01*
X145660814Y-80790609D01*
X145529711Y-80878210D01*
X145529707Y-80878213D01*
X145418213Y-80989707D01*
X145418210Y-80989711D01*
X145330609Y-81120814D01*
X145330602Y-81120827D01*
X145270264Y-81266498D01*
X145270261Y-81266510D01*
X145239500Y-81421153D01*
X145239500Y-81578846D01*
X145270261Y-81733489D01*
X145270264Y-81733501D01*
X145330602Y-81879172D01*
X145330609Y-81879185D01*
X145418210Y-82010288D01*
X145418213Y-82010292D01*
X145529707Y-82121786D01*
X145529711Y-82121789D01*
X145660814Y-82209390D01*
X145660827Y-82209397D01*
X145748230Y-82245599D01*
X145806503Y-82269737D01*
X145839691Y-82276338D01*
X145867820Y-82291051D01*
X145896703Y-82304242D01*
X145898559Y-82307130D01*
X145901600Y-82308721D01*
X145917309Y-82336306D01*
X145934477Y-82363020D01*
X145935137Y-82367611D01*
X145936176Y-82369436D01*
X145939500Y-82397955D01*
X145939500Y-82592098D01*
X145919815Y-82659137D01*
X145867011Y-82704892D01*
X145839692Y-82713715D01*
X145756508Y-82730261D01*
X145756498Y-82730264D01*
X145610827Y-82790602D01*
X145610814Y-82790609D01*
X145479711Y-82878210D01*
X145479707Y-82878213D01*
X145368213Y-82989707D01*
X145368210Y-82989711D01*
X145280609Y-83120814D01*
X145280602Y-83120827D01*
X145220264Y-83266498D01*
X145220261Y-83266510D01*
X145189500Y-83421153D01*
X145189500Y-83578846D01*
X145220261Y-83733489D01*
X145220264Y-83733501D01*
X145280602Y-83879172D01*
X145280609Y-83879185D01*
X145368210Y-84010288D01*
X145368213Y-84010292D01*
X145479708Y-84121787D01*
X145479711Y-84121789D01*
X145483386Y-84124245D01*
X145528194Y-84177854D01*
X145538500Y-84227349D01*
X145538500Y-86628923D01*
X145518815Y-86695962D01*
X145466011Y-86741717D01*
X145396853Y-86751661D01*
X145333297Y-86722636D01*
X145314182Y-86701809D01*
X145262658Y-86630894D01*
X145262658Y-86630893D01*
X144393554Y-87499999D01*
X144393554Y-87500001D01*
X145262658Y-88369105D01*
X145262659Y-88369104D01*
X145314182Y-88298190D01*
X145369512Y-88255524D01*
X145439125Y-88249545D01*
X145500920Y-88282151D01*
X145535277Y-88342989D01*
X145538500Y-88371075D01*
X145538500Y-89012330D01*
X145538499Y-89012348D01*
X145538499Y-89178054D01*
X145538498Y-89178054D01*
X145538499Y-89178057D01*
X145579423Y-89330785D01*
X145608138Y-89380520D01*
X145631409Y-89420827D01*
X145658479Y-89467714D01*
X145658481Y-89467717D01*
X145777349Y-89586585D01*
X145777355Y-89586590D01*
X145813235Y-89622470D01*
X145846720Y-89683793D01*
X145841736Y-89753485D01*
X145821408Y-89788815D01*
X145818210Y-89792711D01*
X145730609Y-89923814D01*
X145730602Y-89923827D01*
X145670264Y-90069498D01*
X145670261Y-90069510D01*
X145639500Y-90224153D01*
X145639500Y-90381846D01*
X145670261Y-90536489D01*
X145670264Y-90536501D01*
X145730602Y-90682172D01*
X145730609Y-90682185D01*
X145818210Y-90813288D01*
X145818213Y-90813292D01*
X145929707Y-90924786D01*
X145929711Y-90924789D01*
X146060814Y-91012390D01*
X146060827Y-91012397D01*
X146206498Y-91072735D01*
X146206503Y-91072737D01*
X146361153Y-91103499D01*
X146361156Y-91103500D01*
X146361158Y-91103500D01*
X146518842Y-91103500D01*
X146600155Y-91087325D01*
X146669743Y-91093551D01*
X146712026Y-91121261D01*
X149370029Y-93779264D01*
X149403514Y-93840587D01*
X149398530Y-93910279D01*
X149396910Y-93914396D01*
X149370262Y-93978732D01*
X149370260Y-93978737D01*
X149339500Y-94133379D01*
X149339500Y-94291072D01*
X149370261Y-94445715D01*
X149370264Y-94445727D01*
X149430602Y-94591398D01*
X149430609Y-94591411D01*
X149518210Y-94722514D01*
X149518213Y-94722518D01*
X149629707Y-94834012D01*
X149629711Y-94834015D01*
X149760814Y-94921616D01*
X149760827Y-94921623D01*
X149906498Y-94981961D01*
X149906503Y-94981963D01*
X150061153Y-95012725D01*
X150061156Y-95012726D01*
X150061158Y-95012726D01*
X150218844Y-95012726D01*
X150218845Y-95012725D01*
X150373497Y-94981963D01*
X150519179Y-94921620D01*
X150650289Y-94834015D01*
X150761789Y-94722515D01*
X150770324Y-94709741D01*
X150823933Y-94664936D01*
X150893257Y-94656226D01*
X150905521Y-94658855D01*
X150908214Y-94659576D01*
X150908215Y-94659577D01*
X151060943Y-94700501D01*
X151060946Y-94700501D01*
X151226653Y-94700501D01*
X151226669Y-94700500D01*
X153691373Y-94700500D01*
X153758412Y-94720185D01*
X153779054Y-94736819D01*
X154081160Y-95038925D01*
X154114645Y-95100248D01*
X154115096Y-95102414D01*
X154145996Y-95257756D01*
X154145999Y-95257766D01*
X154206337Y-95403437D01*
X154206344Y-95403450D01*
X154293945Y-95534553D01*
X154293948Y-95534557D01*
X154405442Y-95646051D01*
X154405446Y-95646054D01*
X154536549Y-95733655D01*
X154536562Y-95733662D01*
X154682233Y-95794000D01*
X154682238Y-95794002D01*
X154796132Y-95816657D01*
X154836888Y-95824764D01*
X154836891Y-95824765D01*
X154836893Y-95824765D01*
X154994579Y-95824765D01*
X154994580Y-95824764D01*
X155149232Y-95794002D01*
X155294914Y-95733659D01*
X155426024Y-95646054D01*
X155537524Y-95534554D01*
X155625129Y-95403444D01*
X155685472Y-95257762D01*
X155716235Y-95103107D01*
X155716235Y-94945423D01*
X155716235Y-94945420D01*
X155716234Y-94945418D01*
X155691057Y-94818846D01*
X155685472Y-94790768D01*
X155657201Y-94722515D01*
X155625132Y-94645092D01*
X155625125Y-94645079D01*
X155537524Y-94513976D01*
X155534469Y-94510253D01*
X155507157Y-94445942D01*
X155518950Y-94377075D01*
X155566104Y-94325516D01*
X155630324Y-94307590D01*
X156003906Y-94307590D01*
X156003910Y-94307591D01*
X156162024Y-94307591D01*
X156186419Y-94301054D01*
X156200599Y-94300572D01*
X156201841Y-94300891D01*
X156204813Y-94300500D01*
X156340013Y-94300500D01*
X156407052Y-94320185D01*
X156452807Y-94372989D01*
X156462751Y-94442147D01*
X156454574Y-94471952D01*
X156440264Y-94506498D01*
X156440261Y-94506510D01*
X156409500Y-94661153D01*
X156409500Y-94818846D01*
X156440261Y-94973489D01*
X156440264Y-94973501D01*
X156500602Y-95119172D01*
X156500609Y-95119185D01*
X156588210Y-95250288D01*
X156588213Y-95250292D01*
X156699707Y-95361786D01*
X156699711Y-95361789D01*
X156830814Y-95449390D01*
X156830827Y-95449397D01*
X156976498Y-95509735D01*
X156976503Y-95509737D01*
X157101261Y-95534553D01*
X157131153Y-95540499D01*
X157131156Y-95540500D01*
X157131158Y-95540500D01*
X157288844Y-95540500D01*
X157288845Y-95540499D01*
X157443497Y-95509737D01*
X157589179Y-95449394D01*
X157720289Y-95361789D01*
X157831789Y-95250289D01*
X157919394Y-95119179D01*
X157979737Y-94973497D01*
X158010500Y-94818842D01*
X158010500Y-94661158D01*
X158010500Y-94661155D01*
X157996624Y-94591398D01*
X157983209Y-94523958D01*
X157989436Y-94454370D01*
X158017143Y-94412091D01*
X159292416Y-93136819D01*
X159319343Y-93122115D01*
X159345162Y-93105523D01*
X159351362Y-93104631D01*
X159353739Y-93103334D01*
X159380097Y-93100500D01*
X159585932Y-93100500D01*
X159652971Y-93120185D01*
X159696416Y-93168203D01*
X159756657Y-93286433D01*
X159895483Y-93477510D01*
X160062490Y-93644517D01*
X160253567Y-93783343D01*
X160352991Y-93834002D01*
X160464003Y-93890566D01*
X160464005Y-93890566D01*
X160464008Y-93890568D01*
X160537343Y-93914396D01*
X160688631Y-93963553D01*
X160921903Y-94000500D01*
X160921908Y-94000500D01*
X161158097Y-94000500D01*
X161391368Y-93963553D01*
X161615992Y-93890568D01*
X161826433Y-93783343D01*
X162017510Y-93644517D01*
X162184517Y-93477510D01*
X162315183Y-93297664D01*
X162370512Y-93255000D01*
X162440126Y-93249021D01*
X162501920Y-93281627D01*
X162536278Y-93342466D01*
X162539500Y-93370551D01*
X162539500Y-99852242D01*
X162519815Y-99919281D01*
X162467011Y-99965036D01*
X162397853Y-99974980D01*
X162391309Y-99973859D01*
X162268846Y-99949500D01*
X162268842Y-99949500D01*
X162111158Y-99949500D01*
X162111155Y-99949500D01*
X161956510Y-99980261D01*
X161956498Y-99980264D01*
X161810827Y-100040602D01*
X161810814Y-100040609D01*
X161679711Y-100128210D01*
X161679707Y-100128213D01*
X161568215Y-100239705D01*
X161564836Y-100243823D01*
X161541826Y-100263348D01*
X161542735Y-100264532D01*
X161536282Y-100269483D01*
X158859479Y-102946286D01*
X158841217Y-102977919D01*
X158828180Y-103000500D01*
X158780423Y-103083217D01*
X158739499Y-103235945D01*
X158739499Y-103235947D01*
X158739499Y-103404048D01*
X158739500Y-103404061D01*
X158739500Y-106120234D01*
X158719815Y-106187273D01*
X158718602Y-106189125D01*
X158630609Y-106320814D01*
X158630602Y-106320827D01*
X158570264Y-106466498D01*
X158570261Y-106466510D01*
X158539500Y-106621153D01*
X158539500Y-106778846D01*
X158570261Y-106933489D01*
X158570264Y-106933501D01*
X158630602Y-107079172D01*
X158630609Y-107079185D01*
X158718210Y-107210288D01*
X158718213Y-107210292D01*
X158829707Y-107321786D01*
X158829711Y-107321789D01*
X158960814Y-107409390D01*
X158960827Y-107409397D01*
X159103751Y-107468597D01*
X159106503Y-107469737D01*
X159261153Y-107500499D01*
X159261156Y-107500500D01*
X159261158Y-107500500D01*
X159418844Y-107500500D01*
X159418845Y-107500499D01*
X159573497Y-107469737D01*
X159719179Y-107409394D01*
X159850289Y-107321789D01*
X159961789Y-107210289D01*
X160049394Y-107079179D01*
X160109737Y-106933497D01*
X160140500Y-106778842D01*
X160140500Y-106621158D01*
X160140500Y-106621155D01*
X160140499Y-106621153D01*
X160121514Y-106525710D01*
X160109737Y-106466503D01*
X160073918Y-106380027D01*
X160049397Y-106320827D01*
X160049390Y-106320814D01*
X159961398Y-106189125D01*
X159940520Y-106122447D01*
X159940500Y-106120234D01*
X159940500Y-103615099D01*
X159960185Y-103548060D01*
X159976819Y-103527418D01*
X160870748Y-102633489D01*
X161932990Y-101571246D01*
X161994311Y-101537763D01*
X162044858Y-101537312D01*
X162097955Y-101547873D01*
X162111157Y-101550500D01*
X162111158Y-101550500D01*
X162268844Y-101550500D01*
X162391308Y-101526140D01*
X162460900Y-101532367D01*
X162516077Y-101575230D01*
X162539322Y-101641120D01*
X162539500Y-101647757D01*
X162539500Y-108579294D01*
X162519815Y-108646333D01*
X162467011Y-108692088D01*
X162438286Y-108701183D01*
X162374702Y-108713069D01*
X162265027Y-108733571D01*
X162265025Y-108733571D01*
X162265023Y-108733572D01*
X162092130Y-108800551D01*
X162092124Y-108800553D01*
X161934482Y-108898161D01*
X161934480Y-108898163D01*
X161797454Y-109023078D01*
X161797447Y-109023086D01*
X161796278Y-109024635D01*
X161795530Y-109025189D01*
X161793593Y-109027315D01*
X161793176Y-109026935D01*
X161740163Y-109066263D01*
X161670450Y-109070944D01*
X161609654Y-109037575D01*
X161550292Y-108978213D01*
X161550288Y-108978210D01*
X161419185Y-108890609D01*
X161419172Y-108890602D01*
X161273501Y-108830264D01*
X161273489Y-108830261D01*
X161118845Y-108799500D01*
X161118842Y-108799500D01*
X160961158Y-108799500D01*
X160961155Y-108799500D01*
X160806510Y-108830261D01*
X160806498Y-108830264D01*
X160660827Y-108890602D01*
X160660814Y-108890609D01*
X160529711Y-108978210D01*
X160529707Y-108978213D01*
X160418213Y-109089707D01*
X160418210Y-109089711D01*
X160330609Y-109220814D01*
X160330602Y-109220827D01*
X160270263Y-109366500D01*
X160270261Y-109366507D01*
X160264192Y-109397019D01*
X160231806Y-109458930D01*
X160230256Y-109460507D01*
X159872636Y-109818127D01*
X159872620Y-109818143D01*
X159871286Y-109819478D01*
X159871284Y-109819480D01*
X159759480Y-109931284D01*
X159748678Y-109949992D01*
X159738825Y-109960475D01*
X159720593Y-109971174D01*
X159705292Y-109985763D01*
X159691063Y-109988504D01*
X159678566Y-109995839D01*
X159657442Y-109994983D01*
X159636684Y-109998983D01*
X159617361Y-109993358D01*
X159608754Y-109993010D01*
X159603498Y-109989323D01*
X159592183Y-109986030D01*
X159518417Y-109948445D01*
X159518414Y-109948444D01*
X159518412Y-109948443D01*
X159316243Y-109882754D01*
X159316241Y-109882753D01*
X159316240Y-109882753D01*
X159154957Y-109857208D01*
X159106287Y-109849500D01*
X158893713Y-109849500D01*
X158845042Y-109857208D01*
X158683760Y-109882753D01*
X158481585Y-109948444D01*
X158292179Y-110044951D01*
X158120213Y-110169890D01*
X157969890Y-110320213D01*
X157844949Y-110492182D01*
X157840484Y-110500946D01*
X157792509Y-110551742D01*
X157724688Y-110568536D01*
X157658553Y-110545998D01*
X157619516Y-110500946D01*
X157615050Y-110492182D01*
X157490109Y-110320213D01*
X157339786Y-110169890D01*
X157167820Y-110044951D01*
X156978414Y-109948444D01*
X156978413Y-109948443D01*
X156978412Y-109948443D01*
X156776243Y-109882754D01*
X156776241Y-109882753D01*
X156776240Y-109882753D01*
X156614957Y-109857208D01*
X156566287Y-109849500D01*
X156353713Y-109849500D01*
X156305042Y-109857208D01*
X156143760Y-109882753D01*
X155941585Y-109948444D01*
X155752179Y-110044951D01*
X155580213Y-110169890D01*
X155429890Y-110320213D01*
X155304949Y-110492182D01*
X155300484Y-110500946D01*
X155252509Y-110551742D01*
X155184688Y-110568536D01*
X155118553Y-110545998D01*
X155079516Y-110500946D01*
X155075050Y-110492182D01*
X154950109Y-110320213D01*
X154799786Y-110169890D01*
X154627820Y-110044951D01*
X154438414Y-109948444D01*
X154438413Y-109948443D01*
X154438412Y-109948443D01*
X154236243Y-109882754D01*
X154236241Y-109882753D01*
X154236240Y-109882753D01*
X154074957Y-109857208D01*
X154026287Y-109849500D01*
X153813713Y-109849500D01*
X153765042Y-109857208D01*
X153603760Y-109882753D01*
X153401585Y-109948444D01*
X153212179Y-110044951D01*
X153040213Y-110169890D01*
X152889890Y-110320213D01*
X152764949Y-110492182D01*
X152760484Y-110500946D01*
X152712509Y-110551742D01*
X152644688Y-110568536D01*
X152578553Y-110545998D01*
X152539516Y-110500946D01*
X152535050Y-110492182D01*
X152410109Y-110320213D01*
X152259786Y-110169890D01*
X152087820Y-110044951D01*
X151898414Y-109948444D01*
X151898413Y-109948443D01*
X151898412Y-109948443D01*
X151696243Y-109882754D01*
X151696241Y-109882753D01*
X151696240Y-109882753D01*
X151534957Y-109857208D01*
X151486287Y-109849500D01*
X151273713Y-109849500D01*
X151225042Y-109857208D01*
X151063760Y-109882753D01*
X150861585Y-109948444D01*
X150672179Y-110044951D01*
X150500213Y-110169890D01*
X150349890Y-110320213D01*
X150224949Y-110492182D01*
X150220484Y-110500946D01*
X150172509Y-110551742D01*
X150104688Y-110568536D01*
X150038553Y-110545998D01*
X149999516Y-110500946D01*
X149995050Y-110492182D01*
X149870109Y-110320213D01*
X149719786Y-110169890D01*
X149547820Y-110044951D01*
X149358414Y-109948444D01*
X149358413Y-109948443D01*
X149358412Y-109948443D01*
X149156243Y-109882754D01*
X149156241Y-109882753D01*
X149156240Y-109882753D01*
X148994957Y-109857208D01*
X148946287Y-109849500D01*
X148733713Y-109849500D01*
X148685042Y-109857208D01*
X148523760Y-109882753D01*
X148321585Y-109948444D01*
X148132179Y-110044951D01*
X147960213Y-110169890D01*
X147809890Y-110320213D01*
X147684949Y-110492182D01*
X147680202Y-110501499D01*
X147632227Y-110552293D01*
X147564405Y-110569087D01*
X147498271Y-110546548D01*
X147459234Y-110501495D01*
X147454626Y-110492452D01*
X147415270Y-110438282D01*
X147415269Y-110438282D01*
X146782962Y-111070589D01*
X146765925Y-111007007D01*
X146700099Y-110892993D01*
X146607007Y-110799901D01*
X146492993Y-110734075D01*
X146429409Y-110717037D01*
X147061716Y-110084728D01*
X147007550Y-110045375D01*
X146818217Y-109948904D01*
X146616129Y-109883242D01*
X146406246Y-109850000D01*
X146193754Y-109850000D01*
X145983872Y-109883242D01*
X145983869Y-109883242D01*
X145781782Y-109948904D01*
X145592439Y-110045380D01*
X145538282Y-110084727D01*
X145538282Y-110084728D01*
X146170591Y-110717037D01*
X146107007Y-110734075D01*
X145992993Y-110799901D01*
X145899901Y-110892993D01*
X145834075Y-111007007D01*
X145817037Y-111070591D01*
X145184728Y-110438282D01*
X145184727Y-110438282D01*
X145145380Y-110492440D01*
X145145376Y-110492446D01*
X145140760Y-110501505D01*
X145092781Y-110552297D01*
X145024959Y-110569087D01*
X144958826Y-110546543D01*
X144919794Y-110501493D01*
X144915051Y-110492184D01*
X144915049Y-110492181D01*
X144915048Y-110492179D01*
X144790109Y-110320213D01*
X144639786Y-110169890D01*
X144467820Y-110044951D01*
X144278414Y-109948444D01*
X144278413Y-109948443D01*
X144278412Y-109948443D01*
X144076243Y-109882754D01*
X144076241Y-109882753D01*
X144076240Y-109882753D01*
X143914957Y-109857208D01*
X143866287Y-109849500D01*
X143653713Y-109849500D01*
X143605042Y-109857208D01*
X143443760Y-109882753D01*
X143241585Y-109948444D01*
X143052179Y-110044951D01*
X142880213Y-110169890D01*
X142880209Y-110169894D01*
X142752181Y-110297923D01*
X142690858Y-110331408D01*
X142621166Y-110326424D01*
X142565233Y-110284552D01*
X142540816Y-110219088D01*
X142540500Y-110210242D01*
X142540500Y-107773063D01*
X142560185Y-107706024D01*
X142612989Y-107660269D01*
X142682147Y-107650325D01*
X142711950Y-107658501D01*
X142811503Y-107699737D01*
X142966153Y-107730499D01*
X142966156Y-107730500D01*
X142966158Y-107730500D01*
X143002908Y-107730500D01*
X143069947Y-107750185D01*
X143075771Y-107754166D01*
X143253567Y-107883343D01*
X143352991Y-107934002D01*
X143464003Y-107990566D01*
X143464005Y-107990566D01*
X143464008Y-107990568D01*
X143584412Y-108029689D01*
X143688631Y-108063553D01*
X143921903Y-108100500D01*
X143921908Y-108100500D01*
X144158097Y-108100500D01*
X144391368Y-108063553D01*
X144615992Y-107990568D01*
X144826433Y-107883343D01*
X145017510Y-107744517D01*
X145184517Y-107577510D01*
X145323343Y-107386433D01*
X145430568Y-107175992D01*
X145503553Y-106951368D01*
X145506383Y-106933501D01*
X145540500Y-106718097D01*
X145540500Y-106481902D01*
X145503553Y-106248631D01*
X145430566Y-106024003D01*
X145323342Y-105813566D01*
X145184517Y-105622490D01*
X145017510Y-105455483D01*
X144826433Y-105316657D01*
X144615996Y-105209433D01*
X144391368Y-105136446D01*
X144158097Y-105099500D01*
X144158092Y-105099500D01*
X143921908Y-105099500D01*
X143921903Y-105099500D01*
X143688631Y-105136446D01*
X143464003Y-105209433D01*
X143253566Y-105316657D01*
X143144550Y-105395862D01*
X143062490Y-105455483D01*
X143062488Y-105455485D01*
X143062487Y-105455485D01*
X142895485Y-105622487D01*
X142895485Y-105622488D01*
X142895483Y-105622490D01*
X142817773Y-105729448D01*
X142764818Y-105802334D01*
X142709488Y-105844999D01*
X142639874Y-105850978D01*
X142578079Y-105818372D01*
X142543722Y-105757533D01*
X142540500Y-105729448D01*
X142540500Y-103670551D01*
X142560185Y-103603512D01*
X142612989Y-103557757D01*
X142682147Y-103547813D01*
X142745703Y-103576838D01*
X142764815Y-103597662D01*
X142895483Y-103777510D01*
X143062490Y-103944517D01*
X143253567Y-104083343D01*
X143352991Y-104134002D01*
X143464003Y-104190566D01*
X143464005Y-104190566D01*
X143464008Y-104190568D01*
X143584412Y-104229689D01*
X143688631Y-104263553D01*
X143921903Y-104300500D01*
X143921908Y-104300500D01*
X144158097Y-104300500D01*
X144391368Y-104263553D01*
X144615992Y-104190568D01*
X144826433Y-104083343D01*
X145017510Y-103944517D01*
X145184517Y-103777510D01*
X145323343Y-103586433D01*
X145430568Y-103375992D01*
X145503553Y-103151368D01*
X145514347Y-103083217D01*
X145540500Y-102918097D01*
X145540500Y-102688256D01*
X146689500Y-102688256D01*
X146689501Y-102688259D01*
X146730425Y-102840987D01*
X146752405Y-102879057D01*
X146809481Y-102977916D01*
X146809483Y-102977919D01*
X146928351Y-103096787D01*
X146928357Y-103096792D01*
X150605425Y-106773860D01*
X150638910Y-106835183D01*
X150639361Y-106837349D01*
X150670261Y-106992691D01*
X150670264Y-106992701D01*
X150730602Y-107138372D01*
X150730609Y-107138385D01*
X150818210Y-107269488D01*
X150818213Y-107269492D01*
X150929707Y-107380986D01*
X150929711Y-107380989D01*
X151060814Y-107468590D01*
X151060827Y-107468597D01*
X151137849Y-107500500D01*
X151206503Y-107528937D01*
X151340833Y-107555657D01*
X151361153Y-107559699D01*
X151361156Y-107559700D01*
X151361158Y-107559700D01*
X151518844Y-107559700D01*
X151518845Y-107559699D01*
X151673497Y-107528937D01*
X151816420Y-107469737D01*
X151819172Y-107468597D01*
X151819172Y-107468596D01*
X151819179Y-107468594D01*
X151950289Y-107380989D01*
X152061789Y-107269489D01*
X152149394Y-107138379D01*
X152209737Y-106992697D01*
X152240500Y-106838042D01*
X152240500Y-106680358D01*
X152240500Y-106680355D01*
X152240499Y-106680353D01*
X152209738Y-106525710D01*
X152209737Y-106525703D01*
X152185214Y-106466498D01*
X152149397Y-106380027D01*
X152149390Y-106380014D01*
X152061789Y-106248911D01*
X152061786Y-106248907D01*
X151950292Y-106137413D01*
X151950288Y-106137410D01*
X151819185Y-106049809D01*
X151819172Y-106049802D01*
X151673501Y-105989464D01*
X151673491Y-105989461D01*
X151518149Y-105958561D01*
X151456238Y-105926176D01*
X151454660Y-105924625D01*
X147926821Y-102396786D01*
X147912117Y-102369858D01*
X147895525Y-102344040D01*
X147894633Y-102337839D01*
X147893336Y-102335463D01*
X147890502Y-102309105D01*
X147890502Y-102250096D01*
X147910187Y-102183057D01*
X147926821Y-102162415D01*
X148086902Y-102002334D01*
X148304665Y-101784571D01*
X148365984Y-101751089D01*
X148368151Y-101750638D01*
X148368840Y-101750501D01*
X148368842Y-101750501D01*
X148523497Y-101719738D01*
X148669179Y-101659395D01*
X148800289Y-101571790D01*
X148911789Y-101460290D01*
X148999394Y-101329180D01*
X149059737Y-101183498D01*
X149090500Y-101028843D01*
X149090500Y-100871159D01*
X149090500Y-100871156D01*
X149090499Y-100871154D01*
X149060165Y-100718658D01*
X149059737Y-100716504D01*
X149042641Y-100675231D01*
X148999397Y-100570828D01*
X148999390Y-100570815D01*
X148911789Y-100439712D01*
X148911786Y-100439708D01*
X148800292Y-100328214D01*
X148800288Y-100328211D01*
X148669185Y-100240610D01*
X148669172Y-100240603D01*
X148523501Y-100180265D01*
X148523489Y-100180262D01*
X148368845Y-100149501D01*
X148368842Y-100149501D01*
X148211158Y-100149501D01*
X148211155Y-100149501D01*
X148056510Y-100180262D01*
X148056498Y-100180265D01*
X147910827Y-100240603D01*
X147910814Y-100240610D01*
X147779711Y-100328211D01*
X147779707Y-100328214D01*
X147668213Y-100439708D01*
X147668210Y-100439712D01*
X147580609Y-100570815D01*
X147580602Y-100570828D01*
X147520264Y-100716499D01*
X147520261Y-100716509D01*
X147489362Y-100871849D01*
X147456977Y-100933760D01*
X147455426Y-100935338D01*
X146921288Y-101469477D01*
X146809483Y-101581281D01*
X146809481Y-101581284D01*
X146784422Y-101624688D01*
X146764385Y-101659395D01*
X146759363Y-101668093D01*
X146759361Y-101668095D01*
X146730427Y-101718208D01*
X146730426Y-101718209D01*
X146721737Y-101750638D01*
X146689501Y-101870942D01*
X146689501Y-102029056D01*
X146689501Y-102029058D01*
X146689502Y-102039052D01*
X146689502Y-102522532D01*
X146689501Y-102522550D01*
X146689501Y-102688256D01*
X146689500Y-102688256D01*
X145540500Y-102688256D01*
X145540500Y-102681902D01*
X145503553Y-102448631D01*
X145458218Y-102309105D01*
X145430568Y-102224008D01*
X145430566Y-102224005D01*
X145430566Y-102224003D01*
X145336328Y-102039052D01*
X145323343Y-102013567D01*
X145184517Y-101822490D01*
X145017510Y-101655483D01*
X144826433Y-101516657D01*
X144736543Y-101470856D01*
X144615994Y-101409433D01*
X144615993Y-101409432D01*
X144615992Y-101409432D01*
X144391368Y-101336447D01*
X144391365Y-101336446D01*
X144353112Y-101330387D01*
X144289978Y-101300456D01*
X144284831Y-101295595D01*
X143851415Y-100862179D01*
X143817930Y-100800856D01*
X143822914Y-100731164D01*
X143864786Y-100675231D01*
X143930250Y-100650814D01*
X143939096Y-100650498D01*
X144789903Y-100650498D01*
X144819343Y-100659142D01*
X144849330Y-100665666D01*
X144854345Y-100669420D01*
X144856942Y-100670183D01*
X144877584Y-100686817D01*
X144953181Y-100762414D01*
X144986666Y-100823737D01*
X144989500Y-100850095D01*
X144989500Y-100876346D01*
X145020261Y-101030989D01*
X145020264Y-101031001D01*
X145080602Y-101176672D01*
X145080609Y-101176685D01*
X145168210Y-101307788D01*
X145168213Y-101307792D01*
X145279707Y-101419286D01*
X145279711Y-101419289D01*
X145410814Y-101506890D01*
X145410827Y-101506897D01*
X145516096Y-101550500D01*
X145556503Y-101567237D01*
X145672654Y-101590341D01*
X145711153Y-101597999D01*
X145711156Y-101598000D01*
X145711158Y-101598000D01*
X145868844Y-101598000D01*
X145868845Y-101597999D01*
X146023497Y-101567237D01*
X146169179Y-101506894D01*
X146300289Y-101419289D01*
X146411789Y-101307789D01*
X146499394Y-101176679D01*
X146559737Y-101030997D01*
X146590500Y-100876342D01*
X146590500Y-100718658D01*
X146590500Y-100718655D01*
X146590499Y-100718653D01*
X146576942Y-100650498D01*
X146559737Y-100564003D01*
X146559735Y-100563998D01*
X146499397Y-100418327D01*
X146499390Y-100418314D01*
X146411398Y-100286625D01*
X146390520Y-100219947D01*
X146390500Y-100217734D01*
X146390500Y-99557336D01*
X146410185Y-99490297D01*
X146426819Y-99469655D01*
X147259655Y-98636819D01*
X147320978Y-98603334D01*
X147347336Y-98600500D01*
X151260234Y-98600500D01*
X151327273Y-98620185D01*
X151329125Y-98621398D01*
X151460814Y-98709390D01*
X151460827Y-98709397D01*
X151551637Y-98747011D01*
X151606503Y-98769737D01*
X151671147Y-98782595D01*
X151761849Y-98800638D01*
X151823760Y-98833023D01*
X151825339Y-98834574D01*
X152903181Y-99912416D01*
X152936666Y-99973739D01*
X152939500Y-100000097D01*
X152939500Y-101820234D01*
X152919815Y-101887273D01*
X152918602Y-101889125D01*
X152830609Y-102020814D01*
X152830602Y-102020827D01*
X152770264Y-102166498D01*
X152770261Y-102166510D01*
X152739500Y-102321153D01*
X152739500Y-102478846D01*
X152770261Y-102633489D01*
X152770264Y-102633501D01*
X152830602Y-102779172D01*
X152830609Y-102779185D01*
X152918210Y-102910288D01*
X152918213Y-102910292D01*
X153029707Y-103021786D01*
X153029711Y-103021789D01*
X153160814Y-103109390D01*
X153160827Y-103109397D01*
X153306498Y-103169735D01*
X153306503Y-103169737D01*
X153461153Y-103200499D01*
X153461156Y-103200500D01*
X153461158Y-103200500D01*
X153618844Y-103200500D01*
X153618845Y-103200499D01*
X153773497Y-103169737D01*
X153919179Y-103109394D01*
X154050289Y-103021789D01*
X154161789Y-102910289D01*
X154249394Y-102779179D01*
X154309737Y-102633497D01*
X154340500Y-102478842D01*
X154340500Y-102321158D01*
X154340500Y-102321155D01*
X154340499Y-102321153D01*
X154326365Y-102250096D01*
X154309737Y-102166503D01*
X154308044Y-102162415D01*
X154249397Y-102020827D01*
X154249390Y-102020814D01*
X154161398Y-101889125D01*
X154140520Y-101822447D01*
X154140500Y-101820234D01*
X154140500Y-99620945D01*
X154140499Y-99620941D01*
X154140246Y-99619998D01*
X154126710Y-99569478D01*
X154099577Y-99468215D01*
X154065616Y-99409394D01*
X154020520Y-99331284D01*
X153908716Y-99219480D01*
X153908715Y-99219479D01*
X153904385Y-99215149D01*
X153904374Y-99215139D01*
X152674574Y-97985339D01*
X152641089Y-97924016D01*
X152640638Y-97921849D01*
X152609738Y-97766510D01*
X152609737Y-97766503D01*
X152572248Y-97675996D01*
X152549397Y-97620827D01*
X152549390Y-97620814D01*
X152461789Y-97489711D01*
X152461786Y-97489707D01*
X152350292Y-97378213D01*
X152350288Y-97378210D01*
X152219185Y-97290609D01*
X152219172Y-97290602D01*
X152073501Y-97230264D01*
X152073489Y-97230261D01*
X151918845Y-97199500D01*
X151918842Y-97199500D01*
X151761158Y-97199500D01*
X151761155Y-97199500D01*
X151606510Y-97230261D01*
X151606498Y-97230264D01*
X151460827Y-97290602D01*
X151460814Y-97290609D01*
X151329125Y-97378602D01*
X151262447Y-97399480D01*
X151260234Y-97399500D01*
X146968180Y-97399500D01*
X146933316Y-97408841D01*
X146933317Y-97408842D01*
X146815453Y-97440423D01*
X146815448Y-97440426D01*
X146678529Y-97519475D01*
X146678521Y-97519481D01*
X145309479Y-98888523D01*
X145288800Y-98924341D01*
X145280060Y-98939481D01*
X145261891Y-98970950D01*
X145230422Y-99025454D01*
X145219287Y-99067010D01*
X145182921Y-99126670D01*
X145120073Y-99157198D01*
X145050698Y-99148901D01*
X145011832Y-99122595D01*
X144947592Y-99058355D01*
X144947590Y-99058352D01*
X144828718Y-98939480D01*
X144828716Y-98939479D01*
X144740457Y-98888523D01*
X144691787Y-98860423D01*
X144539059Y-98819499D01*
X144380945Y-98819499D01*
X144373349Y-98819499D01*
X144373333Y-98819500D01*
X144350951Y-98819500D01*
X144283912Y-98799815D01*
X144238157Y-98747011D01*
X144228213Y-98677853D01*
X144257238Y-98614297D01*
X144316016Y-98576523D01*
X144331553Y-98573027D01*
X144391368Y-98563553D01*
X144615992Y-98490568D01*
X144826433Y-98383343D01*
X145017510Y-98244517D01*
X145184517Y-98077510D01*
X145323343Y-97886433D01*
X145430568Y-97675992D01*
X145503553Y-97451368D01*
X145505287Y-97440423D01*
X145540500Y-97218097D01*
X145540500Y-96981902D01*
X145503553Y-96748631D01*
X145430566Y-96524003D01*
X145323342Y-96313566D01*
X145184517Y-96122490D01*
X145017510Y-95955483D01*
X144826433Y-95816657D01*
X144781970Y-95794002D01*
X144615996Y-95709433D01*
X144391368Y-95636446D01*
X144158097Y-95599500D01*
X144158092Y-95599500D01*
X143921908Y-95599500D01*
X143921903Y-95599500D01*
X143688631Y-95636446D01*
X143464003Y-95709433D01*
X143253566Y-95816657D01*
X143144550Y-95895862D01*
X143062490Y-95955483D01*
X143062488Y-95955485D01*
X143062487Y-95955485D01*
X142895485Y-96122487D01*
X142895485Y-96122488D01*
X142895483Y-96122490D01*
X142817773Y-96229448D01*
X142764818Y-96302334D01*
X142709488Y-96344999D01*
X142639874Y-96350978D01*
X142578079Y-96318372D01*
X142543722Y-96257533D01*
X142540500Y-96229448D01*
X142540500Y-88722658D01*
X143170893Y-88722658D01*
X143253828Y-88782914D01*
X143464197Y-88890102D01*
X143688752Y-88963065D01*
X143688751Y-88963065D01*
X143921948Y-89000000D01*
X144158052Y-89000000D01*
X144391247Y-88963065D01*
X144615802Y-88890102D01*
X144826163Y-88782918D01*
X144826169Y-88782914D01*
X144909104Y-88722658D01*
X144909105Y-88722658D01*
X144040000Y-87853554D01*
X143170893Y-88722658D01*
X142540500Y-88722658D01*
X142540500Y-88369700D01*
X142560185Y-88302661D01*
X142612989Y-88256906D01*
X142682147Y-88246962D01*
X142745703Y-88275987D01*
X142764818Y-88296815D01*
X142817339Y-88369104D01*
X142817340Y-88369105D01*
X143686446Y-87500000D01*
X142817340Y-86630894D01*
X142817339Y-86630894D01*
X142764818Y-86703185D01*
X142709489Y-86745851D01*
X142639875Y-86751830D01*
X142578080Y-86719225D01*
X142543723Y-86658386D01*
X142540500Y-86630300D01*
X142540500Y-86277340D01*
X143170894Y-86277340D01*
X144040000Y-87146446D01*
X144040001Y-87146446D01*
X144909105Y-86277340D01*
X144909104Y-86277338D01*
X144826174Y-86217087D01*
X144615802Y-86109897D01*
X144391247Y-86036934D01*
X144391248Y-86036934D01*
X144158052Y-86000000D01*
X143921948Y-86000000D01*
X143688752Y-86036934D01*
X143464197Y-86109897D01*
X143253830Y-86217084D01*
X143170894Y-86277340D01*
X142540500Y-86277340D01*
X142540500Y-79324000D01*
X142560185Y-79256961D01*
X142612989Y-79211206D01*
X142664500Y-79200000D01*
X162415500Y-79200000D01*
X162482539Y-79219685D01*
G37*
%TD.AperFunction*%
%TD*%
M02*
