%TF.GenerationSoftware,KiCad,Pcbnew,9.0.2+1*%
%TF.CreationDate,2025-07-26T18:39:14+01:00*%
%TF.ProjectId,ORGNET,4f52474e-4554-42e6-9b69-6361645f7063,1*%
%TF.SameCoordinates,Original*%
%TF.FileFunction,Soldermask,Top*%
%TF.FilePolarity,Negative*%
%FSLAX46Y46*%
G04 Gerber Fmt 4.6, Leading zero omitted, Abs format (unit mm)*
G04 Created by KiCad (PCBNEW 9.0.2+1) date 2025-07-26 18:39:14*
%MOMM*%
%LPD*%
G01*
G04 APERTURE LIST*
G04 Aperture macros list*
%AMRoundRect*
0 Rectangle with rounded corners*
0 $1 Rounding radius*
0 $2 $3 $4 $5 $6 $7 $8 $9 X,Y pos of 4 corners*
0 Add a 4 corners polygon primitive as box body*
4,1,4,$2,$3,$4,$5,$6,$7,$8,$9,$2,$3,0*
0 Add four circle primitives for the rounded corners*
1,1,$1+$1,$2,$3*
1,1,$1+$1,$4,$5*
1,1,$1+$1,$6,$7*
1,1,$1+$1,$8,$9*
0 Add four rect primitives between the rounded corners*
20,1,$1+$1,$2,$3,$4,$5,0*
20,1,$1+$1,$4,$5,$6,$7,0*
20,1,$1+$1,$6,$7,$8,$9,0*
20,1,$1+$1,$8,$9,$2,$3,0*%
G04 Aperture macros list end*
%ADD10RoundRect,0.155000X-0.212500X-0.155000X0.212500X-0.155000X0.212500X0.155000X-0.212500X0.155000X0*%
%ADD11RoundRect,0.160000X0.197500X0.160000X-0.197500X0.160000X-0.197500X-0.160000X0.197500X-0.160000X0*%
%ADD12RoundRect,0.160000X-0.160000X0.197500X-0.160000X-0.197500X0.160000X-0.197500X0.160000X0.197500X0*%
%ADD13RoundRect,0.250000X0.650000X-0.350000X0.650000X0.350000X-0.650000X0.350000X-0.650000X-0.350000X0*%
%ADD14RoundRect,0.150000X0.625000X-0.150000X0.625000X0.150000X-0.625000X0.150000X-0.625000X-0.150000X0*%
%ADD15R,3.400000X3.400000*%
%ADD16RoundRect,0.050000X0.350000X-0.050000X0.350000X0.050000X-0.350000X0.050000X-0.350000X-0.050000X0*%
%ADD17RoundRect,0.050000X0.050000X-0.350000X0.050000X0.350000X-0.050000X0.350000X-0.050000X-0.350000X0*%
%ADD18R,4.300000X3.400000*%
%ADD19RoundRect,0.125000X0.125000X-0.250000X0.125000X0.250000X-0.125000X0.250000X-0.125000X-0.250000X0*%
%ADD20RoundRect,0.100000X-0.100000X0.637500X-0.100000X-0.637500X0.100000X-0.637500X0.100000X0.637500X0*%
%ADD21RoundRect,0.150000X0.150000X-0.512500X0.150000X0.512500X-0.150000X0.512500X-0.150000X-0.512500X0*%
%ADD22R,1.700000X1.700000*%
%ADD23C,1.700000*%
%ADD24R,2.000000X1.000000*%
%ADD25R,1.000000X2.000000*%
%ADD26RoundRect,0.250000X-0.350000X0.450000X-0.350000X-0.450000X0.350000X-0.450000X0.350000X0.450000X0*%
%ADD27RoundRect,0.160000X-0.197500X-0.160000X0.197500X-0.160000X0.197500X0.160000X-0.197500X0.160000X0*%
%ADD28RoundRect,0.160000X0.160000X-0.197500X0.160000X0.197500X-0.160000X0.197500X-0.160000X-0.197500X0*%
%ADD29RoundRect,0.155000X0.212500X0.155000X-0.212500X0.155000X-0.212500X-0.155000X0.212500X-0.155000X0*%
%ADD30RoundRect,0.155000X0.155000X-0.212500X0.155000X0.212500X-0.155000X0.212500X-0.155000X-0.212500X0*%
%ADD31RoundRect,0.155000X-0.155000X0.212500X-0.155000X-0.212500X0.155000X-0.212500X0.155000X0.212500X0*%
G04 APERTURE END LIST*
D10*
%TO.C,C19*%
X161710000Y-93100000D03*
X160575000Y-93100000D03*
%TD*%
D11*
%TO.C,R2*%
X152590000Y-100690000D03*
X153785000Y-100690000D03*
%TD*%
D12*
%TO.C,R6*%
X145790000Y-100797500D03*
X145790000Y-99602500D03*
%TD*%
D13*
%TO.C,J3*%
X143365000Y-80200000D03*
X143365000Y-84800000D03*
D14*
X145890000Y-81500000D03*
X145890000Y-82500000D03*
X145890000Y-83500000D03*
%TD*%
D15*
%TO.C,U4*%
X152610000Y-95530000D03*
D16*
X149160000Y-98330000D03*
X149160000Y-97930000D03*
X149160000Y-97530000D03*
X149160000Y-97130000D03*
X149160000Y-96730000D03*
X149160000Y-96330000D03*
X149160000Y-95930000D03*
X149160000Y-95530000D03*
X149160000Y-95130000D03*
X149160000Y-94730000D03*
X149160000Y-94330000D03*
X149160000Y-93930000D03*
X149160000Y-93530000D03*
X149160000Y-93130000D03*
X149160000Y-92730000D03*
D17*
X149810000Y-92080000D03*
X150210000Y-92080000D03*
X150610000Y-92080000D03*
X151010000Y-92080000D03*
X151410000Y-92080000D03*
X151810000Y-92080000D03*
X152210000Y-92080000D03*
X152610000Y-92080000D03*
X153010000Y-92080000D03*
X153410000Y-92080000D03*
X153810000Y-92080000D03*
X154210000Y-92080000D03*
X154610000Y-92080000D03*
X155010000Y-92080000D03*
X155410000Y-92080000D03*
D16*
X156060000Y-92730000D03*
X156060000Y-93130000D03*
X156060000Y-93530000D03*
X156060000Y-93930000D03*
X156060000Y-94330000D03*
X156060000Y-94730000D03*
X156060000Y-95130000D03*
X156060000Y-95530000D03*
X156060000Y-95930000D03*
X156060000Y-96330000D03*
X156060000Y-96730000D03*
X156060000Y-97130000D03*
X156060000Y-97530000D03*
X156060000Y-97930000D03*
X156060000Y-98330000D03*
D17*
X155410000Y-98980000D03*
X155010000Y-98980000D03*
X154610000Y-98980000D03*
X154210000Y-98980000D03*
X153810000Y-98980000D03*
X153410000Y-98980000D03*
X153010000Y-98980000D03*
X152610000Y-98980000D03*
X152210000Y-98980000D03*
X151810000Y-98980000D03*
X151410000Y-98980000D03*
X151010000Y-98980000D03*
X150610000Y-98980000D03*
X150210000Y-98980000D03*
X149810000Y-98980000D03*
%TD*%
D18*
%TO.C,U5*%
X144966250Y-94630000D03*
D19*
X143061250Y-91930000D03*
X144331250Y-91930000D03*
X145601250Y-91930000D03*
X146871250Y-91930000D03*
X146871250Y-97330000D03*
X145601250Y-97330000D03*
X144331250Y-97330000D03*
X143061250Y-97330000D03*
%TD*%
D20*
%TO.C,U2*%
X162190000Y-102400000D03*
X161540000Y-102400000D03*
X160890000Y-102400000D03*
X160240000Y-102400000D03*
X159590000Y-102400000D03*
X158940000Y-102400000D03*
X158290000Y-102400000D03*
X157640000Y-102400000D03*
X156990000Y-102400000D03*
X156340000Y-102400000D03*
X155690000Y-102400000D03*
X155040000Y-102400000D03*
X155040000Y-108125000D03*
X155690000Y-108125000D03*
X156340000Y-108125000D03*
X156990000Y-108125000D03*
X157640000Y-108125000D03*
X158290000Y-108125000D03*
X158940000Y-108125000D03*
X159590000Y-108125000D03*
X160240000Y-108125000D03*
X160890000Y-108125000D03*
X161540000Y-108125000D03*
X162190000Y-108125000D03*
%TD*%
D21*
%TO.C,U3*%
X143040000Y-104495000D03*
X143990000Y-104495000D03*
X144940000Y-104495000D03*
X144940000Y-102220000D03*
X143040000Y-102220000D03*
%TD*%
D22*
%TO.C,J1*%
X161540000Y-111200000D03*
D23*
X161540000Y-113740000D03*
X159000000Y-111200000D03*
X159000000Y-113740000D03*
X156460000Y-111200000D03*
X156460000Y-113740000D03*
X153920000Y-111200000D03*
X153920000Y-113740000D03*
X151380000Y-111200000D03*
X151380000Y-113740000D03*
X148840000Y-111200000D03*
X148840000Y-113740000D03*
X146300000Y-111200000D03*
X146300000Y-113740000D03*
X143760000Y-111200000D03*
X143760000Y-113740000D03*
%TD*%
D24*
%TO.C,U6*%
X148040000Y-79500000D03*
X148040000Y-81000000D03*
X148040000Y-82500000D03*
X148040000Y-84000000D03*
X148040000Y-85500000D03*
X148040000Y-87000000D03*
X148040000Y-88500000D03*
D25*
X150290000Y-89800000D03*
X151790000Y-89800000D03*
X153290000Y-89800000D03*
X154790000Y-89800000D03*
X156290000Y-89800000D03*
X157790000Y-89800000D03*
X159290000Y-89800000D03*
D24*
X161540000Y-88500000D03*
X161540000Y-87000000D03*
X161540000Y-85500000D03*
X161540000Y-84000000D03*
X161540000Y-82500000D03*
X161540000Y-81000000D03*
X161540000Y-79500000D03*
%TD*%
D20*
%TO.C,U1*%
X153540000Y-102400000D03*
X152890000Y-102400000D03*
X152240000Y-102400000D03*
X151590000Y-102400000D03*
X150940000Y-102400000D03*
X150290000Y-102400000D03*
X149640000Y-102400000D03*
X148990000Y-102400000D03*
X148340000Y-102400000D03*
X147690000Y-102400000D03*
X147040000Y-102400000D03*
X146390000Y-102400000D03*
X146390000Y-108125000D03*
X147040000Y-108125000D03*
X147690000Y-108125000D03*
X148340000Y-108125000D03*
X148990000Y-108125000D03*
X149640000Y-108125000D03*
X150290000Y-108125000D03*
X150940000Y-108125000D03*
X151590000Y-108125000D03*
X152240000Y-108125000D03*
X152890000Y-108125000D03*
X153540000Y-108125000D03*
%TD*%
D26*
%TO.C,Y1*%
X159840000Y-94700000D03*
X159840000Y-96900000D03*
X161540000Y-96900000D03*
X161540000Y-94700000D03*
%TD*%
D27*
%TO.C,R8*%
X157042500Y-91510000D03*
X158237500Y-91510000D03*
%TD*%
D28*
%TO.C,R7*%
X146240000Y-87695000D03*
X146240000Y-86500000D03*
%TD*%
D27*
%TO.C,R5*%
X142925000Y-98700000D03*
X144120000Y-98700000D03*
%TD*%
D11*
%TO.C,R4*%
X161735000Y-92010000D03*
X160540000Y-92010000D03*
%TD*%
%TO.C,R3*%
X162130000Y-100750000D03*
X160935000Y-100750000D03*
%TD*%
D29*
%TO.C,C18*%
X162110000Y-98770000D03*
X160975000Y-98770000D03*
%TD*%
D10*
%TO.C,C17*%
X143140000Y-90700000D03*
X144275000Y-90700000D03*
%TD*%
%TO.C,C16*%
X143132500Y-89700000D03*
X144267500Y-89700000D03*
%TD*%
%TO.C,C15*%
X160582500Y-90840000D03*
X161717500Y-90840000D03*
%TD*%
D30*
%TO.C,C14*%
X159380000Y-93045000D03*
X159380000Y-91910000D03*
%TD*%
D31*
%TO.C,C13*%
X158330000Y-92630000D03*
X158330000Y-93765000D03*
%TD*%
%TO.C,C12*%
X157260000Y-92640000D03*
X157260000Y-93775000D03*
%TD*%
D10*
%TO.C,C11*%
X158750000Y-99410000D03*
X159885000Y-99410000D03*
%TD*%
%TO.C,C10*%
X158750000Y-98430000D03*
X159885000Y-98430000D03*
%TD*%
%TO.C,C8*%
X142955000Y-100710000D03*
X144090000Y-100710000D03*
%TD*%
D29*
%TO.C,C7*%
X144090000Y-99700000D03*
X142955000Y-99700000D03*
%TD*%
%TO.C,C6*%
X144180000Y-106930000D03*
X143045000Y-106930000D03*
%TD*%
%TO.C,C5*%
X144180000Y-105950000D03*
X143045000Y-105950000D03*
%TD*%
D10*
%TO.C,C4*%
X160975000Y-99750000D03*
X162110000Y-99750000D03*
%TD*%
%TO.C,C3*%
X143045000Y-108900000D03*
X144180000Y-108900000D03*
%TD*%
%TO.C,C2*%
X143045000Y-107910000D03*
X144180000Y-107910000D03*
%TD*%
D31*
%TO.C,C1*%
X145290000Y-106200000D03*
X145290000Y-107335000D03*
%TD*%
D11*
%TO.C,R1*%
X148235000Y-100700000D03*
X147040000Y-100700000D03*
%TD*%
D10*
%TO.C,C9*%
X147040000Y-99700000D03*
X148175000Y-99700000D03*
%TD*%
M02*
