%TF.GenerationSoftware,KiCad,Pcbnew,9.0.2+1*%
%TF.CreationDate,2025-07-26T18:39:14+01:00*%
%TF.ProjectId,ORGNET,4f52474e-4554-42e6-9b69-6361645f7063,1*%
%TF.SameCoordinates,Original*%
%TF.FileFunction,Copper,L1,Top*%
%TF.FilePolarity,Positive*%
%FSLAX46Y46*%
G04 Gerber Fmt 4.6, Leading zero omitted, Abs format (unit mm)*
G04 Created by KiCad (PCBNEW 9.0.2+1) date 2025-07-26 18:39:14*
%MOMM*%
%LPD*%
G01*
G04 APERTURE LIST*
G04 Aperture macros list*
%AMRoundRect*
0 Rectangle with rounded corners*
0 $1 Rounding radius*
0 $2 $3 $4 $5 $6 $7 $8 $9 X,Y pos of 4 corners*
0 Add a 4 corners polygon primitive as box body*
4,1,4,$2,$3,$4,$5,$6,$7,$8,$9,$2,$3,0*
0 Add four circle primitives for the rounded corners*
1,1,$1+$1,$2,$3*
1,1,$1+$1,$4,$5*
1,1,$1+$1,$6,$7*
1,1,$1+$1,$8,$9*
0 Add four rect primitives between the rounded corners*
20,1,$1+$1,$2,$3,$4,$5,0*
20,1,$1+$1,$4,$5,$6,$7,0*
20,1,$1+$1,$6,$7,$8,$9,0*
20,1,$1+$1,$8,$9,$2,$3,0*%
G04 Aperture macros list end*
%TA.AperFunction,SMDPad,CuDef*%
%ADD10RoundRect,0.155000X-0.212500X-0.155000X0.212500X-0.155000X0.212500X0.155000X-0.212500X0.155000X0*%
%TD*%
%TA.AperFunction,SMDPad,CuDef*%
%ADD11RoundRect,0.160000X0.197500X0.160000X-0.197500X0.160000X-0.197500X-0.160000X0.197500X-0.160000X0*%
%TD*%
%TA.AperFunction,SMDPad,CuDef*%
%ADD12RoundRect,0.160000X-0.160000X0.197500X-0.160000X-0.197500X0.160000X-0.197500X0.160000X0.197500X0*%
%TD*%
%TA.AperFunction,SMDPad,CuDef*%
%ADD13RoundRect,0.250000X0.650000X-0.350000X0.650000X0.350000X-0.650000X0.350000X-0.650000X-0.350000X0*%
%TD*%
%TA.AperFunction,SMDPad,CuDef*%
%ADD14RoundRect,0.150000X0.625000X-0.150000X0.625000X0.150000X-0.625000X0.150000X-0.625000X-0.150000X0*%
%TD*%
%TA.AperFunction,HeatsinkPad*%
%ADD15R,3.400000X3.400000*%
%TD*%
%TA.AperFunction,SMDPad,CuDef*%
%ADD16RoundRect,0.050000X0.350000X-0.050000X0.350000X0.050000X-0.350000X0.050000X-0.350000X-0.050000X0*%
%TD*%
%TA.AperFunction,SMDPad,CuDef*%
%ADD17RoundRect,0.050000X0.050000X-0.350000X0.050000X0.350000X-0.050000X0.350000X-0.050000X-0.350000X0*%
%TD*%
%TA.AperFunction,HeatsinkPad*%
%ADD18R,4.300000X3.400000*%
%TD*%
%TA.AperFunction,SMDPad,CuDef*%
%ADD19RoundRect,0.125000X0.125000X-0.250000X0.125000X0.250000X-0.125000X0.250000X-0.125000X-0.250000X0*%
%TD*%
%TA.AperFunction,SMDPad,CuDef*%
%ADD20RoundRect,0.100000X-0.100000X0.637500X-0.100000X-0.637500X0.100000X-0.637500X0.100000X0.637500X0*%
%TD*%
%TA.AperFunction,SMDPad,CuDef*%
%ADD21RoundRect,0.150000X0.150000X-0.512500X0.150000X0.512500X-0.150000X0.512500X-0.150000X-0.512500X0*%
%TD*%
%TA.AperFunction,ComponentPad*%
%ADD22R,1.700000X1.700000*%
%TD*%
%TA.AperFunction,ComponentPad*%
%ADD23C,1.700000*%
%TD*%
%TA.AperFunction,SMDPad,CuDef*%
%ADD24R,2.000000X1.000000*%
%TD*%
%TA.AperFunction,SMDPad,CuDef*%
%ADD25R,1.000000X2.000000*%
%TD*%
%TA.AperFunction,SMDPad,CuDef*%
%ADD26RoundRect,0.250000X-0.350000X0.450000X-0.350000X-0.450000X0.350000X-0.450000X0.350000X0.450000X0*%
%TD*%
%TA.AperFunction,SMDPad,CuDef*%
%ADD27RoundRect,0.160000X-0.197500X-0.160000X0.197500X-0.160000X0.197500X0.160000X-0.197500X0.160000X0*%
%TD*%
%TA.AperFunction,SMDPad,CuDef*%
%ADD28RoundRect,0.160000X0.160000X-0.197500X0.160000X0.197500X-0.160000X0.197500X-0.160000X-0.197500X0*%
%TD*%
%TA.AperFunction,SMDPad,CuDef*%
%ADD29RoundRect,0.155000X0.212500X0.155000X-0.212500X0.155000X-0.212500X-0.155000X0.212500X-0.155000X0*%
%TD*%
%TA.AperFunction,SMDPad,CuDef*%
%ADD30RoundRect,0.155000X0.155000X-0.212500X0.155000X0.212500X-0.155000X0.212500X-0.155000X-0.212500X0*%
%TD*%
%TA.AperFunction,SMDPad,CuDef*%
%ADD31RoundRect,0.155000X-0.155000X0.212500X-0.155000X-0.212500X0.155000X-0.212500X0.155000X0.212500X0*%
%TD*%
%TA.AperFunction,ViaPad*%
%ADD32C,0.600000*%
%TD*%
%TA.AperFunction,Conductor*%
%ADD33C,0.200000*%
%TD*%
G04 APERTURE END LIST*
D10*
%TO.P,C19,2*%
%TO.N,Net-(U4-XOUT)*%
X161710000Y-93100000D03*
%TO.P,C19,1*%
%TO.N,GND*%
X160575000Y-93100000D03*
%TD*%
D11*
%TO.P,R2,2*%
%TO.N,GND*%
X152590000Y-100690000D03*
%TO.P,R2,1*%
%TO.N,DIR*%
X153785000Y-100690000D03*
%TD*%
D12*
%TO.P,R6,2*%
%TO.N,+3V3*%
X145790000Y-100797500D03*
%TO.P,R6,1*%
%TO.N,Net-(U4-~{QSPI_CS})*%
X145790000Y-99602500D03*
%TD*%
D13*
%TO.P,J3,MP*%
%TO.N,N/C*%
X143365000Y-80200000D03*
X143365000Y-84800000D03*
D14*
%TO.P,J3,3,Pin_3*%
%TO.N,DBG_SWDIO*%
X145890000Y-81500000D03*
%TO.P,J3,2,Pin_2*%
%TO.N,GND*%
X145890000Y-82500000D03*
%TO.P,J3,1,Pin_1*%
%TO.N,DBG_SWCLK*%
X145890000Y-83500000D03*
%TD*%
D15*
%TO.P,U4,61,GND*%
%TO.N,GND*%
X152610000Y-95530000D03*
D16*
%TO.P,U4,60,~{QSPI_CS}*%
%TO.N,Net-(U4-~{QSPI_CS})*%
X149160000Y-98330000D03*
%TO.P,U4,59,QSPI_SD1*%
%TO.N,Net-(U4-QSPI_SD1)*%
X149160000Y-97930000D03*
%TO.P,U4,58,QSPI_SD2*%
%TO.N,Net-(U4-QSPI_SD2)*%
X149160000Y-97530000D03*
%TO.P,U4,57,QSPI_SD0*%
%TO.N,Net-(U4-QSPI_SD0)*%
X149160000Y-97130000D03*
%TO.P,U4,56,QSPI_SCLK*%
%TO.N,Net-(U4-QSPI_SCLK)*%
X149160000Y-96730000D03*
%TO.P,U4,55,QSPI_SD3*%
%TO.N,Net-(U4-QSPI_SD3)*%
X149160000Y-96330000D03*
%TO.P,U4,54,IOVDD*%
%TO.N,+3V3*%
X149160000Y-95930000D03*
%TO.P,U4,53,IOVDD*%
X149160000Y-95530000D03*
%TO.P,U4,52,USB_D+*%
%TO.N,unconnected-(U4-USB_D+-Pad52)*%
X149160000Y-95130000D03*
%TO.P,U4,51,USB_D-*%
%TO.N,unconnected-(U4-USB_D--Pad51)*%
X149160000Y-94730000D03*
%TO.P,U4,50,VREG_FB*%
%TO.N,unconnected-(U4-VREG_FB-Pad50)*%
X149160000Y-94330000D03*
%TO.P,U4,49,VREG_VIN*%
%TO.N,+3V3*%
X149160000Y-93930000D03*
%TO.P,U4,48,VREG_LX*%
%TO.N,unconnected-(U4-VREG_LX-Pad48)*%
X149160000Y-93530000D03*
%TO.P,U4,47,GND*%
%TO.N,GND*%
X149160000Y-93130000D03*
%TO.P,U4,46,VREG_AVDD*%
%TO.N,+3V3*%
X149160000Y-92730000D03*
D17*
%TO.P,U4,45,IOVDD*%
X149810000Y-92080000D03*
%TO.P,U4,44,IOVDD*%
X150210000Y-92080000D03*
%TO.P,U4,43,GPIO29*%
%TO.N,RM_SCLK*%
X150610000Y-92080000D03*
%TO.P,U4,42,GPIO28*%
%TO.N,unconnected-(U4-GPIO28-Pad42)*%
X151010000Y-92080000D03*
%TO.P,U4,41,GPIO27*%
%TO.N,unconnected-(U4-GPIO27-Pad41)*%
X151410000Y-92080000D03*
%TO.P,U4,40,GPIO26*%
%TO.N,unconnected-(U4-GPIO26-Pad40)*%
X151810000Y-92080000D03*
%TO.P,U4,39,DVDD*%
%TO.N,+3V3*%
X152210000Y-92080000D03*
%TO.P,U4,38,IOVDD*%
X152610000Y-92080000D03*
%TO.P,U4,37,GPIO25*%
%TO.N,RM_CS*%
X153010000Y-92080000D03*
%TO.P,U4,36,GPIO24*%
%TO.N,RM_DATA*%
X153410000Y-92080000D03*
%TO.P,U4,35,GPIO23*%
%TO.N,RM_ON*%
X153810000Y-92080000D03*
%TO.P,U4,34,GPIO22*%
%TO.N,unconnected-(U4-GPIO22-Pad34)*%
X154210000Y-92080000D03*
%TO.P,U4,33,GPIO21*%
%TO.N,unconnected-(U4-GPIO21-Pad33)*%
X154610000Y-92080000D03*
%TO.P,U4,32,GPIO20*%
%TO.N,unconnected-(U4-GPIO20-Pad32)*%
X155010000Y-92080000D03*
%TO.P,U4,31,GPIO19*%
%TO.N,unconnected-(U4-GPIO19-Pad31)*%
X155410000Y-92080000D03*
D16*
%TO.P,U4,30,IOVDD*%
%TO.N,+3V3*%
X156060000Y-92730000D03*
%TO.P,U4,29,GPIO18*%
%TO.N,unconnected-(U4-GPIO18-Pad29)*%
X156060000Y-93130000D03*
%TO.P,U4,28,GPIO17*%
%TO.N,unconnected-(U4-GPIO17-Pad28)*%
X156060000Y-93530000D03*
%TO.P,U4,27,GPIO16*%
%TO.N,unconnected-(U4-GPIO16-Pad27)*%
X156060000Y-93930000D03*
%TO.P,U4,26,RUN*%
%TO.N,Net-(U4-RUN)*%
X156060000Y-94330000D03*
%TO.P,U4,25,SWDIO*%
%TO.N,DBG_SWDIO*%
X156060000Y-94730000D03*
%TO.P,U4,24,SWCLK*%
%TO.N,DBG_SWCLK*%
X156060000Y-95130000D03*
%TO.P,U4,23,DVDD*%
%TO.N,+3V3*%
X156060000Y-95530000D03*
%TO.P,U4,22,XOUT*%
%TO.N,Net-(U4-XOUT)*%
X156060000Y-95930000D03*
%TO.P,U4,21,XIN*%
%TO.N,Net-(U4-XIN)*%
X156060000Y-96330000D03*
%TO.P,U4,20,IOVDD*%
%TO.N,+3V3*%
X156060000Y-96730000D03*
%TO.P,U4,19,GPIO15*%
%TO.N,RP_SD0*%
X156060000Y-97130000D03*
%TO.P,U4,18,GPIO14*%
%TO.N,RP_SD1*%
X156060000Y-97530000D03*
%TO.P,U4,17,GPIO13*%
%TO.N,RP_SD2*%
X156060000Y-97930000D03*
%TO.P,U4,16,GPIO12*%
%TO.N,RP_SD3*%
X156060000Y-98330000D03*
D17*
%TO.P,U4,15,GPIO11*%
%TO.N,RP_SD4*%
X155410000Y-98980000D03*
%TO.P,U4,14,GPIO10*%
%TO.N,RP_SD5*%
X155010000Y-98980000D03*
%TO.P,U4,13,GPIO9*%
%TO.N,RP_SD6*%
X154610000Y-98980000D03*
%TO.P,U4,12,GPIO8*%
%TO.N,RP_SD7*%
X154210000Y-98980000D03*
%TO.P,U4,11,IOVDD*%
%TO.N,+3V3*%
X153810000Y-98980000D03*
%TO.P,U4,10,GPIO7*%
%TO.N,DIR*%
X153410000Y-98980000D03*
%TO.P,U4,9,GPIO6*%
%TO.N,unconnected-(U4-GPIO6-Pad9)*%
X153010000Y-98980000D03*
%TO.P,U4,8,GPIO5*%
%TO.N,unconnected-(U4-GPIO5-Pad8)*%
X152610000Y-98980000D03*
%TO.P,U4,7,GPIO4*%
%TO.N,RP_SCLK*%
X152210000Y-98980000D03*
%TO.P,U4,6,DVDD*%
%TO.N,+3V3*%
X151810000Y-98980000D03*
%TO.P,U4,5,GPIO3*%
%TO.N,RP_SMR*%
X151410000Y-98980000D03*
%TO.P,U4,4,GPIO2*%
%TO.N,~{RP_SS}*%
X151010000Y-98980000D03*
%TO.P,U4,3,GPIO1*%
%TO.N,~{RP_SOE}*%
X150610000Y-98980000D03*
%TO.P,U4,2,GPIO0*%
%TO.N,~{RP_SPGM}*%
X150210000Y-98980000D03*
%TO.P,U4,1,IOVDD*%
%TO.N,+3V3*%
X149810000Y-98980000D03*
%TD*%
D18*
%TO.P,U5,9*%
%TO.N,N/C*%
X144966250Y-94630000D03*
D19*
%TO.P,U5,8,VCC*%
%TO.N,+3V3*%
X143061250Y-91930000D03*
%TO.P,U5,7,IO3*%
%TO.N,Net-(U4-QSPI_SD3)*%
X144331250Y-91930000D03*
%TO.P,U5,6,CLK*%
%TO.N,Net-(U4-QSPI_SCLK)*%
X145601250Y-91930000D03*
%TO.P,U5,5,DI(IO0)*%
%TO.N,Net-(U4-QSPI_SD0)*%
X146871250Y-91930000D03*
%TO.P,U5,4,GND*%
%TO.N,GND*%
X146871250Y-97330000D03*
%TO.P,U5,3,IO2*%
%TO.N,Net-(U4-QSPI_SD2)*%
X145601250Y-97330000D03*
%TO.P,U5,2,DO(IO1)*%
%TO.N,Net-(U4-QSPI_SD1)*%
X144331250Y-97330000D03*
%TO.P,U5,1,~{CS}*%
%TO.N,Net-(U4-~{QSPI_CS})*%
X143061250Y-97330000D03*
%TD*%
D20*
%TO.P,U2,1,V_{CCA}*%
%TO.N,+3V3*%
X162190000Y-102400000D03*
%TO.P,U2,2,DIR*%
%TO.N,DIR*%
X161540000Y-102400000D03*
%TO.P,U2,3,A1*%
%TO.N,RP_SD0*%
X160890000Y-102400000D03*
%TO.P,U2,4,A2*%
%TO.N,RP_SD1*%
X160240000Y-102400000D03*
%TO.P,U2,5,A3*%
%TO.N,RP_SD2*%
X159590000Y-102400000D03*
%TO.P,U2,6,A4*%
%TO.N,RP_SD3*%
X158940000Y-102400000D03*
%TO.P,U2,7,A5*%
%TO.N,RP_SD4*%
X158290000Y-102400000D03*
%TO.P,U2,8,A6*%
%TO.N,RP_SD5*%
X157640000Y-102400000D03*
%TO.P,U2,9,A7*%
%TO.N,RP_SD6*%
X156990000Y-102400000D03*
%TO.P,U2,10,A8*%
%TO.N,RP_SD7*%
X156340000Y-102400000D03*
%TO.P,U2,11,GND*%
%TO.N,GND*%
X155690000Y-102400000D03*
%TO.P,U2,12,GND*%
X155040000Y-102400000D03*
%TO.P,U2,13,GND*%
X155040000Y-108125000D03*
%TO.P,U2,14,B8*%
%TO.N,SD7*%
X155690000Y-108125000D03*
%TO.P,U2,15,B7*%
%TO.N,SD6*%
X156340000Y-108125000D03*
%TO.P,U2,16,B6*%
%TO.N,SD5*%
X156990000Y-108125000D03*
%TO.P,U2,17,B5*%
%TO.N,SD4*%
X157640000Y-108125000D03*
%TO.P,U2,18,B4*%
%TO.N,SD3*%
X158290000Y-108125000D03*
%TO.P,U2,19,B3*%
%TO.N,SD2*%
X158940000Y-108125000D03*
%TO.P,U2,20,B2*%
%TO.N,SD1*%
X159590000Y-108125000D03*
%TO.P,U2,21,B1*%
%TO.N,SD0*%
X160240000Y-108125000D03*
%TO.P,U2,22,~{OE}*%
%TO.N,~{OE}*%
X160890000Y-108125000D03*
%TO.P,U2,23,V_{CCB}*%
%TO.N,SVCC*%
X161540000Y-108125000D03*
%TO.P,U2,24,V_{CCB}*%
X162190000Y-108125000D03*
%TD*%
D21*
%TO.P,U3,1,VIN*%
%TO.N,SVCC*%
X143040000Y-104495000D03*
%TO.P,U3,2,GND*%
%TO.N,GND*%
X143990000Y-104495000D03*
%TO.P,U3,3,EN*%
%TO.N,SVCC*%
X144940000Y-104495000D03*
%TO.P,U3,4,NC*%
%TO.N,unconnected-(U3-NC-Pad4)*%
X144940000Y-102220000D03*
%TO.P,U3,5,VOUT*%
%TO.N,+3V3*%
X143040000Y-102220000D03*
%TD*%
D22*
%TO.P,J1,1,Pin_1*%
%TO.N,SD1*%
X161540000Y-111200000D03*
D23*
%TO.P,J1,2,Pin_2*%
%TO.N,SD0*%
X161540000Y-113740000D03*
%TO.P,J1,3,Pin_3*%
%TO.N,SD3*%
X159000000Y-111200000D03*
%TO.P,J1,4,Pin_4*%
%TO.N,SD2*%
X159000000Y-113740000D03*
%TO.P,J1,5,Pin_5*%
%TO.N,SD5*%
X156460000Y-111200000D03*
%TO.P,J1,6,Pin_6*%
%TO.N,SD4*%
X156460000Y-113740000D03*
%TO.P,J1,7,Pin_7*%
%TO.N,SD7*%
X153920000Y-111200000D03*
%TO.P,J1,8,Pin_8*%
%TO.N,SD6*%
X153920000Y-113740000D03*
%TO.P,J1,9,Pin_9*%
%TO.N,SMR*%
X151380000Y-111200000D03*
%TO.P,J1,10,Pin_10*%
%TO.N,SCLK*%
X151380000Y-113740000D03*
%TO.P,J1,11,Pin_11*%
%TO.N,~{SOE}*%
X148840000Y-111200000D03*
%TO.P,J1,12,Pin_12*%
%TO.N,~{SS}*%
X148840000Y-113740000D03*
%TO.P,J1,13,Pin_13*%
%TO.N,GND*%
X146300000Y-111200000D03*
%TO.P,J1,14,Pin_14*%
%TO.N,~{SPGM}*%
X146300000Y-113740000D03*
%TO.P,J1,15,Pin_15*%
%TO.N,SVCC*%
X143760000Y-111200000D03*
%TO.P,J1,16,Pin_16*%
%TO.N,unconnected-(J1-Pin_16-Pad16)*%
X143760000Y-113740000D03*
%TD*%
D24*
%TO.P,U6,1,GND*%
%TO.N,GND*%
X148040000Y-79500000D03*
%TO.P,U6,2,NC*%
%TO.N,unconnected-(U6-NC-Pad2)*%
X148040000Y-81000000D03*
%TO.P,U6,3,SCLK*%
%TO.N,RM_SCLK*%
X148040000Y-82500000D03*
%TO.P,U6,4,GND*%
%TO.N,GND*%
X148040000Y-84000000D03*
%TO.P,U6,5,DI*%
%TO.N,RM_DATA*%
X148040000Y-85500000D03*
%TO.P,U6,6,DO*%
%TO.N,Net-(U6-DO)*%
X148040000Y-87000000D03*
%TO.P,U6,7,GND*%
%TO.N,GND*%
X148040000Y-88500000D03*
D25*
%TO.P,U6,8,GPIO0*%
%TO.N,unconnected-(U6-GPIO0-Pad8)*%
X150290000Y-89800000D03*
%TO.P,U6,9,CS*%
%TO.N,RM_CS*%
X151790000Y-89800000D03*
%TO.P,U6,10,nIRQ*%
%TO.N,Net-(U6-nIRQ)*%
X153290000Y-89800000D03*
%TO.P,U6,11,GND*%
%TO.N,GND*%
X154790000Y-89800000D03*
%TO.P,U6,12,WL_ON*%
%TO.N,RM_ON*%
X156290000Y-89800000D03*
%TO.P,U6,13,BT_ON*%
X157790000Y-89800000D03*
%TO.P,U6,14,VDDIO*%
%TO.N,+3V3*%
X159290000Y-89800000D03*
D24*
%TO.P,U6,15,GND*%
%TO.N,GND*%
X161540000Y-88500000D03*
%TO.P,U6,16,VIN*%
%TO.N,+3V3*%
X161540000Y-87000000D03*
%TO.P,U6,17,GPIO2*%
%TO.N,unconnected-(U6-GPIO2-Pad17)*%
X161540000Y-85500000D03*
%TO.P,U6,18,GPIO1*%
%TO.N,unconnected-(U6-GPIO1-Pad18)*%
X161540000Y-84000000D03*
%TO.P,U6,19,NC*%
%TO.N,unconnected-(U6-NC-Pad19)*%
X161540000Y-82500000D03*
%TO.P,U6,20,NC*%
%TO.N,unconnected-(U6-NC-Pad20)*%
X161540000Y-81000000D03*
%TO.P,U6,21,GND*%
%TO.N,GND*%
X161540000Y-79500000D03*
%TD*%
D20*
%TO.P,U1,1,V_{CCA}*%
%TO.N,+3V3*%
X153540000Y-102400000D03*
%TO.P,U1,2,DIR*%
%TO.N,GND*%
X152890000Y-102400000D03*
%TO.P,U1,3,A1*%
%TO.N,RP_SCLK*%
X152240000Y-102400000D03*
%TO.P,U1,4,A2*%
%TO.N,RP_SMR*%
X151590000Y-102400000D03*
%TO.P,U1,5,A3*%
%TO.N,~{RP_SS}*%
X150940000Y-102400000D03*
%TO.P,U1,6,A4*%
%TO.N,~{RP_SOE}*%
X150290000Y-102400000D03*
%TO.P,U1,7,A5*%
%TO.N,~{RP_SPGM}*%
X149640000Y-102400000D03*
%TO.P,U1,8,A6*%
%TO.N,unconnected-(U1-A6-Pad8)*%
X148990000Y-102400000D03*
%TO.P,U1,9,A7*%
%TO.N,unconnected-(U1-A7-Pad9)*%
X148340000Y-102400000D03*
%TO.P,U1,10,A8*%
%TO.N,unconnected-(U1-A8-Pad10)*%
X147690000Y-102400000D03*
%TO.P,U1,11,GND*%
%TO.N,GND*%
X147040000Y-102400000D03*
%TO.P,U1,12,GND*%
X146390000Y-102400000D03*
%TO.P,U1,13,GND*%
X146390000Y-108125000D03*
%TO.P,U1,14,B8*%
X147040000Y-108125000D03*
%TO.P,U1,15,B7*%
X147690000Y-108125000D03*
%TO.P,U1,16,B6*%
X148340000Y-108125000D03*
%TO.P,U1,17,B5*%
%TO.N,~{SPGM}*%
X148990000Y-108125000D03*
%TO.P,U1,18,B4*%
%TO.N,~{SOE}*%
X149640000Y-108125000D03*
%TO.P,U1,19,B3*%
%TO.N,~{SS}*%
X150290000Y-108125000D03*
%TO.P,U1,20,B2*%
%TO.N,SMR*%
X150940000Y-108125000D03*
%TO.P,U1,21,B1*%
%TO.N,SCLK*%
X151590000Y-108125000D03*
%TO.P,U1,22,~{OE}*%
%TO.N,~{OE}*%
X152240000Y-108125000D03*
%TO.P,U1,23,V_{CCB}*%
%TO.N,SVCC*%
X152890000Y-108125000D03*
%TO.P,U1,24,V_{CCB}*%
X153540000Y-108125000D03*
%TD*%
D26*
%TO.P,Y1,1,1*%
%TO.N,GND*%
X159840000Y-94700000D03*
%TO.P,Y1,2,2*%
%TO.N,Net-(U4-XIN)*%
X159840000Y-96900000D03*
%TO.P,Y1,3,3*%
%TO.N,GND*%
X161540000Y-96900000D03*
%TO.P,Y1,4,4*%
%TO.N,Net-(U4-XOUT)*%
X161540000Y-94700000D03*
%TD*%
D27*
%TO.P,R8,1*%
%TO.N,RM_DATA*%
X157042500Y-91510000D03*
%TO.P,R8,2*%
%TO.N,Net-(U6-nIRQ)*%
X158237500Y-91510000D03*
%TD*%
D28*
%TO.P,R7,1*%
%TO.N,Net-(U6-DO)*%
X146240000Y-87695000D03*
%TO.P,R7,2*%
%TO.N,RM_DATA*%
X146240000Y-86500000D03*
%TD*%
D27*
%TO.P,R5,1*%
%TO.N,+3V3*%
X142925000Y-98700000D03*
%TO.P,R5,2*%
%TO.N,Net-(U4-~{QSPI_CS})*%
X144120000Y-98700000D03*
%TD*%
D11*
%TO.P,R4,1*%
%TO.N,+3V3*%
X161735000Y-92010000D03*
%TO.P,R4,2*%
%TO.N,Net-(U4-RUN)*%
X160540000Y-92010000D03*
%TD*%
%TO.P,R3,1*%
%TO.N,~{OE}*%
X162130000Y-100750000D03*
%TO.P,R3,2*%
%TO.N,+3V3*%
X160935000Y-100750000D03*
%TD*%
D29*
%TO.P,C18,1*%
%TO.N,GND*%
X162110000Y-98770000D03*
%TO.P,C18,2*%
%TO.N,Net-(U4-XIN)*%
X160975000Y-98770000D03*
%TD*%
D10*
%TO.P,C17,1*%
%TO.N,GND*%
X143140000Y-90700000D03*
%TO.P,C17,2*%
%TO.N,+3V3*%
X144275000Y-90700000D03*
%TD*%
%TO.P,C16,1*%
%TO.N,GND*%
X143132500Y-89700000D03*
%TO.P,C16,2*%
%TO.N,+3V3*%
X144267500Y-89700000D03*
%TD*%
%TO.P,C15,1*%
%TO.N,GND*%
X160582500Y-90840000D03*
%TO.P,C15,2*%
%TO.N,+3V3*%
X161717500Y-90840000D03*
%TD*%
D30*
%TO.P,C14,1*%
%TO.N,GND*%
X159380000Y-93045000D03*
%TO.P,C14,2*%
%TO.N,+3V3*%
X159380000Y-91910000D03*
%TD*%
D31*
%TO.P,C13,1*%
%TO.N,GND*%
X158330000Y-92630000D03*
%TO.P,C13,2*%
%TO.N,+3V3*%
X158330000Y-93765000D03*
%TD*%
%TO.P,C12,1*%
%TO.N,GND*%
X157260000Y-92640000D03*
%TO.P,C12,2*%
%TO.N,+3V3*%
X157260000Y-93775000D03*
%TD*%
D10*
%TO.P,C11,1*%
%TO.N,GND*%
X158750000Y-99410000D03*
%TO.P,C11,2*%
%TO.N,+3V3*%
X159885000Y-99410000D03*
%TD*%
%TO.P,C10,1*%
%TO.N,GND*%
X158750000Y-98430000D03*
%TO.P,C10,2*%
%TO.N,+3V3*%
X159885000Y-98430000D03*
%TD*%
%TO.P,C8,1*%
%TO.N,+3V3*%
X142955000Y-100710000D03*
%TO.P,C8,2*%
%TO.N,GND*%
X144090000Y-100710000D03*
%TD*%
D29*
%TO.P,C7,1*%
%TO.N,SVCC*%
X144090000Y-99700000D03*
%TO.P,C7,2*%
%TO.N,GND*%
X142955000Y-99700000D03*
%TD*%
%TO.P,C6,1*%
%TO.N,GND*%
X144180000Y-106930000D03*
%TO.P,C6,2*%
%TO.N,SVCC*%
X143045000Y-106930000D03*
%TD*%
%TO.P,C5,1*%
%TO.N,GND*%
X144180000Y-105950000D03*
%TO.P,C5,2*%
%TO.N,SVCC*%
X143045000Y-105950000D03*
%TD*%
D10*
%TO.P,C4,1*%
%TO.N,+3V3*%
X160975000Y-99750000D03*
%TO.P,C4,2*%
%TO.N,GND*%
X162110000Y-99750000D03*
%TD*%
%TO.P,C3,1*%
%TO.N,GND*%
X143045000Y-108900000D03*
%TO.P,C3,2*%
%TO.N,SVCC*%
X144180000Y-108900000D03*
%TD*%
%TO.P,C2,1*%
%TO.N,GND*%
X143045000Y-107910000D03*
%TO.P,C2,2*%
%TO.N,SVCC*%
X144180000Y-107910000D03*
%TD*%
D31*
%TO.P,C1,1*%
%TO.N,+3V3*%
X145290000Y-106200000D03*
%TO.P,C1,2*%
%TO.N,GND*%
X145290000Y-107335000D03*
%TD*%
D11*
%TO.P,R1,1*%
%TO.N,~{OE}*%
X148235000Y-100700000D03*
%TO.P,R1,2*%
%TO.N,+3V3*%
X147040000Y-100700000D03*
%TD*%
D10*
%TO.P,C9,1*%
%TO.N,GND*%
X147040000Y-99700000D03*
%TO.P,C9,2*%
%TO.N,+3V3*%
X148175000Y-99700000D03*
%TD*%
D32*
%TO.N,+3V3*%
X157143591Y-93658591D03*
%TO.N,Net-(U4-RUN)*%
X157210000Y-94740000D03*
X160540000Y-92010000D03*
%TO.N,+3V3*%
X145790000Y-100797500D03*
X150140000Y-94212226D03*
X142955000Y-100710000D03*
X146440000Y-90303000D03*
X159290000Y-89800000D03*
X142840000Y-98700000D03*
X151900000Y-93329998D03*
X153540000Y-102400000D03*
X151840000Y-98000000D03*
%TO.N,SVCC*%
X143045000Y-106930000D03*
%TO.N,GND*%
X148040000Y-79500000D03*
X146390000Y-102400000D03*
X146390000Y-108125000D03*
X146871250Y-97330000D03*
X143975000Y-100699998D03*
X143040000Y-108900000D03*
X151475000Y-96625000D03*
X155040000Y-102400000D03*
X143990000Y-104495000D03*
X151475000Y-95525000D03*
X145990000Y-82500000D03*
X153750000Y-94650000D03*
X161540000Y-79500000D03*
X161540000Y-96900000D03*
X143140000Y-90700002D03*
X152610000Y-94655000D03*
X158825000Y-98430000D03*
X147155000Y-99699998D03*
X154790000Y-89800000D03*
X159840000Y-94700000D03*
X153750000Y-96625000D03*
X152610000Y-96630000D03*
X151475000Y-94650000D03*
X153750000Y-95525000D03*
X155040000Y-108125000D03*
X148040000Y-84000000D03*
X148040000Y-88500000D03*
X161540000Y-88500000D03*
X152610000Y-95530000D03*
%TO.N,Net-(U4-~{QSPI_CS})*%
X143061250Y-97330000D03*
%TO.N,RM_DATA*%
X155040000Y-93000000D03*
X149840000Y-85600000D03*
X156940000Y-91500000D03*
%TO.N,Net-(U6-nIRQ)*%
X153290000Y-89800000D03*
X158237500Y-91510000D03*
%TO.N,SD0*%
X161040000Y-109600000D03*
%TO.N,~{OE}*%
X162190000Y-100750000D03*
X148290000Y-100950001D03*
X151440000Y-106759200D03*
X159340000Y-106700000D03*
%TO.N,DBG_SWCLK*%
X145990000Y-83500000D03*
X154915735Y-95024265D03*
%TO.N,DBG_SWDIO*%
X152943910Y-93156090D03*
X146040000Y-81500000D03*
%TD*%
D33*
%TO.N,+3V3*%
X157143591Y-93658591D02*
X158223591Y-93658591D01*
X158223591Y-93658591D02*
X158330000Y-93765000D01*
%TO.N,Net-(U6-DO)*%
X148040000Y-87000000D02*
X147060000Y-87000000D01*
X147060000Y-87000000D02*
X146365000Y-87695000D01*
X146365000Y-87695000D02*
X146240000Y-87695000D01*
%TO.N,+3V3*%
X161200000Y-100752630D02*
X161200000Y-100810000D01*
X161200000Y-100810000D02*
X162190000Y-101800000D01*
X162190000Y-101800000D02*
X162190000Y-102400000D01*
X142955000Y-100710000D02*
X142955000Y-100814999D01*
X142955000Y-100814999D02*
X143040000Y-100899999D01*
X143040000Y-100899999D02*
X143040000Y-102425000D01*
%TO.N,GND*%
X143000000Y-99900000D02*
X143220000Y-99900000D01*
X143220000Y-99900000D02*
X143975000Y-100655000D01*
X143975000Y-100655000D02*
X143975000Y-100699998D01*
%TO.N,SVCC*%
X143975000Y-99700000D02*
X144400000Y-99700000D01*
X144400000Y-99700000D02*
X144870000Y-100170000D01*
X144870000Y-100170000D02*
X144870000Y-101060000D01*
X144870000Y-101060000D02*
X144623500Y-101306500D01*
X144623500Y-101306500D02*
X144619744Y-101306500D01*
X144619744Y-101306500D02*
X144389000Y-101537244D01*
X144389000Y-101537244D02*
X144389000Y-101541000D01*
X144389000Y-101541000D02*
X144383500Y-101546500D01*
X144383500Y-101546500D02*
X144383500Y-103002032D01*
%TO.N,Net-(U4-~{QSPI_CS})*%
X143061250Y-97330000D02*
X143061250Y-97756250D01*
X143061250Y-97756250D02*
X144186000Y-98881000D01*
X144186000Y-98881000D02*
X144921000Y-98881000D01*
%TO.N,+3V3*%
X157143591Y-93658591D02*
X156711000Y-93226000D01*
X156711000Y-93226000D02*
X156711000Y-92953936D01*
X156711000Y-92953936D02*
X156487064Y-92730000D01*
X156487064Y-92730000D02*
X156060000Y-92730000D01*
X157260000Y-93775000D02*
X157143591Y-93658591D01*
%TO.N,Net-(U4-RUN)*%
X156060000Y-94330000D02*
X156800000Y-94330000D01*
X156800000Y-94330000D02*
X157210000Y-94740000D01*
%TO.N,+3V3*%
X159380000Y-91910000D02*
X159851000Y-91439000D01*
X159851000Y-91439000D02*
X161164000Y-91439000D01*
X161164000Y-91439000D02*
X161735000Y-92010000D01*
X159380000Y-91910000D02*
X159380000Y-89890000D01*
X159380000Y-89890000D02*
X159290000Y-89800000D01*
%TO.N,GND*%
X160540000Y-93100000D02*
X159435000Y-93100000D01*
X159435000Y-93100000D02*
X159380000Y-93045000D01*
X160580000Y-90930000D02*
X160580000Y-89460000D01*
X160580000Y-89460000D02*
X161540000Y-88500000D01*
%TO.N,+3V3*%
X161715000Y-90930000D02*
X161715000Y-91990000D01*
X161715000Y-91990000D02*
X161735000Y-92010000D01*
%TO.N,GND*%
X158330000Y-92630000D02*
X158965000Y-92630000D01*
X158965000Y-92630000D02*
X159380000Y-93045000D01*
X157260000Y-92640000D02*
X158320000Y-92640000D01*
X158320000Y-92640000D02*
X158330000Y-92630000D01*
%TO.N,+3V3*%
X156060000Y-95530000D02*
X157880000Y-95530000D01*
X157880000Y-95530000D02*
X158330000Y-95080000D01*
X158330000Y-95080000D02*
X158330000Y-93765000D01*
X156060000Y-96730000D02*
X157640000Y-96730000D01*
X157640000Y-96730000D02*
X158779000Y-97869000D01*
X158779000Y-97869000D02*
X159399000Y-97869000D01*
X159399000Y-97869000D02*
X159960000Y-98430000D01*
%TO.N,Net-(U4-XIN)*%
X159840000Y-96900000D02*
X159270000Y-96330000D01*
X159270000Y-96330000D02*
X156060000Y-96330000D01*
%TO.N,Net-(U4-XOUT)*%
X159140000Y-95800000D02*
X159010000Y-95930000D01*
X159010000Y-95930000D02*
X156060000Y-95930000D01*
%TO.N,Net-(U4-XIN)*%
X161040000Y-98770000D02*
X161040000Y-98100000D01*
X161040000Y-98100000D02*
X159840000Y-96900000D01*
%TO.N,GND*%
X161540000Y-96900000D02*
X161540000Y-98135000D01*
X161540000Y-98135000D02*
X162175000Y-98770000D01*
X162177500Y-99750000D02*
X162177500Y-98772500D01*
X162177500Y-98772500D02*
X162175000Y-98770000D01*
%TO.N,Net-(U4-XIN)*%
X159840000Y-96900000D02*
X159840000Y-96980000D01*
%TO.N,+3V3*%
X160115000Y-99400000D02*
X160465000Y-99750000D01*
X160465000Y-99750000D02*
X160850000Y-99750000D01*
%TO.N,GND*%
X158825000Y-98430000D02*
X158825000Y-99405000D01*
X158825000Y-99405000D02*
X158820000Y-99410000D01*
%TO.N,RP_SD0*%
X156060000Y-97130000D02*
X156760000Y-97130000D01*
X157580000Y-97340000D02*
X157580000Y-99200000D01*
X160890000Y-101650000D02*
X160890000Y-102400000D01*
X156760000Y-97130000D02*
X156761000Y-97131000D01*
X158380000Y-100000000D02*
X159240000Y-100000000D01*
X156761000Y-97131000D02*
X157371000Y-97131000D01*
X157371000Y-97131000D02*
X157580000Y-97340000D01*
X157580000Y-99200000D02*
X158380000Y-100000000D01*
X159240000Y-100000000D02*
X160890000Y-101650000D01*
%TO.N,RP_SD1*%
X156060000Y-97530000D02*
X156592900Y-97530000D01*
X156592900Y-97530000D02*
X156594900Y-97532000D01*
X156594900Y-97532000D02*
X157121500Y-97532000D01*
X157121500Y-97532000D02*
X157230000Y-97640500D01*
X157230000Y-97640500D02*
X157230000Y-99347075D01*
X157230000Y-99347075D02*
X158241426Y-100358500D01*
X158324326Y-100358500D02*
X158366825Y-100401000D01*
X158241426Y-100358500D02*
X158324326Y-100358500D01*
X158366825Y-100401000D02*
X158978499Y-100401000D01*
X160240000Y-101662501D02*
X160240000Y-102400000D01*
X158978499Y-100401000D02*
X160240000Y-101662501D01*
%TO.N,RP_SD2*%
X156060000Y-97930000D02*
X156758000Y-97930000D01*
X156758000Y-97930000D02*
X156761000Y-97933000D01*
X156870000Y-97936000D02*
X156870000Y-99483464D01*
X156761000Y-97933000D02*
X156873000Y-97933000D01*
X156873000Y-97933000D02*
X156870000Y-97936000D01*
X156870000Y-99483464D02*
X158096037Y-100709500D01*
X158809100Y-100802000D02*
X159590000Y-101582900D01*
X158096037Y-100709500D02*
X158178937Y-100709500D01*
X158178937Y-100709500D02*
X158271437Y-100802000D01*
X158271437Y-100802000D02*
X158809100Y-100802000D01*
X159590000Y-101582900D02*
X159590000Y-102400000D01*
%TO.N,RP_SD3*%
X158940000Y-102400000D02*
X158940000Y-101500000D01*
X158940000Y-101500000D02*
X158643000Y-101203000D01*
X158643000Y-101203000D02*
X158176049Y-101203000D01*
X158176049Y-101203000D02*
X158033548Y-101060500D01*
X156714387Y-99827999D02*
X156060000Y-99173612D01*
X156060000Y-99173612D02*
X156060000Y-98330000D01*
X158033548Y-101060500D02*
X157950648Y-101060500D01*
X157950648Y-101060500D02*
X156718146Y-99827999D01*
X156718146Y-99827999D02*
X156714387Y-99827999D01*
%TO.N,RP_SD4*%
X155410000Y-98980000D02*
X155410000Y-99020000D01*
X157888160Y-101411500D02*
X158290000Y-101813340D01*
X155410000Y-99020000D02*
X156569000Y-100179000D01*
X156569000Y-100179000D02*
X156572758Y-100179000D01*
X156572758Y-100179000D02*
X157805259Y-101411500D01*
X157805259Y-101411500D02*
X157888160Y-101411500D01*
X158290000Y-101813340D02*
X158290000Y-102400000D01*
%TO.N,RP_SD6*%
X154610000Y-98980000D02*
X154610000Y-99973612D01*
X154610000Y-99973612D02*
X155616388Y-100980000D01*
X155616388Y-100980000D02*
X156307499Y-100980000D01*
X156307499Y-100980000D02*
X156990000Y-101662501D01*
X156990000Y-101662501D02*
X156990000Y-102400000D01*
%TO.N,RP_SD7*%
X155480000Y-101340000D02*
X156017499Y-101340000D01*
X156017499Y-101340000D02*
X156340000Y-101662501D01*
X155480000Y-101340000D02*
X154210000Y-100070000D01*
X154210000Y-100070000D02*
X154210000Y-98980000D01*
%TO.N,RP_SCLK*%
X152240000Y-102400000D02*
X152240000Y-101370000D01*
X151970000Y-100150000D02*
X152210000Y-99910000D01*
X152240000Y-101370000D02*
X151970000Y-101100000D01*
X151970000Y-101100000D02*
X151970000Y-100150000D01*
X152210000Y-99910000D02*
X152210000Y-98980000D01*
%TO.N,GND*%
X152890000Y-102400000D02*
X152890000Y-100990000D01*
X152890000Y-100990000D02*
X152590000Y-100690000D01*
X143045000Y-108900000D02*
X143045000Y-107910000D01*
%TO.N,SVCC*%
X143045000Y-105950000D02*
X143045000Y-106930000D01*
X143087370Y-106972370D02*
X143045000Y-106930000D01*
X143045000Y-106930000D02*
X143140256Y-107025256D01*
X143045000Y-106930000D02*
X143075000Y-106900000D01*
X143760000Y-109880000D02*
X143760000Y-111200000D01*
X144175000Y-108035256D02*
X144175000Y-109465000D01*
X143075000Y-106900000D02*
X143200000Y-106900000D01*
X143165000Y-107025256D02*
X144175000Y-108035256D01*
X143140256Y-107025256D02*
X143165000Y-107025256D01*
X143165000Y-106972370D02*
X143087370Y-106972370D01*
X143165000Y-106100000D02*
X143040000Y-105975000D01*
X144175000Y-109465000D02*
X143760000Y-109880000D01*
X143045000Y-106930000D02*
X143165000Y-106810000D01*
X143040000Y-105975000D02*
X143040000Y-104345532D01*
%TO.N,GND*%
X143980000Y-106100000D02*
X143980000Y-106900000D01*
X143990000Y-104495000D02*
X143990000Y-106090000D01*
X143990000Y-106090000D02*
X143980000Y-106100000D01*
%TO.N,SVCC*%
X143040000Y-104495000D02*
X143040000Y-103832501D01*
X144045532Y-103340000D02*
X144383500Y-103002032D01*
X143040000Y-103832501D02*
X143532501Y-103340000D01*
X143532501Y-103340000D02*
X144045532Y-103340000D01*
X144383500Y-103002032D02*
X144940000Y-103558532D01*
X144940000Y-103558532D02*
X144940000Y-104495000D01*
X151840000Y-106000000D02*
X151790000Y-106000000D01*
X161540000Y-107387501D02*
X160152499Y-106000000D01*
X161540000Y-108125000D02*
X161540000Y-107387501D01*
X160152499Y-106000000D02*
X151790000Y-106000000D01*
%TO.N,+3V3*%
X146940000Y-104200000D02*
X145290000Y-105850000D01*
X145290000Y-105850000D02*
X145290000Y-106200000D01*
%TO.N,GND*%
X145290000Y-107335000D02*
X145260000Y-107335000D01*
X145260000Y-107335000D02*
X144825000Y-106900000D01*
%TO.N,+3V3*%
X149810000Y-98980000D02*
X149360000Y-98980000D01*
X149360000Y-98980000D02*
X148640000Y-99700000D01*
X148640000Y-99700000D02*
X148040000Y-99700000D01*
X148040000Y-99700000D02*
X147040000Y-100700000D01*
X147040000Y-100700000D02*
X145887500Y-100700000D01*
X145887500Y-100700000D02*
X145790000Y-100797500D01*
X160117500Y-98500000D02*
X160117500Y-99397500D01*
X155310000Y-95530000D02*
X155040000Y-95800000D01*
X162190000Y-103137499D02*
X161127499Y-104200000D01*
X156060000Y-95530000D02*
X155310000Y-95530000D01*
X149160000Y-95930000D02*
X149655774Y-95930000D01*
X153810000Y-98030000D02*
X153840000Y-98000000D01*
X152440000Y-104200000D02*
X153540000Y-103100000D01*
X150140000Y-94212226D02*
X150140000Y-96412226D01*
X144107500Y-90692500D02*
X144115000Y-90700000D01*
X144107500Y-89800000D02*
X144107500Y-90692500D01*
X146440000Y-90303000D02*
X146343000Y-90400000D01*
X153840000Y-98000000D02*
X153940000Y-98000000D01*
X149160000Y-92120000D02*
X149120000Y-92080000D01*
X155040000Y-95800000D02*
X155040000Y-97100000D01*
X154640000Y-98000000D02*
X155040000Y-97600000D01*
X149120000Y-92080000D02*
X149810000Y-92080000D01*
X159290000Y-87950000D02*
X159290000Y-89800000D01*
X160240000Y-87000000D02*
X159290000Y-87950000D01*
X146940000Y-104200000D02*
X152440000Y-104200000D01*
X149933887Y-96206113D02*
X149656774Y-95929000D01*
X151810000Y-98980000D02*
X151810000Y-98030000D01*
X153810000Y-98980000D02*
X153810000Y-98030000D01*
X153540000Y-103100000D02*
X153540000Y-102400000D01*
X152610000Y-92590000D02*
X152610000Y-92080000D01*
X150640000Y-98000000D02*
X150140000Y-97500000D01*
X146537000Y-90400000D02*
X147456368Y-90400000D01*
X162190000Y-102400000D02*
X162190000Y-103137499D01*
X150140000Y-94212226D02*
X149857774Y-93930000D01*
X143061250Y-91930000D02*
X144115000Y-90876250D01*
X151900000Y-93329998D02*
X151900000Y-93300000D01*
X153940000Y-98000000D02*
X154640000Y-98000000D01*
X153940000Y-98000000D02*
X151840000Y-98000000D01*
X149120000Y-92063632D02*
X149120000Y-92080000D01*
X151900000Y-93300000D02*
X152610000Y-92590000D01*
X155040000Y-97000000D02*
X155310000Y-96730000D01*
X149160000Y-95530000D02*
X149160000Y-95930000D01*
X144115000Y-90876250D02*
X144115000Y-90700000D01*
X161127499Y-104200000D02*
X152440000Y-104200000D01*
X149857774Y-93930000D02*
X149160000Y-93930000D01*
X151840000Y-98000000D02*
X150640000Y-98000000D01*
X153540000Y-102400000D02*
X153540000Y-103137499D01*
X150140000Y-96412226D02*
X149933887Y-96206113D01*
X150140000Y-97500000D02*
X150140000Y-96412226D01*
X149160000Y-92730000D02*
X149160000Y-92120000D01*
X144415000Y-90400000D02*
X144115000Y-90700000D01*
X150210000Y-92080000D02*
X149810000Y-92080000D01*
X149655774Y-95930000D02*
X149656774Y-95929000D01*
X155040000Y-97600000D02*
X155040000Y-97100000D01*
X155040000Y-97100000D02*
X155040000Y-97000000D01*
X146343000Y-90400000D02*
X144415000Y-90400000D01*
X161540000Y-87000000D02*
X160240000Y-87000000D01*
X151810000Y-98030000D02*
X151840000Y-98000000D01*
X147456368Y-90400000D02*
X149120000Y-92063632D01*
X146440000Y-90303000D02*
X146537000Y-90400000D01*
X155310000Y-96730000D02*
X156060000Y-96730000D01*
X152610000Y-92080000D02*
X152210000Y-92080000D01*
%TO.N,SVCC*%
X161540000Y-108125000D02*
X162190000Y-108125000D01*
X144940000Y-104037501D02*
X144940000Y-104700000D01*
X152890000Y-108125000D02*
X152890000Y-107050000D01*
X152890000Y-107550000D02*
X152890000Y-108125000D01*
X152890000Y-108125000D02*
X153540000Y-108125000D01*
X152890000Y-107050000D02*
X151840000Y-106000000D01*
%TO.N,GND*%
X143147502Y-90692500D02*
X143140000Y-90700002D01*
X146300000Y-111200000D02*
X146300000Y-108215000D01*
X143292500Y-90692500D02*
X143147502Y-90692500D01*
X146390000Y-108125000D02*
X148340000Y-108125000D01*
X152890000Y-103137499D02*
X152327499Y-103700000D01*
X160700000Y-93100000D02*
X160700000Y-93840000D01*
X144015000Y-106900000D02*
X144825000Y-106900000D01*
X143300000Y-90700000D02*
X143292500Y-90692500D01*
X160607500Y-93007500D02*
X160700000Y-93100000D01*
X147602501Y-103700000D02*
X147040000Y-103137499D01*
X161515000Y-96925000D02*
X161540000Y-96900000D01*
X150210000Y-93130000D02*
X149160000Y-93130000D01*
X152327499Y-103700000D02*
X147602501Y-103700000D01*
X160700000Y-93840000D02*
X159840000Y-94700000D01*
X146300000Y-108215000D02*
X146390000Y-108125000D01*
X143292500Y-90547502D02*
X143140000Y-90700002D01*
X155690000Y-102400000D02*
X155040000Y-102400000D01*
X152890000Y-102400000D02*
X152890000Y-103137499D01*
X152610000Y-95530000D02*
X150210000Y-93130000D01*
X146390000Y-102400000D02*
X147040000Y-102400000D01*
X147040000Y-103137499D02*
X147040000Y-102400000D01*
X143292500Y-89800000D02*
X143292500Y-90547502D01*
%TO.N,Net-(U4-QSPI_SCLK)*%
X146277250Y-91254000D02*
X147176168Y-91254000D01*
X147176168Y-91254000D02*
X147841250Y-91919082D01*
X148180000Y-96730000D02*
X149160000Y-96730000D01*
X147841250Y-91919082D02*
X147841250Y-96391250D01*
X147841250Y-96391250D02*
X148180000Y-96730000D01*
X145601250Y-91930000D02*
X146277250Y-91254000D01*
%TO.N,Net-(U4-QSPI_SD3)*%
X145408250Y-90853000D02*
X147342268Y-90853000D01*
X148379000Y-96329000D02*
X148661226Y-96329000D01*
X144331250Y-91930000D02*
X145408250Y-90853000D01*
X148242250Y-91752982D02*
X148242250Y-96192250D01*
X149160000Y-96330000D02*
X148662226Y-96330000D01*
X148242250Y-96192250D02*
X148379000Y-96329000D01*
X148662226Y-96330000D02*
X148661226Y-96329000D01*
X147342268Y-90853000D02*
X148242250Y-91752982D01*
%TO.N,Net-(U4-QSPI_SD0)*%
X146871250Y-91930000D02*
X147441250Y-92500000D01*
X147441250Y-92500000D02*
X147441250Y-96591250D01*
X147441250Y-96591250D02*
X147980000Y-97130000D01*
X147980000Y-97130000D02*
X149160000Y-97130000D01*
%TO.N,Net-(U4-QSPI_SD1)*%
X145481250Y-98480000D02*
X144331250Y-97330000D01*
X148591250Y-97930000D02*
X149160000Y-97930000D01*
X148041250Y-98480000D02*
X145481250Y-98480000D01*
X148591250Y-97930000D02*
X148041250Y-98480000D01*
%TO.N,Net-(U4-~{QSPI_CS})*%
X146290000Y-98881000D02*
X148609000Y-98881000D01*
X148609000Y-98881000D02*
X149160000Y-98330000D01*
X145815000Y-99825000D02*
X145815000Y-99500000D01*
X144921000Y-98881000D02*
X143996000Y-98881000D01*
X144921000Y-98881000D02*
X145340000Y-98881000D01*
X145790000Y-99381000D02*
X146290000Y-98881000D01*
X145790000Y-99602500D02*
X145790000Y-99381000D01*
%TO.N,Net-(U4-QSPI_SD2)*%
X148424150Y-97530000D02*
X149160000Y-97530000D01*
X148424150Y-97530000D02*
X147875150Y-98079000D01*
X147875150Y-98079000D02*
X146350250Y-98079000D01*
X146350250Y-98079000D02*
X145601250Y-97330000D01*
%TO.N,RM_DATA*%
X146240000Y-86492500D02*
X147232500Y-85500000D01*
X148040000Y-85500000D02*
X149740000Y-85500000D01*
X149740000Y-85500000D02*
X149840000Y-85600000D01*
X153740000Y-93000000D02*
X153410000Y-92670000D01*
X155040000Y-93000000D02*
X153740000Y-93000000D01*
X153410000Y-92670000D02*
X153410000Y-92080000D01*
X147232500Y-85500000D02*
X148040000Y-85500000D01*
%TO.N,RM_SCLK*%
X150610000Y-91570000D02*
X150240000Y-91200000D01*
X150441000Y-87599000D02*
X150441000Y-84401000D01*
X149588000Y-91200000D02*
X149341000Y-90953000D01*
X148540000Y-82500000D02*
X148040000Y-82500000D01*
X150441000Y-84401000D02*
X148540000Y-82500000D01*
X149341000Y-88699000D02*
X150441000Y-87599000D01*
X150240000Y-91200000D02*
X149588000Y-91200000D01*
X149341000Y-90953000D02*
X149341000Y-88699000D01*
X150610000Y-92080000D02*
X150610000Y-91570000D01*
%TO.N,RM_CS*%
X151790000Y-90300000D02*
X153010000Y-91520000D01*
X153010000Y-91520000D02*
X153010000Y-92080000D01*
X151790000Y-90381000D02*
X151790000Y-89800000D01*
X151790000Y-89800000D02*
X151790000Y-90300000D01*
%TO.N,RM_ON*%
X155390000Y-91200000D02*
X156290000Y-90300000D01*
X157790000Y-89800000D02*
X156290000Y-89800000D01*
X153810000Y-92080000D02*
X153810000Y-91530000D01*
X154140000Y-91200000D02*
X155390000Y-91200000D01*
X153810000Y-91530000D02*
X154140000Y-91200000D01*
X156290000Y-90300000D02*
X156290000Y-89800000D01*
%TO.N,Net-(U6-nIRQ)*%
X153290000Y-89800000D02*
X153290000Y-90300000D01*
%TO.N,Net-(U4-XOUT)*%
X161515000Y-94675000D02*
X161540000Y-94700000D01*
X161515000Y-93100000D02*
X161515000Y-94675000D01*
X159140000Y-95800000D02*
X160440000Y-95800000D01*
X160440000Y-95800000D02*
X161540000Y-94700000D01*
%TO.N,SD5*%
X156460000Y-111200000D02*
X156460000Y-110280000D01*
X156990000Y-109750000D02*
X156990000Y-108125000D01*
X156460000Y-110280000D02*
X156990000Y-109750000D01*
%TO.N,SD3*%
X158940000Y-110300000D02*
X158290000Y-109650000D01*
X158290000Y-109650000D02*
X158290000Y-108125000D01*
X158940000Y-111140000D02*
X158940000Y-110300000D01*
X159000000Y-111200000D02*
X158940000Y-111140000D01*
%TO.N,~{SS}*%
X150290000Y-108125000D02*
X150290000Y-109550000D01*
X150290000Y-109550000D02*
X150140000Y-109700000D01*
X150140000Y-112440000D02*
X148840000Y-113740000D01*
X150140000Y-109700000D02*
X150140000Y-112440000D01*
%TO.N,~{SOE}*%
X148840000Y-111200000D02*
X148840000Y-110700000D01*
X148840000Y-111200000D02*
X148840000Y-110300000D01*
X148840000Y-110300000D02*
X149640000Y-109500000D01*
X149640000Y-109500000D02*
X149640000Y-108125000D01*
%TO.N,SMR*%
X150940000Y-110760000D02*
X150940000Y-108125000D01*
X151380000Y-111200000D02*
X151590000Y-110990000D01*
X151380000Y-111200000D02*
X150940000Y-110760000D01*
%TO.N,SCLK*%
X151590000Y-109550000D02*
X151590000Y-108125000D01*
X152640000Y-112480000D02*
X152640000Y-110600000D01*
X152640000Y-110600000D02*
X151590000Y-109550000D01*
X151380000Y-113740000D02*
X152640000Y-112480000D01*
%TO.N,SD4*%
X157740000Y-112460000D02*
X157740000Y-109900000D01*
X157640000Y-109800000D02*
X157640000Y-108125000D01*
X157740000Y-109900000D02*
X157640000Y-109800000D01*
X156460000Y-113740000D02*
X157740000Y-112460000D01*
%TO.N,SD2*%
X160240000Y-110700000D02*
X158940000Y-109400000D01*
X160240000Y-112500000D02*
X160240000Y-110700000D01*
X158940000Y-109400000D02*
X158940000Y-108526000D01*
X159000000Y-113740000D02*
X158462950Y-113740000D01*
X159000000Y-113740000D02*
X160240000Y-112500000D01*
%TO.N,~{SPGM}*%
X147511654Y-112528346D02*
X147511654Y-110628346D01*
X146300000Y-113740000D02*
X147511654Y-112528346D01*
X147511654Y-110628346D02*
X148990000Y-109150000D01*
X148990000Y-109150000D02*
X148990000Y-108125000D01*
%TO.N,SD7*%
X155690000Y-109430000D02*
X153920000Y-111200000D01*
X155690000Y-108125000D02*
X155690000Y-109430000D01*
%TO.N,SD1*%
X159590000Y-109250000D02*
X159590000Y-108726000D01*
X161540000Y-111200000D02*
X159590000Y-109250000D01*
%TO.N,SD0*%
X160240000Y-108125000D02*
X160240000Y-109200000D01*
X160640000Y-109600000D02*
X161040000Y-109600000D01*
X160240000Y-109200000D02*
X160640000Y-109600000D01*
%TO.N,SD6*%
X155240000Y-110600000D02*
X156340000Y-109500000D01*
X153920000Y-113740000D02*
X155240000Y-112420000D01*
X155240000Y-112420000D02*
X155240000Y-110600000D01*
X156340000Y-109500000D02*
X156340000Y-108125000D01*
%TO.N,~{OE}*%
X160890000Y-107387501D02*
X160890000Y-108125000D01*
X151440000Y-106759200D02*
X151531570Y-106759200D01*
X151531570Y-106759200D02*
X152240000Y-107467630D01*
X152240000Y-107467630D02*
X152240000Y-108125000D01*
X152240000Y-108862499D02*
X152240000Y-108125000D01*
X160202499Y-106700000D02*
X160890000Y-107387501D01*
X152541001Y-109163500D02*
X152240000Y-108862499D01*
X153808870Y-109163500D02*
X152541001Y-109163500D01*
X154041000Y-107816630D02*
X154041000Y-108931370D01*
X159340000Y-106700000D02*
X160202499Y-106700000D01*
X154041000Y-108931370D02*
X153808870Y-109163500D01*
X155157630Y-106700000D02*
X154041000Y-107816630D01*
X159340000Y-106700000D02*
X155157630Y-106700000D01*
%TO.N,DIR*%
X153780000Y-100800000D02*
X154247499Y-101267499D01*
X161540000Y-103200000D02*
X161540000Y-102400000D01*
X153780000Y-100440000D02*
X153780000Y-100800000D01*
X153410000Y-100070000D02*
X153780000Y-100440000D01*
X154740000Y-103700000D02*
X161040000Y-103700000D01*
X153410000Y-98980000D02*
X153410000Y-100070000D01*
X161040000Y-103700000D02*
X161540000Y-103200000D01*
X154247499Y-103207499D02*
X154740000Y-103700000D01*
X154247499Y-101267499D02*
X154247499Y-103207499D01*
%TO.N,DBG_SWCLK*%
X154915735Y-95075735D02*
X154970000Y-95130000D01*
X154915735Y-95024265D02*
X154915735Y-95075735D01*
X154970000Y-95130000D02*
X156060000Y-95130000D01*
%TO.N,DBG_SWDIO*%
X155470000Y-94730000D02*
X156060000Y-94730000D01*
X155040000Y-94300000D02*
X155470000Y-94730000D01*
X155040000Y-93900000D02*
X155040000Y-94300000D01*
X153291470Y-93400000D02*
X154540000Y-93400000D01*
X152943910Y-93156090D02*
X153047560Y-93156090D01*
X154540000Y-93400000D02*
X155040000Y-93900000D01*
X153047560Y-93156090D02*
X153291470Y-93400000D01*
%TO.N,RP_SD4*%
X155410000Y-98880000D02*
X155410000Y-99208000D01*
X155410000Y-99270000D02*
X155410000Y-98980000D01*
%TO.N,~{RP_SOE}*%
X150290000Y-100710000D02*
X150290000Y-102400000D01*
X150610000Y-100390000D02*
X150290000Y-100710000D01*
X150610000Y-98980000D02*
X150610000Y-100390000D01*
X150270000Y-102180000D02*
X150290000Y-102200000D01*
%TO.N,RP_SMR*%
X151410000Y-98980000D02*
X151410000Y-100320000D01*
X151590000Y-100500000D02*
X151590000Y-102400000D01*
X151410000Y-100320000D02*
X151590000Y-100500000D01*
%TO.N,~{RP_SPGM}*%
X150210000Y-98980000D02*
X150210000Y-99790000D01*
X149640000Y-100360000D02*
X149640000Y-102400000D01*
X150210000Y-99790000D02*
X149640000Y-100360000D01*
%TO.N,~{RP_SS}*%
X151010000Y-102330000D02*
X150940000Y-102400000D01*
X151010000Y-98980000D02*
X151010000Y-102330000D01*
%TO.N,unconnected-(U1-A8-Pad10)*%
X147690000Y-101750000D02*
X147690000Y-102400000D01*
%TO.N,SVCC*%
X151790000Y-106000000D02*
X147207630Y-106000000D01*
X147207630Y-106000000D02*
X145851000Y-107356630D01*
X145851000Y-107356630D02*
X145851000Y-107719966D01*
X145851000Y-107719966D02*
X145470966Y-108100000D01*
X145470966Y-108100000D02*
X144370000Y-108100000D01*
X144370000Y-108100000D02*
X144180000Y-107910000D01*
%TO.N,RP_SCLK*%
X152210000Y-102370000D02*
X152240000Y-102400000D01*
%TO.N,RP_SD5*%
X155010000Y-98980000D02*
X155010000Y-99877224D01*
X155010000Y-99877224D02*
X155662776Y-100530000D01*
X155662776Y-100530000D02*
X156427370Y-100530000D01*
X156427370Y-100530000D02*
X157640000Y-101742630D01*
X157640000Y-101742630D02*
X157640000Y-102400000D01*
%TO.N,Net-(U4-~{QSPI_CS})*%
X145340000Y-98881000D02*
X146290000Y-98881000D01*
%TD*%
M02*
