%TF.GenerationSoftware,KiCad,Pcbnew,9.0.2+1*%
%TF.CreationDate,2025-07-26T13:33:14+01:00*%
%TF.ProjectId,ORGNET,4f52474e-4554-42e6-9b69-6361645f7063,1*%
%TF.SameCoordinates,Original*%
%TF.FileFunction,Paste,Top*%
%TF.FilePolarity,Positive*%
%FSLAX46Y46*%
G04 Gerber Fmt 4.6, Leading zero omitted, Abs format (unit mm)*
G04 Created by KiCad (PCBNEW 9.0.2+1) date 2025-07-26 13:33:14*
%MOMM*%
%LPD*%
G01*
G04 APERTURE LIST*
G04 Aperture macros list*
%AMRoundRect*
0 Rectangle with rounded corners*
0 $1 Rounding radius*
0 $2 $3 $4 $5 $6 $7 $8 $9 X,Y pos of 4 corners*
0 Add a 4 corners polygon primitive as box body*
4,1,4,$2,$3,$4,$5,$6,$7,$8,$9,$2,$3,0*
0 Add four circle primitives for the rounded corners*
1,1,$1+$1,$2,$3*
1,1,$1+$1,$4,$5*
1,1,$1+$1,$6,$7*
1,1,$1+$1,$8,$9*
0 Add four rect primitives between the rounded corners*
20,1,$1+$1,$2,$3,$4,$5,0*
20,1,$1+$1,$4,$5,$6,$7,0*
20,1,$1+$1,$6,$7,$8,$9,0*
20,1,$1+$1,$8,$9,$2,$3,0*%
G04 Aperture macros list end*
%ADD10RoundRect,0.090000X-0.139000X-0.090000X0.139000X-0.090000X0.139000X0.090000X-0.139000X0.090000X0*%
%ADD11RoundRect,0.100000X-0.100000X0.637500X-0.100000X-0.637500X0.100000X-0.637500X0.100000X0.637500X0*%
%ADD12RoundRect,0.150000X0.625000X-0.150000X0.625000X0.150000X-0.625000X0.150000X-0.625000X-0.150000X0*%
%ADD13RoundRect,0.250000X0.650000X-0.350000X0.650000X0.350000X-0.650000X0.350000X-0.650000X-0.350000X0*%
%ADD14RoundRect,0.090000X-0.090000X0.139000X-0.090000X-0.139000X0.090000X-0.139000X0.090000X0.139000X0*%
%ADD15RoundRect,0.090000X0.139000X0.090000X-0.139000X0.090000X-0.139000X-0.090000X0.139000X-0.090000X0*%
%ADD16RoundRect,0.250000X0.615000X-0.435000X0.615000X0.435000X-0.615000X0.435000X-0.615000X-0.435000X0*%
%ADD17RoundRect,0.125000X0.125000X-0.250000X0.125000X0.250000X-0.125000X0.250000X-0.125000X-0.250000X0*%
%ADD18RoundRect,0.090000X0.090000X-0.139000X0.090000X0.139000X-0.090000X0.139000X-0.090000X-0.139000X0*%
%ADD19RoundRect,0.150000X0.150000X-0.512500X0.150000X0.512500X-0.150000X0.512500X-0.150000X-0.512500X0*%
%ADD20R,2.000000X1.000000*%
%ADD21R,1.000000X2.000000*%
%ADD22RoundRect,0.250000X-0.350000X0.450000X-0.350000X-0.450000X0.350000X-0.450000X0.350000X0.450000X0*%
%ADD23RoundRect,0.227500X0.227500X-0.227500X0.227500X0.227500X-0.227500X0.227500X-0.227500X-0.227500X0*%
%ADD24RoundRect,0.050000X0.050000X-0.350000X0.050000X0.350000X-0.050000X0.350000X-0.050000X-0.350000X0*%
%ADD25RoundRect,0.050000X0.350000X-0.050000X0.350000X0.050000X-0.350000X0.050000X-0.350000X-0.050000X0*%
G04 APERTURE END LIST*
D10*
%TO.C,C2*%
X143175000Y-108100000D03*
X144040000Y-108100000D03*
%TD*%
%TO.C,C8*%
X142975000Y-101000000D03*
X143840000Y-101000000D03*
%TD*%
D11*
%TO.C,U2*%
X162190000Y-102400000D03*
X161540000Y-102400000D03*
X160890000Y-102400000D03*
X160240000Y-102400000D03*
X159590000Y-102400000D03*
X158940000Y-102400000D03*
X158290000Y-102400000D03*
X157640000Y-102400000D03*
X156990000Y-102400000D03*
X156340000Y-102400000D03*
X155690000Y-102400000D03*
X155040000Y-102400000D03*
X155040000Y-108125000D03*
X155690000Y-108125000D03*
X156340000Y-108125000D03*
X156990000Y-108125000D03*
X157640000Y-108125000D03*
X158290000Y-108125000D03*
X158940000Y-108125000D03*
X159590000Y-108125000D03*
X160240000Y-108125000D03*
X160890000Y-108125000D03*
X161540000Y-108125000D03*
X162190000Y-108125000D03*
%TD*%
D12*
%TO.C,J3*%
X146040000Y-83500000D03*
X146040000Y-82500000D03*
X146040000Y-81500000D03*
D13*
X143515000Y-84800000D03*
X143515000Y-80200000D03*
%TD*%
D14*
%TO.C,R4*%
X158240000Y-92500000D03*
X158240000Y-93365000D03*
%TD*%
D15*
%TO.C,R2*%
X153805000Y-100700000D03*
X152940000Y-100700000D03*
%TD*%
D14*
%TO.C,C13*%
X158240000Y-94400000D03*
X158240000Y-95265000D03*
%TD*%
D10*
%TO.C,C3*%
X143175000Y-108900000D03*
X144040000Y-108900000D03*
%TD*%
D15*
%TO.C,R1*%
X146940000Y-100700000D03*
X146075000Y-100700000D03*
%TD*%
%TO.C,C18*%
X162040000Y-98500000D03*
X161175000Y-98500000D03*
%TD*%
D16*
%TO.C,U5*%
X143891250Y-95480000D03*
X146041250Y-95480000D03*
X143891250Y-93780000D03*
X146041250Y-93780000D03*
D17*
X143061250Y-97330000D03*
X144331250Y-97330000D03*
X145601250Y-97330000D03*
X146871250Y-97330000D03*
X146871250Y-91930000D03*
X145601250Y-91930000D03*
X144331250Y-91930000D03*
X143061250Y-91930000D03*
%TD*%
D18*
%TO.C,R7*%
X146240000Y-87332500D03*
X146240000Y-86467500D03*
%TD*%
D10*
%TO.C,R5*%
X142975000Y-98700000D03*
X143840000Y-98700000D03*
%TD*%
%TO.C,C19*%
X160675000Y-93100000D03*
X161540000Y-93100000D03*
%TD*%
D19*
%TO.C,U3*%
X143040000Y-104700000D03*
X143990000Y-104700000D03*
X144940000Y-104700000D03*
X144940000Y-102425000D03*
X143040000Y-102425000D03*
%TD*%
D14*
%TO.C,C1*%
X144940000Y-106175000D03*
X144940000Y-107040000D03*
%TD*%
D10*
%TO.C,R6*%
X145075000Y-99500000D03*
X145940000Y-99500000D03*
%TD*%
D18*
%TO.C,C15*%
X159340000Y-93032500D03*
X159340000Y-92167500D03*
%TD*%
%TO.C,C14*%
X157340000Y-93365000D03*
X157340000Y-92500000D03*
%TD*%
D15*
%TO.C,C5*%
X144040000Y-106100000D03*
X143175000Y-106100000D03*
%TD*%
D18*
%TO.C,C12*%
X158440000Y-97865000D03*
X158440000Y-97000000D03*
%TD*%
D10*
%TO.C,C17*%
X143275000Y-90700000D03*
X144140000Y-90700000D03*
%TD*%
D20*
%TO.C,U6*%
X148040000Y-79500000D03*
X148040000Y-81000000D03*
X148040000Y-82500000D03*
X148040000Y-84000000D03*
X148040000Y-85500000D03*
X148040000Y-87000000D03*
X148040000Y-88500000D03*
D21*
X150290000Y-89800000D03*
X151790000Y-89800000D03*
X153290000Y-89800000D03*
X154790000Y-89800000D03*
X156290000Y-89800000D03*
X157790000Y-89800000D03*
X159290000Y-89800000D03*
D20*
X161540000Y-88500000D03*
X161540000Y-87000000D03*
X161540000Y-85500000D03*
X161540000Y-84000000D03*
X161540000Y-82500000D03*
X161540000Y-81000000D03*
X161540000Y-79500000D03*
%TD*%
D11*
%TO.C,U1*%
X153540000Y-102400000D03*
X152890000Y-102400000D03*
X152240000Y-102400000D03*
X151590000Y-102400000D03*
X150940000Y-102400000D03*
X150290000Y-102400000D03*
X149640000Y-102400000D03*
X148990000Y-102400000D03*
X148340000Y-102400000D03*
X147690000Y-102400000D03*
X147040000Y-102400000D03*
X146390000Y-102400000D03*
X146390000Y-108125000D03*
X147040000Y-108125000D03*
X147690000Y-108125000D03*
X148340000Y-108125000D03*
X148990000Y-108125000D03*
X149640000Y-108125000D03*
X150290000Y-108125000D03*
X150940000Y-108125000D03*
X151590000Y-108125000D03*
X152240000Y-108125000D03*
X152890000Y-108125000D03*
X153540000Y-108125000D03*
%TD*%
D10*
%TO.C,C11*%
X159275000Y-99400000D03*
X160140000Y-99400000D03*
%TD*%
D15*
%TO.C,C6*%
X144040000Y-106900000D03*
X143175000Y-106900000D03*
%TD*%
%TO.C,R3*%
X162040000Y-100300000D03*
X161175000Y-100300000D03*
%TD*%
D22*
%TO.C,Y1*%
X159840000Y-94700000D03*
X159840000Y-96900000D03*
X161540000Y-96900000D03*
X161540000Y-94700000D03*
%TD*%
D10*
%TO.C,C4*%
X161175000Y-99400000D03*
X162040000Y-99400000D03*
%TD*%
%TO.C,C16*%
X143267500Y-89800000D03*
X144132500Y-89800000D03*
%TD*%
D23*
%TO.C,U4*%
X151480000Y-96660000D03*
X152610000Y-96660000D03*
X153740000Y-96660000D03*
X151480000Y-95530000D03*
X152610000Y-95530000D03*
X153740000Y-95530000D03*
X151480000Y-94400000D03*
X152610000Y-94400000D03*
X153740000Y-94400000D03*
D24*
X149810000Y-98980000D03*
X150210000Y-98980000D03*
X150610000Y-98980000D03*
X151010000Y-98980000D03*
X151410000Y-98980000D03*
X151810000Y-98980000D03*
X152210000Y-98980000D03*
X152610000Y-98980000D03*
X153010000Y-98980000D03*
X153410000Y-98980000D03*
X153810000Y-98980000D03*
X154210000Y-98980000D03*
X154610000Y-98980000D03*
X155010000Y-98980000D03*
X155410000Y-98980000D03*
D25*
X156060000Y-98330000D03*
X156060000Y-97930000D03*
X156060000Y-97530000D03*
X156060000Y-97130000D03*
X156060000Y-96730000D03*
X156060000Y-96330000D03*
X156060000Y-95930000D03*
X156060000Y-95530000D03*
X156060000Y-95130000D03*
X156060000Y-94730000D03*
X156060000Y-94330000D03*
X156060000Y-93930000D03*
X156060000Y-93530000D03*
X156060000Y-93130000D03*
X156060000Y-92730000D03*
D24*
X155410000Y-92080000D03*
X155010000Y-92080000D03*
X154610000Y-92080000D03*
X154210000Y-92080000D03*
X153810000Y-92080000D03*
X153410000Y-92080000D03*
X153010000Y-92080000D03*
X152610000Y-92080000D03*
X152210000Y-92080000D03*
X151810000Y-92080000D03*
X151410000Y-92080000D03*
X151010000Y-92080000D03*
X150610000Y-92080000D03*
X150210000Y-92080000D03*
X149810000Y-92080000D03*
D25*
X149160000Y-92730000D03*
X149160000Y-93130000D03*
X149160000Y-93530000D03*
X149160000Y-93930000D03*
X149160000Y-94330000D03*
X149160000Y-94730000D03*
X149160000Y-95130000D03*
X149160000Y-95530000D03*
X149160000Y-95930000D03*
X149160000Y-96330000D03*
X149160000Y-96730000D03*
X149160000Y-97130000D03*
X149160000Y-97530000D03*
X149160000Y-97930000D03*
X149160000Y-98330000D03*
%TD*%
D10*
%TO.C,R8*%
X156975000Y-91500000D03*
X157840000Y-91500000D03*
%TD*%
%TO.C,C10*%
X159275000Y-98500000D03*
X160140000Y-98500000D03*
%TD*%
%TO.C,C9*%
X147125000Y-99500000D03*
X147990000Y-99500000D03*
%TD*%
D15*
%TO.C,C7*%
X143840000Y-99900000D03*
X142975000Y-99900000D03*
%TD*%
M02*
